<ttFont>
    <TTGlyph name="A" xMin="25" yMin="0" xMax="643" yMax="726">
      <contour>
        <pt x="25" y="0" on="1"/>
        <pt x="262" y="705" on="1"/>
        <pt x="270" y="726" on="0"/>
        <pt x="297" y="726" on="1"/>
        <pt x="308" y="726" on="0"/>
        <pt x="404" y="720" on="1"/>
        <pt x="643" y="0" on="1"/>
        <pt x="526" y="0" on="1"/>
        <pt x="461" y="210" on="1"/>
        <pt x="208" y="210" on="1"/>
        <pt x="144" y="0" on="1"/>
      </contour>
      <contour>
        <pt x="235" y="300" on="1"/>
        <pt x="433" y="300" on="1"/>
        <pt x="333" y="624" on="1"/>
        <pt x="333" y="618" on="1"/>
      </contour>
    </TTGlyph>
    <TTGlyph name="AE" xMin="25" yMin="0" xMax="891" yMax="720">
      <contour>
        <pt x="25" y="0" on="1"/>
        <pt x="325" y="698" on="1"/>
        <pt x="335" y="720" on="0"/>
        <pt x="360" y="720" on="1"/>
        <pt x="871" y="720" on="1"/>
        <pt x="871" y="624" on="1"/>
        <pt x="568" y="624" on="1"/>
        <pt x="568" y="411" on="1"/>
        <pt x="831" y="411" on="1"/>
        <pt x="831" y="321" on="1"/>
        <pt x="568" y="321" on="1"/>
        <pt x="568" y="96" on="1"/>
        <pt x="891" y="96" on="1"/>
        <pt x="877" y="0" on="1"/>
        <pt x="454" y="0" on="1"/>
        <pt x="454" y="210" on="1"/>
        <pt x="239" y="210" on="1"/>
        <pt x="154" y="0" on="1"/>
      </contour>
      <contour>
        <pt x="406" y="624" on="1"/>
        <pt x="275" y="300" on="1"/>
        <pt x="454" y="300" on="1"/>
        <pt x="454" y="624" on="1"/>
      </contour>
    </TTGlyph>
    <TTGlyph name="Aacute" xMin="25" yMin="0" xMax="643" yMax="942">
      <contour>
        <pt x="498" y="856" on="1"/>
        <pt x="285" y="778" on="1"/>
        <pt x="261" y="820" on="1"/>
        <pt x="292" y="851" on="0"/>
        <pt x="423" y="942" on="0"/>
        <pt x="459" y="942" on="0"/>
        <pt x="498" y="876" on="0"/>
      </contour>
      <contour>
        <pt x="25" y="0" on="1"/>
        <pt x="262" y="705" on="1"/>
        <pt x="270" y="726" on="0"/>
        <pt x="297" y="726" on="1"/>
        <pt x="308" y="726" on="0"/>
        <pt x="404" y="720" on="1"/>
        <pt x="643" y="0" on="1"/>
        <pt x="526" y="0" on="1"/>
        <pt x="461" y="210" on="1"/>
        <pt x="208" y="210" on="1"/>
        <pt x="144" y="0" on="1"/>
      </contour>
      <contour>
        <pt x="235" y="300" on="1"/>
        <pt x="433" y="300" on="1"/>
        <pt x="333" y="624" on="1"/>
        <pt x="333" y="618" on="1"/>
      </contour>
    </TTGlyph>
    <TTGlyph name="Acircumflex" xMin="25" yMin="0" xMax="643" yMax="942">
      <contour>
        <pt x="334" y="855" on="1"/>
        <pt x="220" y="778" on="1"/>
        <pt x="188" y="818" on="1"/>
        <pt x="298" y="942" on="0"/>
        <pt x="370" y="942" on="0"/>
        <pt x="480" y="818" on="1"/>
        <pt x="449" y="778" on="1"/>
      </contour>
      <contour>
        <pt x="25" y="0" on="1"/>
        <pt x="262" y="705" on="1"/>
        <pt x="270" y="726" on="0"/>
        <pt x="297" y="726" on="1"/>
        <pt x="308" y="726" on="0"/>
        <pt x="404" y="720" on="1"/>
        <pt x="643" y="0" on="1"/>
        <pt x="526" y="0" on="1"/>
        <pt x="461" y="210" on="1"/>
        <pt x="208" y="210" on="1"/>
        <pt x="144" y="0" on="1"/>
      </contour>
      <contour>
        <pt x="235" y="300" on="1"/>
        <pt x="433" y="300" on="1"/>
        <pt x="333" y="624" on="1"/>
        <pt x="333" y="618" on="1"/>
      </contour>
    </TTGlyph>
    <TTGlyph name="Adieresis" xMin="25" yMin="0" xMax="643" yMax="916">
      <contour>
        <pt x="440" y="916" on="1"/>
        <pt x="464" y="916" on="0"/>
        <pt x="496" y="885" on="0"/>
        <pt x="496" y="854" on="1"/>
        <pt x="496" y="789" on="0"/>
        <pt x="429" y="789" on="1"/>
        <pt x="406" y="789" on="0"/>
        <pt x="376" y="820" on="0"/>
        <pt x="376" y="850" on="1"/>
        <pt x="376" y="916" on="0"/>
      </contour>
      <contour>
        <pt x="252" y="916" on="1"/>
        <pt x="276" y="916" on="0"/>
        <pt x="308" y="885" on="0"/>
        <pt x="308" y="854" on="1"/>
        <pt x="308" y="789" on="0"/>
        <pt x="241" y="789" on="1"/>
        <pt x="218" y="789" on="0"/>
        <pt x="188" y="820" on="0"/>
        <pt x="188" y="850" on="1"/>
        <pt x="188" y="916" on="0"/>
      </contour>
      <contour>
        <pt x="25" y="0" on="1"/>
        <pt x="262" y="705" on="1"/>
        <pt x="270" y="726" on="0"/>
        <pt x="297" y="726" on="1"/>
        <pt x="308" y="726" on="0"/>
        <pt x="404" y="720" on="1"/>
        <pt x="643" y="0" on="1"/>
        <pt x="526" y="0" on="1"/>
        <pt x="461" y="210" on="1"/>
        <pt x="208" y="210" on="1"/>
        <pt x="144" y="0" on="1"/>
      </contour>
      <contour>
        <pt x="235" y="300" on="1"/>
        <pt x="433" y="300" on="1"/>
        <pt x="333" y="624" on="1"/>
        <pt x="333" y="618" on="1"/>
      </contour>
    </TTGlyph>
    <TTGlyph name="Agrave" xMin="25" yMin="0" xMax="643" yMax="942">
      <contour>
        <pt x="408" y="778" on="1"/>
        <pt x="195" y="856" on="1"/>
        <pt x="195" y="876" on="0"/>
        <pt x="234" y="942" on="0"/>
        <pt x="270" y="942" on="0"/>
        <pt x="401" y="851" on="0"/>
        <pt x="432" y="820" on="1"/>
      </contour>
      <contour>
        <pt x="25" y="0" on="1"/>
        <pt x="262" y="705" on="1"/>
        <pt x="270" y="726" on="0"/>
        <pt x="297" y="726" on="1"/>
        <pt x="308" y="726" on="0"/>
        <pt x="404" y="720" on="1"/>
        <pt x="643" y="0" on="1"/>
        <pt x="526" y="0" on="1"/>
        <pt x="461" y="210" on="1"/>
        <pt x="208" y="210" on="1"/>
        <pt x="144" y="0" on="1"/>
      </contour>
      <contour>
        <pt x="235" y="300" on="1"/>
        <pt x="433" y="300" on="1"/>
        <pt x="333" y="624" on="1"/>
        <pt x="333" y="618" on="1"/>
      </contour>
    </TTGlyph>
    <TTGlyph name="Aring" xMin="25" yMin="0" xMax="643" yMax="938">
      <contour>
        <pt x="249" y="888" on="0"/>
        <pt x="299" y="938" on="0"/>
        <pt x="387" y="938" on="0"/>
        <pt x="438" y="895" on="0"/>
        <pt x="438" y="811" on="0"/>
        <pt x="384" y="762" on="0"/>
        <pt x="296" y="762" on="0"/>
        <pt x="249" y="805" on="0"/>
      </contour>
      <contour>
        <pt x="341" y="802" on="1"/>
        <pt x="385" y="802" on="0"/>
        <pt x="385" y="896" on="0"/>
        <pt x="343" y="896" on="1"/>
        <pt x="319" y="896" on="0"/>
        <pt x="302" y="872" on="0"/>
        <pt x="302" y="848" on="1"/>
        <pt x="302" y="802" on="0"/>
      </contour>
      <contour>
        <pt x="25" y="0" on="1"/>
        <pt x="262" y="705" on="1"/>
        <pt x="270" y="726" on="0"/>
        <pt x="297" y="726" on="1"/>
        <pt x="308" y="726" on="0"/>
        <pt x="404" y="720" on="1"/>
        <pt x="643" y="0" on="1"/>
        <pt x="526" y="0" on="1"/>
        <pt x="461" y="210" on="1"/>
        <pt x="208" y="210" on="1"/>
        <pt x="144" y="0" on="1"/>
      </contour>
      <contour>
        <pt x="235" y="300" on="1"/>
        <pt x="433" y="300" on="1"/>
        <pt x="333" y="624" on="1"/>
        <pt x="333" y="618" on="1"/>
      </contour>
    </TTGlyph>
    <TTGlyph name="Atilde" xMin="25" yMin="0" xMax="643" yMax="909">
      <contour>
        <pt x="206" y="804" on="1"/>
        <pt x="166" y="830" on="1"/>
        <pt x="177" y="861" on="0"/>
        <pt x="240" y="909" on="0"/>
        <pt x="313" y="909" on="0"/>
        <pt x="395" y="864" on="0"/>
        <pt x="435" y="864" on="0"/>
        <pt x="469" y="882" on="0"/>
        <pt x="476" y="892" on="1"/>
        <pt x="516" y="866" on="1"/>
        <pt x="505" y="835" on="0"/>
        <pt x="442" y="787" on="0"/>
        <pt x="369" y="787" on="0"/>
        <pt x="287" y="831" on="0"/>
        <pt x="246" y="831" on="0"/>
        <pt x="213" y="814" on="0"/>
      </contour>
      <contour>
        <pt x="25" y="0" on="1"/>
        <pt x="262" y="705" on="1"/>
        <pt x="270" y="726" on="0"/>
        <pt x="297" y="726" on="1"/>
        <pt x="308" y="726" on="0"/>
        <pt x="404" y="720" on="1"/>
        <pt x="643" y="0" on="1"/>
        <pt x="526" y="0" on="1"/>
        <pt x="461" y="210" on="1"/>
        <pt x="208" y="210" on="1"/>
        <pt x="144" y="0" on="1"/>
      </contour>
      <contour>
        <pt x="235" y="300" on="1"/>
        <pt x="433" y="300" on="1"/>
        <pt x="333" y="624" on="1"/>
        <pt x="333" y="618" on="1"/>
      </contour>
    </TTGlyph>
    <TTGlyph name="B" xMin="108" yMin="-12" xMax="599" yMax="726">
      <contour>
        <pt x="108" y="0" on="1"/>
        <pt x="108" y="714" on="1"/>
        <pt x="186" y="726" on="0"/>
        <pt x="347" y="726" on="1"/>
        <pt x="455" y="726" on="0"/>
        <pt x="582" y="607" on="0"/>
        <pt x="582" y="525" on="1"/>
        <pt x="582" y="424" on="0"/>
        <pt x="502" y="367" on="1"/>
        <pt x="599" y="314" on="0"/>
        <pt x="599" y="199" on="1"/>
        <pt x="599" y="112" on="0"/>
        <pt x="474" y="-12" on="0"/>
        <pt x="348" y="-12" on="1"/>
        <pt x="198" y="-12" on="0"/>
      </contour>
      <contour>
        <pt x="222" y="403" on="1"/>
        <pt x="401" y="403" on="1"/>
        <pt x="412" y="412" on="0"/>
        <pt x="425" y="422" on="0"/>
        <pt x="441" y="441" on="0"/>
        <pt x="447" y="452" on="1"/>
        <pt x="462" y="480" on="0"/>
        <pt x="462" y="512" on="1"/>
        <pt x="462" y="636" on="0"/>
        <pt x="317" y="636" on="1"/>
        <pt x="286" y="636" on="0"/>
        <pt x="222" y="632" on="1"/>
      </contour>
      <contour>
        <pt x="222" y="84" on="1"/>
        <pt x="304" y="78" on="0"/>
        <pt x="334" y="78" on="1"/>
        <pt x="414" y="78" on="0"/>
        <pt x="479" y="142" on="0"/>
        <pt x="479" y="261" on="0"/>
        <pt x="412" y="322" on="0"/>
        <pt x="331" y="322" on="1"/>
        <pt x="222" y="322" on="1"/>
      </contour>
    </TTGlyph>
    <TTGlyph name="C" xMin="60" yMin="-12" xMax="618" yMax="732">
      <contour>
        <pt x="60" y="363" on="1"/>
        <pt x="60" y="589" on="0"/>
        <pt x="206" y="682" on="1"/>
        <pt x="283" y="732" on="0"/>
        <pt x="395" y="732" on="1"/>
        <pt x="506" y="732" on="0"/>
        <pt x="604" y="696" on="1"/>
        <pt x="617" y="691" on="0"/>
        <pt x="618" y="691" on="1"/>
        <pt x="589" y="603" on="1"/>
        <pt x="588" y="603" on="0"/>
        <pt x="563" y="610" on="0"/>
        <pt x="538" y="617" on="0"/>
        <pt x="498" y="625" on="0"/>
        <pt x="480" y="628" on="1"/>
        <pt x="440" y="636" on="0"/>
        <pt x="395" y="636" on="1"/>
        <pt x="283" y="636" on="0"/>
        <pt x="180" y="510" on="0"/>
        <pt x="180" y="361" on="1"/>
        <pt x="180" y="192" on="0"/>
        <pt x="239" y="135" on="1"/>
        <pt x="269" y="106" on="0"/>
        <pt x="341" y="84" on="0"/>
        <pt x="392" y="84" on="1"/>
        <pt x="485" y="84" on="0"/>
        <pt x="589" y="121" on="1"/>
        <pt x="618" y="30" on="1"/>
        <pt x="592" y="22" on="1"/>
        <pt x="484" y="-12" on="0"/>
        <pt x="370" y="-12" on="1"/>
        <pt x="221" y="-12" on="0"/>
        <pt x="60" y="178" on="0"/>
      </contour>
    </TTGlyph>
    <TTGlyph name="Ccedilla" xMin="60" yMin="-210" xMax="618" yMax="732">
      <contour>
        <pt x="60" y="363" on="1"/>
        <pt x="60" y="589" on="0"/>
        <pt x="206" y="682" on="1"/>
        <pt x="283" y="732" on="0"/>
        <pt x="395" y="732" on="1"/>
        <pt x="506" y="732" on="0"/>
        <pt x="604" y="696" on="1"/>
        <pt x="617" y="691" on="0"/>
        <pt x="618" y="691" on="1"/>
        <pt x="589" y="603" on="1"/>
        <pt x="588" y="603" on="0"/>
        <pt x="563" y="610" on="0"/>
        <pt x="538" y="617" on="0"/>
        <pt x="498" y="625" on="0"/>
        <pt x="480" y="628" on="1"/>
        <pt x="440" y="636" on="0"/>
        <pt x="395" y="636" on="1"/>
        <pt x="283" y="636" on="0"/>
        <pt x="180" y="510" on="0"/>
        <pt x="180" y="361" on="1"/>
        <pt x="180" y="192" on="0"/>
        <pt x="239" y="135" on="1"/>
        <pt x="269" y="106" on="0"/>
        <pt x="341" y="84" on="0"/>
        <pt x="392" y="84" on="1"/>
        <pt x="485" y="84" on="0"/>
        <pt x="589" y="121" on="1"/>
        <pt x="618" y="30" on="1"/>
        <pt x="616" y="30" on="0"/>
        <pt x="590" y="21" on="0"/>
        <pt x="557" y="11" on="0"/>
        <pt x="534" y="6" on="1"/>
        <pt x="478" y="-6" on="0"/>
        <pt x="418" y="-10" on="1"/>
        <pt x="408" y="-56" on="1"/>
        <pt x="473" y="-67" on="0"/>
        <pt x="473" y="-122" on="1"/>
        <pt x="473" y="-155" on="0"/>
        <pt x="452" y="-176" on="1"/>
        <pt x="421" y="-210" on="0"/>
        <pt x="324" y="-210" on="0"/>
        <pt x="288" y="-191" on="1"/>
        <pt x="307" y="-143" on="1"/>
        <pt x="330" y="-152" on="0"/>
        <pt x="352" y="-152" on="1"/>
        <pt x="397" y="-152" on="0"/>
        <pt x="397" y="-93" on="0"/>
        <pt x="364" y="-93" on="1"/>
        <pt x="351" y="-93" on="0"/>
        <pt x="332" y="-97" on="0"/>
        <pt x="329" y="-97" on="1"/>
        <pt x="340" y="-11" on="1"/>
        <pt x="204" y="-2" on="0"/>
        <pt x="60" y="188" on="0"/>
      </contour>
    </TTGlyph>
    <TTGlyph name="D" xMin="108" yMin="-6" xMax="675" yMax="726">
      <contour>
        <pt x="108" y="0" on="1"/>
        <pt x="108" y="715" on="1"/>
        <pt x="229" y="726" on="0"/>
        <pt x="381" y="726" on="1"/>
        <pt x="510" y="726" on="0"/>
        <pt x="675" y="548" on="0"/>
        <pt x="675" y="195" on="0"/>
        <pt x="505" y="-6" on="0"/>
        <pt x="155" y="-6" on="0"/>
      </contour>
      <contour>
        <pt x="222" y="88" on="1"/>
        <pt x="282" y="84" on="0"/>
        <pt x="354" y="84" on="1"/>
        <pt x="467" y="84" on="0"/>
        <pt x="558" y="231" on="0"/>
        <pt x="558" y="515" on="0"/>
        <pt x="455" y="636" on="0"/>
        <pt x="363" y="636" on="1"/>
        <pt x="322" y="636" on="0"/>
        <pt x="222" y="630" on="1"/>
      </contour>
    </TTGlyph>
    <TTGlyph name="E" xMin="108" yMin="0" xMax="545" yMax="720">
      <contour>
        <pt x="108" y="0" on="1"/>
        <pt x="108" y="720" on="1"/>
        <pt x="525" y="720" on="1"/>
        <pt x="525" y="627" on="1"/>
        <pt x="222" y="627" on="1"/>
        <pt x="222" y="409" on="1"/>
        <pt x="485" y="409" on="1"/>
        <pt x="485" y="322" on="1"/>
        <pt x="222" y="322" on="1"/>
        <pt x="222" y="93" on="1"/>
        <pt x="545" y="93" on="1"/>
        <pt x="531" y="0" on="1"/>
      </contour>
    </TTGlyph>
    <TTGlyph name="E.alt" xMin="54" yMin="-12" xMax="533" yMax="732">
      <contour>
        <pt x="441" y="314" on="1"/>
        <pt x="398" y="318" on="0"/>
        <pt x="318" y="318" on="1"/>
        <pt x="174" y="318" on="0"/>
        <pt x="174" y="210" on="1"/>
        <pt x="174" y="149" on="0"/>
        <pt x="248" y="84" on="0"/>
        <pt x="316" y="84" on="1"/>
        <pt x="356" y="84" on="0"/>
        <pt x="447" y="110" on="0"/>
        <pt x="472" y="124" on="1"/>
        <pt x="498" y="137" on="1"/>
        <pt x="533" y="55" on="1"/>
        <pt x="526" y="48" on="0"/>
        <pt x="474" y="20" on="0"/>
        <pt x="450" y="11" on="1"/>
        <pt x="390" y="-12" on="0"/>
        <pt x="312" y="-12" on="1"/>
        <pt x="54" y="-12" on="0"/>
        <pt x="54" y="198" on="1"/>
        <pt x="54" y="270" on="0"/>
        <pt x="85" y="312" on="1"/>
        <pt x="112" y="348" on="0"/>
        <pt x="134" y="360" on="1"/>
        <pt x="143" y="365" on="1"/>
        <pt x="135" y="370" on="0"/>
        <pt x="100" y="409" on="0"/>
        <pt x="90" y="427" on="1"/>
        <pt x="61" y="476" on="0"/>
        <pt x="61" y="529" on="1"/>
        <pt x="61" y="618" on="0"/>
        <pt x="192" y="732" on="0"/>
        <pt x="309" y="732" on="1"/>
        <pt x="353" y="732" on="0"/>
        <pt x="459" y="701" on="0"/>
        <pt x="490" y="686" on="1"/>
        <pt x="521" y="670" on="1"/>
        <pt x="484" y="584" on="1"/>
        <pt x="385" y="636" on="0"/>
        <pt x="257" y="636" on="0"/>
        <pt x="181" y="584" on="0"/>
        <pt x="181" y="472" on="0"/>
        <pt x="255" y="414" on="0"/>
        <pt x="318" y="414" on="1"/>
        <pt x="441" y="416" on="1"/>
      </contour>
    </TTGlyph>
    <TTGlyph name="Eacute" xMin="108" yMin="0" xMax="545" yMax="942">
      <contour>
        <pt x="290" y="778" on="1"/>
        <pt x="266" y="820" on="1"/>
        <pt x="297" y="851" on="0"/>
        <pt x="428" y="942" on="0"/>
        <pt x="464" y="942" on="0"/>
        <pt x="503" y="876" on="0"/>
        <pt x="503" y="856" on="1"/>
      </contour>
      <contour>
        <pt x="108" y="0" on="1"/>
        <pt x="108" y="720" on="1"/>
        <pt x="525" y="720" on="1"/>
        <pt x="525" y="627" on="1"/>
        <pt x="222" y="627" on="1"/>
        <pt x="222" y="409" on="1"/>
        <pt x="485" y="409" on="1"/>
        <pt x="485" y="322" on="1"/>
        <pt x="222" y="322" on="1"/>
        <pt x="222" y="93" on="1"/>
        <pt x="545" y="93" on="1"/>
        <pt x="531" y="0" on="1"/>
      </contour>
    </TTGlyph>
    <TTGlyph name="Ecircumflex" xMin="108" yMin="0" xMax="545" yMax="942">
      <contour>
        <pt x="204" y="778" on="1"/>
        <pt x="172" y="818" on="1"/>
        <pt x="282" y="942" on="0"/>
        <pt x="354" y="942" on="0"/>
        <pt x="464" y="818" on="1"/>
        <pt x="433" y="778" on="1"/>
        <pt x="318" y="855" on="1"/>
      </contour>
      <contour>
        <pt x="108" y="0" on="1"/>
        <pt x="108" y="720" on="1"/>
        <pt x="525" y="720" on="1"/>
        <pt x="525" y="627" on="1"/>
        <pt x="222" y="627" on="1"/>
        <pt x="222" y="409" on="1"/>
        <pt x="485" y="409" on="1"/>
        <pt x="485" y="322" on="1"/>
        <pt x="222" y="322" on="1"/>
        <pt x="222" y="93" on="1"/>
        <pt x="545" y="93" on="1"/>
        <pt x="531" y="0" on="1"/>
      </contour>
    </TTGlyph>
    <TTGlyph name="Edieresis" xMin="108" yMin="0" xMax="545" yMax="916">
      <contour>
        <pt x="410" y="916" on="1"/>
        <pt x="434" y="916" on="0"/>
        <pt x="466" y="885" on="0"/>
        <pt x="466" y="854" on="1"/>
        <pt x="466" y="789" on="0"/>
        <pt x="399" y="789" on="1"/>
        <pt x="376" y="789" on="0"/>
        <pt x="346" y="820" on="0"/>
        <pt x="346" y="850" on="1"/>
        <pt x="346" y="916" on="0"/>
      </contour>
      <contour>
        <pt x="222" y="916" on="1"/>
        <pt x="246" y="916" on="0"/>
        <pt x="278" y="885" on="0"/>
        <pt x="278" y="854" on="1"/>
        <pt x="278" y="789" on="0"/>
        <pt x="211" y="789" on="1"/>
        <pt x="188" y="789" on="0"/>
        <pt x="158" y="820" on="0"/>
        <pt x="158" y="850" on="1"/>
        <pt x="158" y="916" on="0"/>
      </contour>
      <contour>
        <pt x="108" y="0" on="1"/>
        <pt x="108" y="720" on="1"/>
        <pt x="525" y="720" on="1"/>
        <pt x="525" y="627" on="1"/>
        <pt x="222" y="627" on="1"/>
        <pt x="222" y="409" on="1"/>
        <pt x="485" y="409" on="1"/>
        <pt x="485" y="322" on="1"/>
        <pt x="222" y="322" on="1"/>
        <pt x="222" y="93" on="1"/>
        <pt x="545" y="93" on="1"/>
        <pt x="531" y="0" on="1"/>
      </contour>
    </TTGlyph>
    <TTGlyph name="Egrave" xMin="108" yMin="0" xMax="545" yMax="942">
      <contour>
        <pt x="353" y="778" on="1"/>
        <pt x="140" y="856" on="1"/>
        <pt x="140" y="876" on="0"/>
        <pt x="179" y="942" on="0"/>
        <pt x="215" y="942" on="0"/>
        <pt x="346" y="851" on="0"/>
        <pt x="377" y="820" on="1"/>
      </contour>
      <contour>
        <pt x="108" y="0" on="1"/>
        <pt x="108" y="720" on="1"/>
        <pt x="525" y="720" on="1"/>
        <pt x="525" y="627" on="1"/>
        <pt x="222" y="627" on="1"/>
        <pt x="222" y="409" on="1"/>
        <pt x="485" y="409" on="1"/>
        <pt x="485" y="322" on="1"/>
        <pt x="222" y="322" on="1"/>
        <pt x="222" y="93" on="1"/>
        <pt x="545" y="93" on="1"/>
        <pt x="531" y="0" on="1"/>
      </contour>
    </TTGlyph>
    <TTGlyph name="Eth" xMin="24" yMin="-6" xMax="675" yMax="726">
      <contour>
        <pt x="24" y="322" on="1"/>
        <pt x="24" y="406" on="1"/>
        <pt x="108" y="406" on="1"/>
        <pt x="108" y="715" on="1"/>
        <pt x="229" y="726" on="0"/>
        <pt x="381" y="726" on="1"/>
        <pt x="510" y="726" on="0"/>
        <pt x="675" y="548" on="0"/>
        <pt x="675" y="195" on="0"/>
        <pt x="505" y="-6" on="0"/>
        <pt x="155" y="-6" on="0"/>
        <pt x="108" y="0" on="1"/>
        <pt x="108" y="322" on="1"/>
      </contour>
      <contour>
        <pt x="363" y="636" on="1"/>
        <pt x="322" y="636" on="0"/>
        <pt x="222" y="630" on="1"/>
        <pt x="222" y="406" on="1"/>
        <pt x="361" y="406" on="1"/>
        <pt x="347" y="322" on="1"/>
        <pt x="222" y="322" on="1"/>
        <pt x="222" y="88" on="1"/>
        <pt x="282" y="84" on="0"/>
        <pt x="354" y="84" on="1"/>
        <pt x="467" y="84" on="0"/>
        <pt x="558" y="231" on="0"/>
        <pt x="558" y="515" on="0"/>
        <pt x="455" y="636" on="0"/>
      </contour>
    </TTGlyph>
    <TTGlyph name="Euro" xMin="6" yMin="-12" xMax="489" yMax="690">
      <contour>
        <pt x="355" y="354" on="1"/>
        <pt x="6" y="354" on="1"/>
        <pt x="6" y="420" on="1"/>
        <pt x="56" y="420" on="1"/>
        <pt x="72" y="548" on="0"/>
        <pt x="202" y="690" on="0"/>
        <pt x="318" y="690" on="1"/>
        <pt x="402" y="690" on="0"/>
        <pt x="480" y="654" on="1"/>
        <pt x="489" y="649" on="1"/>
        <pt x="460" y="561" on="1"/>
        <pt x="447" y="566" on="1"/>
        <pt x="374" y="594" on="0"/>
        <pt x="256" y="594" on="0"/>
        <pt x="185" y="513" on="0"/>
        <pt x="175" y="420" on="1"/>
        <pt x="365" y="420" on="1"/>
      </contour>
      <contour>
        <pt x="336" y="234" on="1"/>
        <pt x="177" y="234" on="1"/>
        <pt x="190" y="148" on="0"/>
        <pt x="260" y="84" on="0"/>
        <pt x="386" y="84" on="0"/>
        <pt x="460" y="121" on="1"/>
        <pt x="489" y="30" on="1"/>
        <pt x="471" y="23" on="0"/>
        <pt x="449" y="14" on="0"/>
        <pt x="412" y="3" on="0"/>
        <pt x="394" y="-2" on="1"/>
        <pt x="350" y="-12" on="0"/>
        <pt x="304" y="-12" on="1"/>
        <pt x="200" y="-12" on="0"/>
        <pt x="75" y="112" on="0"/>
        <pt x="57" y="234" on="1"/>
        <pt x="6" y="234" on="1"/>
        <pt x="6" y="300" on="1"/>
        <pt x="346" y="300" on="1"/>
      </contour>
    </TTGlyph>
    <TTGlyph name="F" xMin="108" yMin="0" xMax="515" yMax="720">
      <contour>
        <pt x="108" y="0" on="1"/>
        <pt x="108" y="720" on="1"/>
        <pt x="515" y="720" on="1"/>
        <pt x="515" y="624" on="1"/>
        <pt x="222" y="624" on="1"/>
        <pt x="222" y="391" on="1"/>
        <pt x="475" y="391" on="1"/>
        <pt x="461" y="301" on="1"/>
        <pt x="222" y="301" on="1"/>
        <pt x="222" y="0" on="1"/>
      </contour>
    </TTGlyph>
    <TTGlyph name="G" xMin="60" yMin="-12" xMax="632" yMax="732">
      <contour>
        <pt x="60" y="363" on="1"/>
        <pt x="60" y="589" on="0"/>
        <pt x="206" y="682" on="1"/>
        <pt x="283" y="732" on="0"/>
        <pt x="395" y="732" on="1"/>
        <pt x="506" y="732" on="0"/>
        <pt x="604" y="696" on="1"/>
        <pt x="617" y="691" on="0"/>
        <pt x="618" y="691" on="1"/>
        <pt x="589" y="603" on="1"/>
        <pt x="588" y="603" on="0"/>
        <pt x="563" y="610" on="0"/>
        <pt x="538" y="617" on="0"/>
        <pt x="498" y="625" on="0"/>
        <pt x="480" y="628" on="1"/>
        <pt x="440" y="636" on="0"/>
        <pt x="395" y="636" on="1"/>
        <pt x="283" y="636" on="0"/>
        <pt x="180" y="510" on="0"/>
        <pt x="180" y="361" on="1"/>
        <pt x="180" y="192" on="0"/>
        <pt x="239" y="135" on="1"/>
        <pt x="269" y="106" on="0"/>
        <pt x="341" y="84" on="0"/>
        <pt x="439" y="84" on="0"/>
        <pt x="518" y="91" on="1"/>
        <pt x="518" y="308" on="1"/>
        <pt x="632" y="321" on="1"/>
        <pt x="632" y="26" on="1"/>
        <pt x="631" y="26" on="0"/>
        <pt x="595" y="17" on="0"/>
        <pt x="565" y="10" on="0"/>
        <pt x="512" y="0" on="0"/>
        <pt x="488" y="-4" on="1"/>
        <pt x="428" y="-12" on="0"/>
        <pt x="370" y="-12" on="1"/>
        <pt x="221" y="-12" on="0"/>
        <pt x="60" y="178" on="0"/>
      </contour>
    </TTGlyph>
    <TTGlyph name="H" xMin="108" yMin="0" xMax="638" yMax="720">
      <contour>
        <pt x="108" y="0" on="1"/>
        <pt x="108" y="720" on="1"/>
        <pt x="222" y="720" on="1"/>
        <pt x="222" y="420" on="1"/>
        <pt x="524" y="420" on="1"/>
        <pt x="524" y="720" on="1"/>
        <pt x="638" y="720" on="1"/>
        <pt x="638" y="0" on="1"/>
        <pt x="524" y="0" on="1"/>
        <pt x="524" y="324" on="1"/>
        <pt x="222" y="324" on="1"/>
        <pt x="222" y="0" on="1"/>
      </contour>
    </TTGlyph>
    <TTGlyph name="I" xMin="108" yMin="0" xMax="222" yMax="720">
      <contour>
        <pt x="108" y="0" on="1"/>
        <pt x="108" y="720" on="1"/>
        <pt x="222" y="720" on="1"/>
        <pt x="222" y="0" on="1"/>
      </contour>
    </TTGlyph>
    <TTGlyph name="IJ" xMin="108" yMin="-222" xMax="552" yMax="720">
      <contour>
        <pt x="269" y="-105" on="1"/>
        <pt x="303" y="-126" on="0"/>
        <pt x="393" y="-126" on="0"/>
        <pt x="438" y="-58" on="0"/>
        <pt x="438" y="-3" on="1"/>
        <pt x="438" y="720" on="1"/>
        <pt x="552" y="720" on="1"/>
        <pt x="552" y="-3" on="1"/>
        <pt x="552" y="-116" on="0"/>
        <pt x="454" y="-222" on="0"/>
        <pt x="352" y="-222" on="1"/>
        <pt x="319" y="-222" on="0"/>
        <pt x="259" y="-204" on="0"/>
        <pt x="245" y="-194" on="1"/>
        <pt x="231" y="-185" on="1"/>
      </contour>
      <contour>
        <pt x="108" y="0" on="1"/>
        <pt x="108" y="720" on="1"/>
        <pt x="222" y="720" on="1"/>
        <pt x="222" y="0" on="1"/>
      </contour>
    </TTGlyph>
    <TTGlyph name="Iacute" xMin="102" yMin="0" xMax="339" yMax="942">
      <contour>
        <pt x="126" y="778" on="1"/>
        <pt x="102" y="820" on="1"/>
        <pt x="133" y="851" on="0"/>
        <pt x="264" y="942" on="0"/>
        <pt x="300" y="942" on="0"/>
        <pt x="339" y="876" on="0"/>
        <pt x="339" y="856" on="1"/>
      </contour>
      <contour>
        <pt x="108" y="0" on="1"/>
        <pt x="108" y="720" on="1"/>
        <pt x="222" y="720" on="1"/>
        <pt x="222" y="0" on="1"/>
      </contour>
    </TTGlyph>
    <TTGlyph name="Icircumflex" xMin="22" yMin="0" xMax="314" yMax="942">
      <contour>
        <pt x="54" y="778" on="1"/>
        <pt x="22" y="818" on="1"/>
        <pt x="132" y="942" on="0"/>
        <pt x="204" y="942" on="0"/>
        <pt x="314" y="818" on="1"/>
        <pt x="283" y="778" on="1"/>
        <pt x="168" y="855" on="1"/>
      </contour>
      <contour>
        <pt x="108" y="0" on="1"/>
        <pt x="108" y="720" on="1"/>
        <pt x="222" y="720" on="1"/>
        <pt x="222" y="0" on="1"/>
      </contour>
    </TTGlyph>
    <TTGlyph name="Idieresis" xMin="13" yMin="0" xMax="321" yMax="916">
      <contour>
        <pt x="265" y="916" on="1"/>
        <pt x="289" y="916" on="0"/>
        <pt x="321" y="885" on="0"/>
        <pt x="321" y="854" on="1"/>
        <pt x="321" y="789" on="0"/>
        <pt x="254" y="789" on="1"/>
        <pt x="231" y="789" on="0"/>
        <pt x="201" y="820" on="0"/>
        <pt x="201" y="850" on="1"/>
        <pt x="201" y="916" on="0"/>
      </contour>
      <contour>
        <pt x="77" y="916" on="1"/>
        <pt x="101" y="916" on="0"/>
        <pt x="133" y="885" on="0"/>
        <pt x="133" y="854" on="1"/>
        <pt x="133" y="789" on="0"/>
        <pt x="66" y="789" on="1"/>
        <pt x="43" y="789" on="0"/>
        <pt x="13" y="820" on="0"/>
        <pt x="13" y="850" on="1"/>
        <pt x="13" y="916" on="0"/>
      </contour>
      <contour>
        <pt x="108" y="0" on="1"/>
        <pt x="108" y="720" on="1"/>
        <pt x="222" y="720" on="1"/>
        <pt x="222" y="0" on="1"/>
      </contour>
    </TTGlyph>
    <TTGlyph name="Igrave" xMin="10" yMin="0" xMax="247" yMax="942">
      <contour>
        <pt x="223" y="778" on="1"/>
        <pt x="10" y="856" on="1"/>
        <pt x="10" y="876" on="0"/>
        <pt x="49" y="942" on="0"/>
        <pt x="85" y="942" on="0"/>
        <pt x="216" y="851" on="0"/>
        <pt x="247" y="820" on="1"/>
      </contour>
      <contour>
        <pt x="108" y="0" on="1"/>
        <pt x="108" y="720" on="1"/>
        <pt x="222" y="720" on="1"/>
        <pt x="222" y="0" on="1"/>
      </contour>
    </TTGlyph>
    <TTGlyph name="Itilde" xMin="-11" yMin="0" xMax="359" yMax="909">
      <contour>
        <pt x="29" y="804" on="1"/>
        <pt x="-11" y="830" on="1"/>
        <pt x="0" y="861" on="0"/>
        <pt x="63" y="909" on="0"/>
        <pt x="99" y="909" on="1"/>
        <pt x="107" y="909" on="0"/>
        <pt x="110" y="908" on="1"/>
        <pt x="113" y="909" on="0"/>
        <pt x="119" y="909" on="1"/>
        <pt x="155" y="909" on="0"/>
        <pt x="234" y="866" on="0"/>
        <pt x="249" y="864" on="1"/>
        <pt x="284" y="868" on="0"/>
        <pt x="299" y="892" on="1"/>
        <pt x="311" y="883" on="1"/>
        <pt x="315" y="886" on="0"/>
        <pt x="319" y="892" on="1"/>
        <pt x="359" y="866" on="1"/>
        <pt x="348" y="835" on="0"/>
        <pt x="285" y="787" on="0"/>
        <pt x="249" y="787" on="1"/>
        <pt x="229" y="787" on="1"/>
        <pt x="194" y="787" on="0"/>
        <pt x="114" y="828" on="0"/>
        <pt x="99" y="830" on="1"/>
        <pt x="64" y="826" on="0"/>
        <pt x="49" y="804" on="1"/>
        <pt x="36" y="812" on="1"/>
      </contour>
      <contour>
        <pt x="108" y="0" on="1"/>
        <pt x="108" y="720" on="1"/>
        <pt x="222" y="720" on="1"/>
        <pt x="222" y="0" on="1"/>
      </contour>
    </TTGlyph>
    <TTGlyph name="J" xMin="-87" yMin="-222" xMax="234" yMax="720">
      <contour>
        <pt x="-49" y="-105" on="1"/>
        <pt x="-15" y="-126" on="0"/>
        <pt x="75" y="-126" on="0"/>
        <pt x="120" y="-58" on="0"/>
        <pt x="120" y="-3" on="1"/>
        <pt x="120" y="720" on="1"/>
        <pt x="234" y="720" on="1"/>
        <pt x="234" y="-3" on="1"/>
        <pt x="234" y="-116" on="0"/>
        <pt x="136" y="-222" on="0"/>
        <pt x="34" y="-222" on="1"/>
        <pt x="1" y="-222" on="0"/>
        <pt x="-59" y="-204" on="0"/>
        <pt x="-73" y="-194" on="1"/>
        <pt x="-87" y="-185" on="1"/>
      </contour>
    </TTGlyph>
    <TTGlyph name="Jcircumflex" xMin="-87" yMin="-222" xMax="325" yMax="942">
      <contour>
        <pt x="179" y="855" on="1"/>
        <pt x="65" y="778" on="1"/>
        <pt x="33" y="818" on="1"/>
        <pt x="143" y="942" on="0"/>
        <pt x="215" y="942" on="0"/>
        <pt x="325" y="818" on="1"/>
        <pt x="294" y="778" on="1"/>
      </contour>
      <contour>
        <pt x="-49" y="-105" on="1"/>
        <pt x="-15" y="-126" on="0"/>
        <pt x="75" y="-126" on="0"/>
        <pt x="120" y="-58" on="0"/>
        <pt x="120" y="-3" on="1"/>
        <pt x="120" y="720" on="1"/>
        <pt x="234" y="720" on="1"/>
        <pt x="234" y="-3" on="1"/>
        <pt x="234" y="-116" on="0"/>
        <pt x="136" y="-222" on="0"/>
        <pt x="34" y="-222" on="1"/>
        <pt x="1" y="-222" on="0"/>
        <pt x="-59" y="-204" on="0"/>
        <pt x="-73" y="-194" on="1"/>
        <pt x="-87" y="-185" on="1"/>
      </contour>
    </TTGlyph>
    <TTGlyph name="K" xMin="108" yMin="0" xMax="621" yMax="727">
      <contour>
        <pt x="108" y="0" on="1"/>
        <pt x="108" y="720" on="1"/>
        <pt x="222" y="720" on="1"/>
        <pt x="222" y="410" on="1"/>
        <pt x="486" y="727" on="1"/>
        <pt x="605" y="713" on="1"/>
        <pt x="368" y="436" on="1"/>
        <pt x="621" y="0" on="1"/>
        <pt x="490" y="0" on="1"/>
        <pt x="293" y="349" on="1"/>
        <pt x="222" y="265" on="1"/>
        <pt x="222" y="0" on="1"/>
      </contour>
    </TTGlyph>
    <TTGlyph name="K.alt" xMin="108" yMin="0" xMax="621" yMax="720">
      <contour>
        <pt x="462" y="720" on="1"/>
        <pt x="579" y="720" on="1"/>
        <pt x="579" y="616" on="0"/>
        <pt x="472" y="436" on="0"/>
        <pt x="391" y="382" on="1"/>
        <pt x="621" y="0" on="1"/>
        <pt x="490" y="0" on="1"/>
        <pt x="295" y="338" on="1"/>
        <pt x="265" y="330" on="0"/>
        <pt x="239" y="330" on="1"/>
        <pt x="222" y="330" on="1"/>
        <pt x="222" y="0" on="1"/>
        <pt x="108" y="0" on="1"/>
        <pt x="108" y="720" on="1"/>
        <pt x="222" y="720" on="1"/>
        <pt x="222" y="420" on="1"/>
        <pt x="235" y="420" on="1"/>
        <pt x="320" y="420" on="0"/>
        <pt x="462" y="601" on="0"/>
      </contour>
    </TTGlyph>
    <TTGlyph name="L" xMin="108" yMin="0" xMax="495" yMax="720">
      <contour>
        <pt x="108" y="0" on="1"/>
        <pt x="108" y="720" on="1"/>
        <pt x="222" y="720" on="1"/>
        <pt x="222" y="96" on="1"/>
        <pt x="495" y="96" on="1"/>
        <pt x="481" y="0" on="1"/>
      </contour>
    </TTGlyph>
    <TTGlyph name="Ldotaccent" xMin="108" yMin="0" xMax="495" yMax="720">
      <contour>
        <pt x="108" y="0" on="1"/>
        <pt x="108" y="720" on="1"/>
        <pt x="222" y="720" on="1"/>
        <pt x="222" y="96" on="1"/>
        <pt x="495" y="96" on="1"/>
        <pt x="481" y="0" on="1"/>
      </contour>
      <contour>
        <pt x="343" y="376" on="0"/>
        <pt x="343" y="428" on="0"/>
        <pt x="377" y="465" on="0"/>
        <pt x="433" y="465" on="0"/>
        <pt x="467" y="428" on="0"/>
        <pt x="467" y="376" on="0"/>
        <pt x="433" y="339" on="0"/>
        <pt x="377" y="339" on="0"/>
      </contour>
    </TTGlyph>
    <TTGlyph name="Lslash" xMin="-18" yMin="0" xMax="495" yMax="720">
      <contour>
        <pt x="481" y="0" on="1"/>
        <pt x="108" y="0" on="1"/>
        <pt x="108" y="245" on="1"/>
        <pt x="11" y="194" on="1"/>
        <pt x="-18" y="250" on="1"/>
        <pt x="108" y="317" on="1"/>
        <pt x="108" y="720" on="1"/>
        <pt x="222" y="720" on="1"/>
        <pt x="222" y="377" on="1"/>
        <pt x="342" y="441" on="1"/>
        <pt x="362" y="380" on="1"/>
        <pt x="222" y="306" on="1"/>
        <pt x="222" y="96" on="1"/>
        <pt x="495" y="96" on="1"/>
      </contour>
    </TTGlyph>
    <TTGlyph name="M" xMin="98" yMin="0" xMax="868" yMax="726">
      <contour>
        <pt x="98" y="0" on="1"/>
        <pt x="131" y="713" on="1"/>
        <pt x="199" y="726" on="0"/>
        <pt x="263" y="726" on="1"/>
        <pt x="283" y="726" on="0"/>
        <pt x="292" y="704" on="1"/>
        <pt x="483" y="182" on="1"/>
        <pt x="674" y="704" on="1"/>
        <pt x="683" y="726" on="0"/>
        <pt x="703" y="726" on="1"/>
        <pt x="775" y="726" on="0"/>
        <pt x="835" y="713" on="1"/>
        <pt x="868" y="0" on="1"/>
        <pt x="759" y="0" on="1"/>
        <pt x="742" y="613" on="1"/>
        <pt x="559" y="100" on="1"/>
        <pt x="475" y="86" on="0"/>
        <pt x="411" y="86" on="0"/>
        <pt x="403" y="108" on="1"/>
        <pt x="224" y="613" on="1"/>
        <pt x="207" y="0" on="1"/>
      </contour>
    </TTGlyph>
    <TTGlyph name="N" xMin="108" yMin="-9" xMax="651" yMax="729">
      <contour>
        <pt x="651" y="0" on="1"/>
        <pt x="573" y="-9" on="1"/>
        <pt x="552" y="-9" on="0"/>
        <pt x="536" y="16" on="1"/>
        <pt x="207" y="545" on="1"/>
        <pt x="222" y="0" on="1"/>
        <pt x="108" y="0" on="1"/>
        <pt x="108" y="720" on="1"/>
        <pt x="186" y="729" on="1"/>
        <pt x="208" y="729" on="0"/>
        <pt x="224" y="704" on="1"/>
        <pt x="555" y="176" on="1"/>
        <pt x="537" y="720" on="1"/>
        <pt x="651" y="720" on="1"/>
      </contour>
    </TTGlyph>
    <TTGlyph name="Nacute" xMin="108" yMin="-9" xMax="651" yMax="942">
      <contour>
        <pt x="529" y="856" on="1"/>
        <pt x="316" y="778" on="1"/>
        <pt x="292" y="820" on="1"/>
        <pt x="323" y="851" on="0"/>
        <pt x="454" y="942" on="0"/>
        <pt x="490" y="942" on="0"/>
        <pt x="529" y="876" on="0"/>
      </contour>
      <contour>
        <pt x="651" y="0" on="1"/>
        <pt x="573" y="-9" on="1"/>
        <pt x="552" y="-9" on="0"/>
        <pt x="536" y="16" on="1"/>
        <pt x="207" y="545" on="1"/>
        <pt x="222" y="0" on="1"/>
        <pt x="108" y="0" on="1"/>
        <pt x="108" y="720" on="1"/>
        <pt x="186" y="729" on="1"/>
        <pt x="208" y="729" on="0"/>
        <pt x="224" y="704" on="1"/>
        <pt x="555" y="176" on="1"/>
        <pt x="537" y="720" on="1"/>
        <pt x="651" y="720" on="1"/>
      </contour>
    </TTGlyph>
    <TTGlyph name="Ntilde" xMin="108" yMin="-9" xMax="651" yMax="909">
      <contour>
        <pt x="241" y="804" on="1"/>
        <pt x="201" y="830" on="1"/>
        <pt x="212" y="861" on="0"/>
        <pt x="275" y="909" on="0"/>
        <pt x="348" y="909" on="0"/>
        <pt x="430" y="864" on="0"/>
        <pt x="470" y="864" on="0"/>
        <pt x="504" y="882" on="0"/>
        <pt x="511" y="892" on="1"/>
        <pt x="551" y="866" on="1"/>
        <pt x="540" y="835" on="0"/>
        <pt x="477" y="787" on="0"/>
        <pt x="404" y="787" on="0"/>
        <pt x="322" y="831" on="0"/>
        <pt x="282" y="831" on="0"/>
        <pt x="248" y="814" on="0"/>
      </contour>
      <contour>
        <pt x="651" y="0" on="1"/>
        <pt x="573" y="-9" on="1"/>
        <pt x="552" y="-9" on="0"/>
        <pt x="536" y="16" on="1"/>
        <pt x="207" y="545" on="1"/>
        <pt x="222" y="0" on="1"/>
        <pt x="108" y="0" on="1"/>
        <pt x="108" y="720" on="1"/>
        <pt x="186" y="729" on="1"/>
        <pt x="208" y="729" on="0"/>
        <pt x="224" y="704" on="1"/>
        <pt x="555" y="176" on="1"/>
        <pt x="537" y="720" on="1"/>
        <pt x="651" y="720" on="1"/>
      </contour>
    </TTGlyph>
    <TTGlyph name="O" xMin="60" yMin="-12" xMax="694" yMax="732">
      <contour>
        <pt x="354" y="-12" on="1"/>
        <pt x="227" y="-12" on="0"/>
        <pt x="60" y="173" on="0"/>
        <pt x="60" y="528" on="0"/>
        <pt x="230" y="732" on="0"/>
        <pt x="400" y="732" on="1"/>
        <pt x="528" y="732" on="0"/>
        <pt x="694" y="549" on="0"/>
        <pt x="694" y="194" on="0"/>
        <pt x="524" y="-12" on="0"/>
      </contour>
      <contour>
        <pt x="373" y="84" on="1"/>
        <pt x="486" y="84" on="0"/>
        <pt x="577" y="231" on="0"/>
        <pt x="577" y="515" on="0"/>
        <pt x="474" y="636" on="0"/>
        <pt x="382" y="636" on="1"/>
        <pt x="267" y="636" on="0"/>
        <pt x="222" y="557" on="1"/>
        <pt x="181" y="484" on="0"/>
        <pt x="181" y="207" on="0"/>
        <pt x="283" y="84" on="0"/>
      </contour>
    </TTGlyph>
    <TTGlyph name="OE" xMin="60" yMin="-12" xMax="932" yMax="732">
      <contour>
        <pt x="918" y="0" on="1"/>
        <pt x="497" y="0" on="1"/>
        <pt x="436" y="-12" on="0"/>
        <pt x="354" y="-12" on="1"/>
        <pt x="227" y="-12" on="0"/>
        <pt x="60" y="173" on="0"/>
        <pt x="60" y="528" on="0"/>
        <pt x="230" y="732" on="0"/>
        <pt x="400" y="732" on="1"/>
        <pt x="444" y="732" on="0"/>
        <pt x="495" y="720" on="1"/>
        <pt x="912" y="720" on="1"/>
        <pt x="912" y="627" on="1"/>
        <pt x="609" y="627" on="1"/>
        <pt x="609" y="409" on="1"/>
        <pt x="872" y="409" on="1"/>
        <pt x="872" y="322" on="1"/>
        <pt x="609" y="322" on="1"/>
        <pt x="609" y="93" on="1"/>
        <pt x="932" y="93" on="1"/>
      </contour>
      <contour>
        <pt x="181" y="207" on="0"/>
        <pt x="283" y="84" on="0"/>
        <pt x="448" y="84" on="0"/>
        <pt x="495" y="102" on="1"/>
        <pt x="495" y="611" on="1"/>
        <pt x="449" y="636" on="0"/>
        <pt x="324" y="636" on="0"/>
        <pt x="244" y="596" on="0"/>
        <pt x="222" y="557" on="1"/>
        <pt x="181" y="484" on="0"/>
      </contour>
    </TTGlyph>
    <TTGlyph name="Oacute" xMin="60" yMin="-12" xMax="694" yMax="942">
      <contour>
        <pt x="340" y="778" on="1"/>
        <pt x="316" y="820" on="1"/>
        <pt x="347" y="851" on="0"/>
        <pt x="478" y="942" on="0"/>
        <pt x="514" y="942" on="0"/>
        <pt x="553" y="876" on="0"/>
        <pt x="553" y="856" on="1"/>
      </contour>
      <contour>
        <pt x="354" y="-12" on="1"/>
        <pt x="227" y="-12" on="0"/>
        <pt x="60" y="173" on="0"/>
        <pt x="60" y="528" on="0"/>
        <pt x="230" y="732" on="0"/>
        <pt x="400" y="732" on="1"/>
        <pt x="528" y="732" on="0"/>
        <pt x="694" y="549" on="0"/>
        <pt x="694" y="194" on="0"/>
        <pt x="524" y="-12" on="0"/>
      </contour>
      <contour>
        <pt x="373" y="84" on="1"/>
        <pt x="486" y="84" on="0"/>
        <pt x="577" y="231" on="0"/>
        <pt x="577" y="515" on="0"/>
        <pt x="474" y="636" on="0"/>
        <pt x="382" y="636" on="1"/>
        <pt x="267" y="636" on="0"/>
        <pt x="222" y="557" on="1"/>
        <pt x="181" y="484" on="0"/>
        <pt x="181" y="207" on="0"/>
        <pt x="283" y="84" on="0"/>
      </contour>
    </TTGlyph>
    <TTGlyph name="Ocircumflex" xMin="60" yMin="-12" xMax="694" yMax="942">
      <contour>
        <pt x="384" y="855" on="1"/>
        <pt x="270" y="778" on="1"/>
        <pt x="238" y="818" on="1"/>
        <pt x="348" y="942" on="0"/>
        <pt x="420" y="942" on="0"/>
        <pt x="530" y="818" on="1"/>
        <pt x="499" y="778" on="1"/>
      </contour>
      <contour>
        <pt x="354" y="-12" on="1"/>
        <pt x="227" y="-12" on="0"/>
        <pt x="60" y="173" on="0"/>
        <pt x="60" y="528" on="0"/>
        <pt x="230" y="732" on="0"/>
        <pt x="400" y="732" on="1"/>
        <pt x="528" y="732" on="0"/>
        <pt x="694" y="549" on="0"/>
        <pt x="694" y="194" on="0"/>
        <pt x="524" y="-12" on="0"/>
      </contour>
      <contour>
        <pt x="373" y="84" on="1"/>
        <pt x="486" y="84" on="0"/>
        <pt x="577" y="231" on="0"/>
        <pt x="577" y="515" on="0"/>
        <pt x="474" y="636" on="0"/>
        <pt x="382" y="636" on="1"/>
        <pt x="267" y="636" on="0"/>
        <pt x="222" y="557" on="1"/>
        <pt x="181" y="484" on="0"/>
        <pt x="181" y="207" on="0"/>
        <pt x="283" y="84" on="0"/>
      </contour>
    </TTGlyph>
    <TTGlyph name="Odieresis" xMin="60" yMin="-12" xMax="694" yMax="916">
      <contour>
        <pt x="480" y="916" on="1"/>
        <pt x="504" y="916" on="0"/>
        <pt x="536" y="885" on="0"/>
        <pt x="536" y="854" on="1"/>
        <pt x="536" y="789" on="0"/>
        <pt x="469" y="789" on="1"/>
        <pt x="446" y="789" on="0"/>
        <pt x="416" y="820" on="0"/>
        <pt x="416" y="850" on="1"/>
        <pt x="416" y="916" on="0"/>
      </contour>
      <contour>
        <pt x="292" y="916" on="1"/>
        <pt x="316" y="916" on="0"/>
        <pt x="348" y="885" on="0"/>
        <pt x="348" y="854" on="1"/>
        <pt x="348" y="789" on="0"/>
        <pt x="281" y="789" on="1"/>
        <pt x="258" y="789" on="0"/>
        <pt x="228" y="820" on="0"/>
        <pt x="228" y="850" on="1"/>
        <pt x="228" y="916" on="0"/>
      </contour>
      <contour>
        <pt x="354" y="-12" on="1"/>
        <pt x="227" y="-12" on="0"/>
        <pt x="60" y="173" on="0"/>
        <pt x="60" y="528" on="0"/>
        <pt x="230" y="732" on="0"/>
        <pt x="400" y="732" on="1"/>
        <pt x="528" y="732" on="0"/>
        <pt x="694" y="549" on="0"/>
        <pt x="694" y="194" on="0"/>
        <pt x="524" y="-12" on="0"/>
      </contour>
      <contour>
        <pt x="373" y="84" on="1"/>
        <pt x="486" y="84" on="0"/>
        <pt x="577" y="231" on="0"/>
        <pt x="577" y="515" on="0"/>
        <pt x="474" y="636" on="0"/>
        <pt x="382" y="636" on="1"/>
        <pt x="267" y="636" on="0"/>
        <pt x="222" y="557" on="1"/>
        <pt x="181" y="484" on="0"/>
        <pt x="181" y="207" on="0"/>
        <pt x="283" y="84" on="0"/>
      </contour>
    </TTGlyph>
    <TTGlyph name="Ograve" xMin="60" yMin="-12" xMax="694" yMax="942">
      <contour>
        <pt x="433" y="778" on="1"/>
        <pt x="220" y="856" on="1"/>
        <pt x="220" y="876" on="0"/>
        <pt x="259" y="942" on="0"/>
        <pt x="295" y="942" on="0"/>
        <pt x="426" y="851" on="0"/>
        <pt x="457" y="820" on="1"/>
      </contour>
      <contour>
        <pt x="354" y="-12" on="1"/>
        <pt x="227" y="-12" on="0"/>
        <pt x="60" y="173" on="0"/>
        <pt x="60" y="528" on="0"/>
        <pt x="230" y="732" on="0"/>
        <pt x="400" y="732" on="1"/>
        <pt x="528" y="732" on="0"/>
        <pt x="694" y="549" on="0"/>
        <pt x="694" y="194" on="0"/>
        <pt x="524" y="-12" on="0"/>
      </contour>
      <contour>
        <pt x="373" y="84" on="1"/>
        <pt x="486" y="84" on="0"/>
        <pt x="577" y="231" on="0"/>
        <pt x="577" y="515" on="0"/>
        <pt x="474" y="636" on="0"/>
        <pt x="382" y="636" on="1"/>
        <pt x="267" y="636" on="0"/>
        <pt x="222" y="557" on="1"/>
        <pt x="181" y="484" on="0"/>
        <pt x="181" y="207" on="0"/>
        <pt x="283" y="84" on="0"/>
      </contour>
    </TTGlyph>
    <TTGlyph name="Oslash" xMin="60" yMin="-12" xMax="694" yMax="732">
      <contour>
        <pt x="400" y="732" on="1"/>
        <pt x="496" y="732" on="0"/>
        <pt x="567" y="680" on="1"/>
        <pt x="600" y="726" on="1"/>
        <pt x="678" y="714" on="1"/>
        <pt x="618" y="631" on="1"/>
        <pt x="694" y="536" on="0"/>
        <pt x="694" y="194" on="0"/>
        <pt x="524" y="-12" on="0"/>
        <pt x="354" y="-12" on="1"/>
        <pt x="261" y="-12" on="0"/>
        <pt x="191" y="37" on="1"/>
        <pt x="164" y="0" on="1"/>
        <pt x="80" y="0" on="1"/>
        <pt x="140" y="84" on="1"/>
        <pt x="60" y="182" on="0"/>
        <pt x="60" y="528" on="0"/>
        <pt x="230" y="732" on="0"/>
      </contour>
      <contour>
        <pt x="267" y="642" on="0"/>
        <pt x="175" y="493" on="0"/>
        <pt x="175" y="243" on="0"/>
        <pt x="206" y="176" on="1"/>
        <pt x="510" y="600" on="1"/>
        <pt x="463" y="642" on="0"/>
        <pt x="382" y="642" on="1"/>
      </contour>
      <contour>
        <pt x="249" y="118" on="1"/>
        <pt x="293" y="78" on="0"/>
        <pt x="433" y="78" on="0"/>
        <pt x="518" y="120" on="0"/>
        <pt x="540" y="160" on="1"/>
        <pt x="583" y="236" on="0"/>
        <pt x="583" y="475" on="0"/>
        <pt x="553" y="540" on="1"/>
      </contour>
    </TTGlyph>
    <TTGlyph name="Otilde" xMin="60" yMin="-12" xMax="694" yMax="909">
      <contour>
        <pt x="239" y="804" on="1"/>
        <pt x="199" y="830" on="1"/>
        <pt x="210" y="861" on="0"/>
        <pt x="273" y="909" on="0"/>
        <pt x="346" y="909" on="0"/>
        <pt x="428" y="864" on="0"/>
        <pt x="468" y="864" on="0"/>
        <pt x="502" y="882" on="0"/>
        <pt x="509" y="892" on="1"/>
        <pt x="549" y="866" on="1"/>
        <pt x="538" y="835" on="0"/>
        <pt x="475" y="787" on="0"/>
        <pt x="402" y="787" on="0"/>
        <pt x="320" y="831" on="0"/>
        <pt x="280" y="831" on="0"/>
        <pt x="246" y="814" on="0"/>
      </contour>
      <contour>
        <pt x="354" y="-12" on="1"/>
        <pt x="227" y="-12" on="0"/>
        <pt x="60" y="173" on="0"/>
        <pt x="60" y="528" on="0"/>
        <pt x="230" y="732" on="0"/>
        <pt x="400" y="732" on="1"/>
        <pt x="528" y="732" on="0"/>
        <pt x="694" y="549" on="0"/>
        <pt x="694" y="194" on="0"/>
        <pt x="524" y="-12" on="0"/>
      </contour>
      <contour>
        <pt x="373" y="84" on="1"/>
        <pt x="486" y="84" on="0"/>
        <pt x="577" y="231" on="0"/>
        <pt x="577" y="515" on="0"/>
        <pt x="474" y="636" on="0"/>
        <pt x="382" y="636" on="1"/>
        <pt x="267" y="636" on="0"/>
        <pt x="222" y="557" on="1"/>
        <pt x="181" y="484" on="0"/>
        <pt x="181" y="207" on="0"/>
        <pt x="283" y="84" on="0"/>
      </contour>
    </TTGlyph>
    <TTGlyph name="P" xMin="108" yMin="0" xMax="571" yMax="726">
      <contour>
        <pt x="108" y="0" on="1"/>
        <pt x="108" y="714" on="1"/>
        <pt x="186" y="726" on="0"/>
        <pt x="347" y="726" on="1"/>
        <pt x="455" y="726" on="0"/>
        <pt x="571" y="603" on="0"/>
        <pt x="571" y="393" on="0"/>
        <pt x="432" y="255" on="0"/>
        <pt x="312" y="255" on="1"/>
        <pt x="288" y="255" on="0"/>
        <pt x="222" y="257" on="1"/>
        <pt x="222" y="0" on="1"/>
      </contour>
      <contour>
        <pt x="222" y="345" on="1"/>
        <pt x="246" y="344" on="0"/>
        <pt x="300" y="344" on="1"/>
        <pt x="382" y="344" on="0"/>
        <pt x="451" y="418" on="0"/>
        <pt x="451" y="560" on="0"/>
        <pt x="387" y="636" on="0"/>
        <pt x="313" y="636" on="1"/>
        <pt x="268" y="636" on="0"/>
        <pt x="222" y="633" on="1"/>
      </contour>
    </TTGlyph>
    <TTGlyph name="Q" xMin="60" yMin="-222" xMax="728" yMax="732">
      <contour>
        <pt x="354" y="28" on="1"/>
        <pt x="227" y="28" on="0"/>
        <pt x="60" y="203" on="0"/>
        <pt x="60" y="539" on="0"/>
        <pt x="230" y="732" on="0"/>
        <pt x="400" y="732" on="1"/>
        <pt x="528" y="732" on="0"/>
        <pt x="694" y="559" on="0"/>
        <pt x="694" y="223" on="0"/>
        <pt x="524" y="28" on="0"/>
      </contour>
      <contour>
        <pt x="373" y="124" on="1"/>
        <pt x="486" y="124" on="0"/>
        <pt x="577" y="260" on="0"/>
        <pt x="577" y="524" on="0"/>
        <pt x="474" y="636" on="0"/>
        <pt x="382" y="636" on="1"/>
        <pt x="270" y="636" on="0"/>
        <pt x="181" y="501" on="0"/>
        <pt x="181" y="238" on="0"/>
        <pt x="283" y="124" on="0"/>
      </contour>
      <contour>
        <pt x="229" y="-4" on="1"/>
        <pt x="385" y="-4" on="0"/>
        <pt x="486" y="-48" on="1"/>
        <pt x="529" y="-66" on="0"/>
        <pt x="566" y="-84" on="1"/>
        <pt x="654" y="-127" on="0"/>
        <pt x="728" y="-127" on="1"/>
        <pt x="707" y="-222" on="1"/>
        <pt x="601" y="-222" on="0"/>
        <pt x="520" y="-179" on="1"/>
        <pt x="487" y="-161" on="0"/>
        <pt x="451" y="-143" on="1"/>
        <pt x="365" y="-100" on="0"/>
        <pt x="229" y="-100" on="1"/>
      </contour>
    </TTGlyph>
    <TTGlyph name="Q.alt" xMin="70" yMin="-222" xMax="754" yMax="732">
      <contour>
        <pt x="218" y="11" on="1"/>
        <pt x="240" y="95" on="1"/>
        <pt x="286" y="84" on="0"/>
        <pt x="354" y="84" on="1"/>
        <pt x="476" y="84" on="0"/>
        <pt x="577" y="216" on="0"/>
        <pt x="577" y="496" on="0"/>
        <pt x="489" y="636" on="0"/>
        <pt x="287" y="636" on="0"/>
        <pt x="187" y="523" on="0"/>
        <pt x="187" y="364" on="0"/>
        <pt x="250" y="300" on="0"/>
        <pt x="314" y="300" on="1"/>
        <pt x="301" y="201" on="1"/>
        <pt x="70" y="201" on="0"/>
        <pt x="70" y="428" on="1"/>
        <pt x="70" y="545" on="0"/>
        <pt x="152" y="636" on="1"/>
        <pt x="191" y="680" on="0"/>
        <pt x="314" y="732" on="0"/>
        <pt x="388" y="732" on="1"/>
        <pt x="525" y="732" on="0"/>
        <pt x="694" y="552" on="0"/>
        <pt x="694" y="370" on="1"/>
        <pt x="694" y="225" on="0"/>
        <pt x="578" y="32" on="0"/>
        <pt x="461" y="1" on="1"/>
        <pt x="478" y="-9" on="0"/>
        <pt x="554" y="-59" on="0"/>
        <pt x="594" y="-83" on="0"/>
        <pt x="626" y="-98" on="1"/>
        <pt x="685" y="-127" on="0"/>
        <pt x="754" y="-127" on="1"/>
        <pt x="733" y="-222" on="1"/>
        <pt x="612" y="-220" on="0"/>
        <pt x="508" y="-150" on="1"/>
        <pt x="463" y="-119" on="0"/>
        <pt x="420" y="-88" on="1"/>
        <pt x="313" y="-8" on="0"/>
      </contour>
    </TTGlyph>
    <TTGlyph name="R" xMin="108" yMin="-6" xMax="617" yMax="726">
      <contour>
        <pt x="108" y="0" on="1"/>
        <pt x="108" y="714" on="1"/>
        <pt x="186" y="726" on="0"/>
        <pt x="347" y="726" on="1"/>
        <pt x="455" y="726" on="0"/>
        <pt x="571" y="603" on="0"/>
        <pt x="571" y="507" on="1"/>
        <pt x="571" y="441" on="0"/>
        <pt x="507" y="340" on="0"/>
        <pt x="447" y="314" on="1"/>
        <pt x="514" y="158" on="1"/>
        <pt x="532" y="117" on="0"/>
        <pt x="586" y="72" on="0"/>
        <pt x="617" y="72" on="1"/>
        <pt x="601" y="-6" on="1"/>
        <pt x="577" y="-6" on="1"/>
        <pt x="531" y="-6" on="0"/>
        <pt x="442" y="43" on="0"/>
        <pt x="420" y="92" on="1"/>
        <pt x="330" y="291" on="1"/>
        <pt x="322" y="290" on="0"/>
        <pt x="304" y="290" on="1"/>
        <pt x="222" y="290" on="1"/>
        <pt x="222" y="0" on="1"/>
      </contour>
      <contour>
        <pt x="222" y="378" on="1"/>
        <pt x="390" y="378" on="1"/>
        <pt x="404" y="383" on="0"/>
        <pt x="421" y="402" on="1"/>
        <pt x="451" y="436" on="0"/>
        <pt x="451" y="500" on="1"/>
        <pt x="451" y="636" on="0"/>
        <pt x="323" y="636" on="1"/>
        <pt x="279" y="636" on="0"/>
        <pt x="222" y="631" on="1"/>
      </contour>
    </TTGlyph>
    <TTGlyph name="Racute" xMin="108" yMin="-6" xMax="617" yMax="942">
      <contour>
        <pt x="427" y="856" on="1"/>
        <pt x="214" y="778" on="1"/>
        <pt x="190" y="820" on="1"/>
        <pt x="221" y="851" on="0"/>
        <pt x="352" y="942" on="0"/>
        <pt x="388" y="942" on="0"/>
        <pt x="427" y="876" on="0"/>
      </contour>
      <contour>
        <pt x="108" y="0" on="1"/>
        <pt x="108" y="714" on="1"/>
        <pt x="186" y="726" on="0"/>
        <pt x="347" y="726" on="1"/>
        <pt x="455" y="726" on="0"/>
        <pt x="571" y="603" on="0"/>
        <pt x="571" y="507" on="1"/>
        <pt x="571" y="441" on="0"/>
        <pt x="507" y="340" on="0"/>
        <pt x="447" y="314" on="1"/>
        <pt x="514" y="158" on="1"/>
        <pt x="532" y="117" on="0"/>
        <pt x="586" y="72" on="0"/>
        <pt x="617" y="72" on="1"/>
        <pt x="601" y="-6" on="1"/>
        <pt x="577" y="-6" on="1"/>
        <pt x="531" y="-6" on="0"/>
        <pt x="442" y="43" on="0"/>
        <pt x="420" y="92" on="1"/>
        <pt x="330" y="291" on="1"/>
        <pt x="322" y="290" on="0"/>
        <pt x="304" y="290" on="1"/>
        <pt x="222" y="290" on="1"/>
        <pt x="222" y="0" on="1"/>
      </contour>
      <contour>
        <pt x="222" y="378" on="1"/>
        <pt x="390" y="378" on="1"/>
        <pt x="404" y="383" on="0"/>
        <pt x="421" y="402" on="1"/>
        <pt x="451" y="436" on="0"/>
        <pt x="451" y="500" on="1"/>
        <pt x="451" y="636" on="0"/>
        <pt x="323" y="636" on="1"/>
        <pt x="279" y="636" on="0"/>
        <pt x="222" y="631" on="1"/>
      </contour>
    </TTGlyph>
    <TTGlyph name="Rcaron" xMin="108" yMin="-6" xMax="617" yMax="943">
      <contour>
        <pt x="309" y="866" on="1"/>
        <pt x="423" y="943" on="1"/>
        <pt x="455" y="903" on="1"/>
        <pt x="345" y="779" on="0"/>
        <pt x="273" y="779" on="0"/>
        <pt x="163" y="903" on="1"/>
        <pt x="194" y="943" on="1"/>
      </contour>
      <contour>
        <pt x="108" y="0" on="1"/>
        <pt x="108" y="714" on="1"/>
        <pt x="186" y="726" on="0"/>
        <pt x="347" y="726" on="1"/>
        <pt x="455" y="726" on="0"/>
        <pt x="571" y="603" on="0"/>
        <pt x="571" y="507" on="1"/>
        <pt x="571" y="441" on="0"/>
        <pt x="507" y="340" on="0"/>
        <pt x="447" y="314" on="1"/>
        <pt x="514" y="158" on="1"/>
        <pt x="532" y="117" on="0"/>
        <pt x="586" y="72" on="0"/>
        <pt x="617" y="72" on="1"/>
        <pt x="601" y="-6" on="1"/>
        <pt x="577" y="-6" on="1"/>
        <pt x="531" y="-6" on="0"/>
        <pt x="442" y="43" on="0"/>
        <pt x="420" y="92" on="1"/>
        <pt x="330" y="291" on="1"/>
        <pt x="322" y="290" on="0"/>
        <pt x="304" y="290" on="1"/>
        <pt x="222" y="290" on="1"/>
        <pt x="222" y="0" on="1"/>
      </contour>
      <contour>
        <pt x="222" y="378" on="1"/>
        <pt x="390" y="378" on="1"/>
        <pt x="404" y="383" on="0"/>
        <pt x="421" y="402" on="1"/>
        <pt x="451" y="436" on="0"/>
        <pt x="451" y="500" on="1"/>
        <pt x="451" y="636" on="0"/>
        <pt x="323" y="636" on="1"/>
        <pt x="279" y="636" on="0"/>
        <pt x="222" y="631" on="1"/>
      </contour>
    </TTGlyph>
    <TTGlyph name="Rcommaaccent" xMin="108" yMin="-230" xMax="617" yMax="726">
      <contour>
        <pt x="108" y="0" on="1"/>
        <pt x="108" y="714" on="1"/>
        <pt x="186" y="726" on="0"/>
        <pt x="347" y="726" on="1"/>
        <pt x="455" y="726" on="0"/>
        <pt x="571" y="603" on="0"/>
        <pt x="571" y="507" on="1"/>
        <pt x="571" y="441" on="0"/>
        <pt x="507" y="340" on="0"/>
        <pt x="447" y="314" on="1"/>
        <pt x="514" y="158" on="1"/>
        <pt x="532" y="117" on="0"/>
        <pt x="586" y="72" on="0"/>
        <pt x="617" y="72" on="1"/>
        <pt x="601" y="-6" on="1"/>
        <pt x="577" y="-6" on="1"/>
        <pt x="531" y="-6" on="0"/>
        <pt x="442" y="43" on="0"/>
        <pt x="420" y="92" on="1"/>
        <pt x="330" y="291" on="1"/>
        <pt x="322" y="290" on="0"/>
        <pt x="304" y="290" on="1"/>
        <pt x="222" y="290" on="1"/>
        <pt x="222" y="0" on="1"/>
      </contour>
      <contour>
        <pt x="222" y="378" on="1"/>
        <pt x="390" y="378" on="1"/>
        <pt x="404" y="383" on="0"/>
        <pt x="421" y="402" on="1"/>
        <pt x="451" y="436" on="0"/>
        <pt x="451" y="500" on="1"/>
        <pt x="451" y="636" on="0"/>
        <pt x="323" y="636" on="1"/>
        <pt x="279" y="636" on="0"/>
        <pt x="222" y="631" on="1"/>
      </contour>
      <contour>
        <pt x="306" y="-118" on="0"/>
        <pt x="287" y="-89" on="0"/>
        <pt x="287" y="-61" on="0"/>
        <pt x="315" y="-33" on="0"/>
        <pt x="364" y="-33" on="0"/>
        <pt x="390" y="-67" on="0"/>
        <pt x="390" y="-133" on="0"/>
        <pt x="336" y="-208" on="0"/>
        <pt x="290" y="-230" on="1"/>
        <pt x="266" y="-201" on="1"/>
        <pt x="306" y="-157" on="0"/>
        <pt x="306" y="-126" on="1"/>
      </contour>
    </TTGlyph>
    <TTGlyph name="S" xMin="50" yMin="-12" xMax="512" yMax="729">
      <contour>
        <pt x="50" y="46" on="1"/>
        <pt x="85" y="139" on="1"/>
        <pt x="188" y="83" on="0"/>
        <pt x="326" y="83" on="0"/>
        <pt x="398" y="137" on="0"/>
        <pt x="398" y="184" on="1"/>
        <pt x="398" y="236" on="0"/>
        <pt x="352" y="267" on="1"/>
        <pt x="326" y="284" on="0"/>
        <pt x="291" y="300" on="0"/>
        <pt x="218" y="331" on="0"/>
        <pt x="178" y="350" on="0"/>
        <pt x="123" y="387" on="0"/>
        <pt x="108" y="406" on="1"/>
        <pt x="69" y="453" on="0"/>
        <pt x="69" y="520" on="1"/>
        <pt x="69" y="613" on="0"/>
        <pt x="198" y="729" on="0"/>
        <pt x="296" y="729" on="1"/>
        <pt x="356" y="729" on="0"/>
        <pt x="468" y="689" on="0"/>
        <pt x="498" y="669" on="1"/>
        <pt x="458" y="582" on="1"/>
        <pt x="360" y="633" on="0"/>
        <pt x="250" y="633" on="0"/>
        <pt x="184" y="580" on="0"/>
        <pt x="184" y="537" on="1"/>
        <pt x="184" y="489" on="0"/>
        <pt x="227" y="460" on="1"/>
        <pt x="263" y="436" on="0"/>
        <pt x="357" y="396" on="0"/>
        <pt x="396" y="378" on="0"/>
        <pt x="456" y="338" on="0"/>
        <pt x="472" y="318" on="1"/>
        <pt x="512" y="266" on="0"/>
        <pt x="512" y="196" on="1"/>
        <pt x="512" y="95" on="0"/>
        <pt x="369" y="-12" on="0"/>
        <pt x="137" y="-12" on="0"/>
      </contour>
    </TTGlyph>
    <TTGlyph name="T" xMin="7" yMin="0" xMax="555" yMax="720">
      <contour>
        <pt x="220" y="0" on="1"/>
        <pt x="220" y="630" on="1"/>
        <pt x="7" y="630" on="1"/>
        <pt x="7" y="720" on="1"/>
        <pt x="555" y="720" on="1"/>
        <pt x="541" y="630" on="1"/>
        <pt x="334" y="630" on="1"/>
        <pt x="334" y="0" on="1"/>
      </contour>
    </TTGlyph>
    <TTGlyph name="Thorn" xMin="108" yMin="0" xMax="571" yMax="720">
      <contour>
        <pt x="222" y="0" on="1"/>
        <pt x="108" y="0" on="1"/>
        <pt x="108" y="720" on="1"/>
        <pt x="222" y="720" on="1"/>
        <pt x="222" y="585" on="1"/>
        <pt x="296" y="589" on="0"/>
        <pt x="347" y="589" on="1"/>
        <pt x="455" y="589" on="0"/>
        <pt x="571" y="470" on="0"/>
        <pt x="571" y="266" on="0"/>
        <pt x="432" y="132" on="0"/>
        <pt x="312" y="132" on="1"/>
        <pt x="288" y="132" on="0"/>
        <pt x="222" y="134" on="1"/>
      </contour>
      <contour>
        <pt x="313" y="491" on="1"/>
        <pt x="267" y="491" on="0"/>
        <pt x="222" y="488" on="1"/>
        <pt x="222" y="229" on="1"/>
        <pt x="245" y="228" on="0"/>
        <pt x="300" y="228" on="1"/>
        <pt x="382" y="228" on="0"/>
        <pt x="451" y="295" on="0"/>
        <pt x="451" y="423" on="0"/>
        <pt x="387" y="491" on="0"/>
      </contour>
    </TTGlyph>
    <TTGlyph name="U" xMin="90" yMin="-12" xMax="615" yMax="720">
      <contour>
        <pt x="90" y="217" on="1"/>
        <pt x="90" y="720" on="1"/>
        <pt x="204" y="720" on="1"/>
        <pt x="204" y="235" on="1"/>
        <pt x="204" y="163" on="0"/>
        <pt x="275" y="78" on="0"/>
        <pt x="349" y="78" on="1"/>
        <pt x="501" y="78" on="0"/>
        <pt x="501" y="234" on="1"/>
        <pt x="501" y="720" on="1"/>
        <pt x="615" y="720" on="1"/>
        <pt x="615" y="252" on="1"/>
        <pt x="615" y="131" on="0"/>
        <pt x="477" y="-12" on="0"/>
        <pt x="217" y="-12" on="0"/>
        <pt x="90" y="111" on="0"/>
      </contour>
    </TTGlyph>
    <TTGlyph name="Uacute" xMin="90" yMin="-12" xMax="615" yMax="942">
      <contour>
        <pt x="322" y="778" on="1"/>
        <pt x="298" y="820" on="1"/>
        <pt x="329" y="851" on="0"/>
        <pt x="460" y="942" on="0"/>
        <pt x="496" y="942" on="0"/>
        <pt x="535" y="876" on="0"/>
        <pt x="535" y="856" on="1"/>
      </contour>
      <contour>
        <pt x="90" y="217" on="1"/>
        <pt x="90" y="720" on="1"/>
        <pt x="204" y="720" on="1"/>
        <pt x="204" y="235" on="1"/>
        <pt x="204" y="163" on="0"/>
        <pt x="275" y="78" on="0"/>
        <pt x="349" y="78" on="1"/>
        <pt x="501" y="78" on="0"/>
        <pt x="501" y="234" on="1"/>
        <pt x="501" y="720" on="1"/>
        <pt x="615" y="720" on="1"/>
        <pt x="615" y="252" on="1"/>
        <pt x="615" y="131" on="0"/>
        <pt x="477" y="-12" on="0"/>
        <pt x="217" y="-12" on="0"/>
        <pt x="90" y="111" on="0"/>
      </contour>
    </TTGlyph>
    <TTGlyph name="Ucircumflex" xMin="90" yMin="-12" xMax="615" yMax="942">
      <contour>
        <pt x="354" y="855" on="1"/>
        <pt x="240" y="778" on="1"/>
        <pt x="208" y="818" on="1"/>
        <pt x="318" y="942" on="0"/>
        <pt x="390" y="942" on="0"/>
        <pt x="500" y="818" on="1"/>
        <pt x="469" y="778" on="1"/>
      </contour>
      <contour>
        <pt x="90" y="217" on="1"/>
        <pt x="90" y="720" on="1"/>
        <pt x="204" y="720" on="1"/>
        <pt x="204" y="235" on="1"/>
        <pt x="204" y="163" on="0"/>
        <pt x="275" y="78" on="0"/>
        <pt x="349" y="78" on="1"/>
        <pt x="501" y="78" on="0"/>
        <pt x="501" y="234" on="1"/>
        <pt x="501" y="720" on="1"/>
        <pt x="615" y="720" on="1"/>
        <pt x="615" y="252" on="1"/>
        <pt x="615" y="131" on="0"/>
        <pt x="477" y="-12" on="0"/>
        <pt x="217" y="-12" on="0"/>
        <pt x="90" y="111" on="0"/>
      </contour>
    </TTGlyph>
    <TTGlyph name="Udieresis" xMin="90" yMin="-12" xMax="615" yMax="916">
      <contour>
        <pt x="445" y="916" on="1"/>
        <pt x="469" y="916" on="0"/>
        <pt x="501" y="885" on="0"/>
        <pt x="501" y="854" on="1"/>
        <pt x="501" y="789" on="0"/>
        <pt x="434" y="789" on="1"/>
        <pt x="411" y="789" on="0"/>
        <pt x="381" y="820" on="0"/>
        <pt x="381" y="850" on="1"/>
        <pt x="381" y="916" on="0"/>
      </contour>
      <contour>
        <pt x="257" y="916" on="1"/>
        <pt x="281" y="916" on="0"/>
        <pt x="313" y="885" on="0"/>
        <pt x="313" y="854" on="1"/>
        <pt x="313" y="789" on="0"/>
        <pt x="246" y="789" on="1"/>
        <pt x="223" y="789" on="0"/>
        <pt x="193" y="820" on="0"/>
        <pt x="193" y="850" on="1"/>
        <pt x="193" y="916" on="0"/>
      </contour>
      <contour>
        <pt x="90" y="217" on="1"/>
        <pt x="90" y="720" on="1"/>
        <pt x="204" y="720" on="1"/>
        <pt x="204" y="235" on="1"/>
        <pt x="204" y="163" on="0"/>
        <pt x="275" y="78" on="0"/>
        <pt x="349" y="78" on="1"/>
        <pt x="501" y="78" on="0"/>
        <pt x="501" y="234" on="1"/>
        <pt x="501" y="720" on="1"/>
        <pt x="615" y="720" on="1"/>
        <pt x="615" y="252" on="1"/>
        <pt x="615" y="131" on="0"/>
        <pt x="477" y="-12" on="0"/>
        <pt x="217" y="-12" on="0"/>
        <pt x="90" y="111" on="0"/>
      </contour>
    </TTGlyph>
    <TTGlyph name="Ugrave" xMin="90" yMin="-12" xMax="615" yMax="942">
      <contour>
        <pt x="429" y="778" on="1"/>
        <pt x="216" y="856" on="1"/>
        <pt x="216" y="876" on="0"/>
        <pt x="255" y="942" on="0"/>
        <pt x="291" y="942" on="0"/>
        <pt x="422" y="851" on="0"/>
        <pt x="453" y="820" on="1"/>
      </contour>
      <contour>
        <pt x="90" y="217" on="1"/>
        <pt x="90" y="720" on="1"/>
        <pt x="204" y="720" on="1"/>
        <pt x="204" y="235" on="1"/>
        <pt x="204" y="163" on="0"/>
        <pt x="275" y="78" on="0"/>
        <pt x="349" y="78" on="1"/>
        <pt x="501" y="78" on="0"/>
        <pt x="501" y="234" on="1"/>
        <pt x="501" y="720" on="1"/>
        <pt x="615" y="720" on="1"/>
        <pt x="615" y="252" on="1"/>
        <pt x="615" y="131" on="0"/>
        <pt x="477" y="-12" on="0"/>
        <pt x="217" y="-12" on="0"/>
        <pt x="90" y="111" on="0"/>
      </contour>
    </TTGlyph>
    <TTGlyph name="V" xMin="5" yMin="-7" xMax="661" yMax="727">
      <contour>
        <pt x="252" y="27" on="1"/>
        <pt x="5" y="713" on="1"/>
        <pt x="122" y="727" on="1"/>
        <pt x="333" y="115" on="1"/>
        <pt x="544" y="727" on="1"/>
        <pt x="661" y="713" on="1"/>
        <pt x="406" y="7" on="1"/>
        <pt x="394" y="3" on="0"/>
        <pt x="315" y="-7" on="0"/>
        <pt x="263" y="-7" on="0"/>
      </contour>
    </TTGlyph>
    <TTGlyph name="W" xMin="30" yMin="-7" xMax="876" yMax="727">
      <contour>
        <pt x="185" y="25" on="1"/>
        <pt x="30" y="713" on="1"/>
        <pt x="149" y="727" on="1"/>
        <pt x="275" y="82" on="1"/>
        <pt x="385" y="542" on="1"/>
        <pt x="390" y="564" on="0"/>
        <pt x="443" y="564" on="0"/>
        <pt x="509" y="554" on="0"/>
        <pt x="518" y="550" on="1"/>
        <pt x="633" y="86" on="1"/>
        <pt x="757" y="727" on="1"/>
        <pt x="876" y="713" on="1"/>
        <pt x="715" y="7" on="1"/>
        <pt x="704" y="2" on="0"/>
        <pt x="616" y="-7" on="0"/>
        <pt x="547" y="-7" on="0"/>
        <pt x="540" y="25" on="1"/>
        <pt x="453" y="422" on="1"/>
        <pt x="361" y="7" on="1"/>
        <pt x="350" y="2" on="0"/>
        <pt x="261" y="-7" on="0"/>
        <pt x="191" y="-7" on="0"/>
      </contour>
    </TTGlyph>
    <TTGlyph name="X" xMin="33" yMin="0" xMax="650" yMax="726">
      <contour>
        <pt x="33" y="0" on="1"/>
        <pt x="268" y="372" on="1"/>
        <pt x="47" y="714" on="1"/>
        <pt x="169" y="726" on="1"/>
        <pt x="350" y="438" on="1"/>
        <pt x="523" y="726" on="1"/>
        <pt x="643" y="714" on="1"/>
        <pt x="418" y="358" on="1"/>
        <pt x="650" y="0" on="1"/>
        <pt x="520" y="0" on="1"/>
        <pt x="337" y="291" on="1"/>
        <pt x="162" y="0" on="1"/>
      </contour>
    </TTGlyph>
    <TTGlyph name="Y" xMin="34" yMin="0" xMax="625" yMax="725">
      <contour>
        <pt x="272" y="0" on="1"/>
        <pt x="272" y="287" on="1"/>
        <pt x="34" y="713" on="1"/>
        <pt x="153" y="725" on="1"/>
        <pt x="329" y="389" on="1"/>
        <pt x="506" y="725" on="1"/>
        <pt x="625" y="713" on="1"/>
        <pt x="386" y="286" on="1"/>
        <pt x="386" y="0" on="1"/>
      </contour>
    </TTGlyph>
    <TTGlyph name="Yacute" xMin="34" yMin="0" xMax="625" yMax="942">
      <contour>
        <pt x="495" y="856" on="1"/>
        <pt x="282" y="778" on="1"/>
        <pt x="258" y="820" on="1"/>
        <pt x="289" y="851" on="0"/>
        <pt x="420" y="942" on="0"/>
        <pt x="456" y="942" on="0"/>
        <pt x="495" y="876" on="0"/>
      </contour>
      <contour>
        <pt x="272" y="0" on="1"/>
        <pt x="272" y="287" on="1"/>
        <pt x="34" y="713" on="1"/>
        <pt x="153" y="725" on="1"/>
        <pt x="329" y="389" on="1"/>
        <pt x="506" y="725" on="1"/>
        <pt x="625" y="713" on="1"/>
        <pt x="386" y="286" on="1"/>
        <pt x="386" y="0" on="1"/>
      </contour>
    </TTGlyph>
    <TTGlyph name="Z" xMin="48" yMin="0" xMax="551" yMax="720">
      <contour>
        <pt x="48" y="0" on="1"/>
        <pt x="48" y="96" on="1"/>
        <pt x="48" y="122" on="0"/>
        <pt x="64" y="143" on="1"/>
        <pt x="401" y="591" on="1"/>
        <pt x="415" y="609" on="0"/>
        <pt x="415" y="624" on="1"/>
        <pt x="58" y="624" on="1"/>
        <pt x="58" y="720" on="1"/>
        <pt x="537" y="720" on="1"/>
        <pt x="537" y="624" on="1"/>
        <pt x="537" y="601" on="0"/>
        <pt x="526" y="587" on="1"/>
        <pt x="187" y="137" on="1"/>
        <pt x="172" y="118" on="0"/>
        <pt x="172" y="96" on="1"/>
        <pt x="551" y="96" on="1"/>
        <pt x="537" y="0" on="1"/>
      </contour>
    </TTGlyph>
    <TTGlyph name="a" xMin="48" yMin="-12" xMax="555" yMax="546">
      <contour>
        <pt x="504" y="501" on="1"/>
        <pt x="504" y="127" on="1"/>
        <pt x="504" y="92" on="0"/>
        <pt x="520" y="69" on="0"/>
        <pt x="551" y="69" on="1"/>
        <pt x="555" y="6" on="1"/>
        <pt x="530" y="-3" on="0"/>
        <pt x="502" y="-3" on="1"/>
        <pt x="424" y="-3" on="0"/>
        <pt x="409" y="68" on="1"/>
        <pt x="356" y="-12" on="0"/>
        <pt x="149" y="-12" on="0"/>
        <pt x="48" y="142" on="0"/>
        <pt x="48" y="385" on="0"/>
        <pt x="186" y="546" on="0"/>
        <pt x="302" y="546" on="1"/>
        <pt x="349" y="546" on="0"/>
        <pt x="474" y="517" on="0"/>
      </contour>
      <contour>
        <pt x="162" y="158" on="0"/>
        <pt x="221" y="72" on="0"/>
        <pt x="333" y="72" on="0"/>
        <pt x="396" y="151" on="0"/>
        <pt x="396" y="209" on="1"/>
        <pt x="396" y="449" on="1"/>
        <pt x="357" y="462" on="0"/>
        <pt x="307" y="462" on="1"/>
        <pt x="231" y="462" on="0"/>
        <pt x="162" y="352" on="0"/>
      </contour>
    </TTGlyph>
    <TTGlyph name="aacute" xMin="48" yMin="-12" xMax="555" yMax="778">
      <contour>
        <pt x="458" y="692" on="1"/>
        <pt x="245" y="614" on="1"/>
        <pt x="221" y="656" on="1"/>
        <pt x="252" y="687" on="0"/>
        <pt x="383" y="778" on="0"/>
        <pt x="419" y="778" on="0"/>
        <pt x="458" y="712" on="0"/>
      </contour>
      <contour>
        <pt x="504" y="501" on="1"/>
        <pt x="504" y="127" on="1"/>
        <pt x="504" y="92" on="0"/>
        <pt x="520" y="69" on="0"/>
        <pt x="551" y="69" on="1"/>
        <pt x="555" y="6" on="1"/>
        <pt x="530" y="-3" on="0"/>
        <pt x="502" y="-3" on="1"/>
        <pt x="424" y="-3" on="0"/>
        <pt x="409" y="68" on="1"/>
        <pt x="356" y="-12" on="0"/>
        <pt x="149" y="-12" on="0"/>
        <pt x="48" y="142" on="0"/>
        <pt x="48" y="385" on="0"/>
        <pt x="186" y="546" on="0"/>
        <pt x="302" y="546" on="1"/>
        <pt x="349" y="546" on="0"/>
        <pt x="474" y="517" on="0"/>
      </contour>
      <contour>
        <pt x="162" y="158" on="0"/>
        <pt x="221" y="72" on="0"/>
        <pt x="333" y="72" on="0"/>
        <pt x="396" y="151" on="0"/>
        <pt x="396" y="209" on="1"/>
        <pt x="396" y="449" on="1"/>
        <pt x="357" y="462" on="0"/>
        <pt x="307" y="462" on="1"/>
        <pt x="231" y="462" on="0"/>
        <pt x="162" y="352" on="0"/>
      </contour>
    </TTGlyph>
    <TTGlyph name="acircumflex" xMin="48" yMin="-12" xMax="555" yMax="778">
      <contour>
        <pt x="298" y="691" on="1"/>
        <pt x="184" y="614" on="1"/>
        <pt x="152" y="654" on="1"/>
        <pt x="262" y="778" on="0"/>
        <pt x="334" y="778" on="0"/>
        <pt x="444" y="654" on="1"/>
        <pt x="413" y="614" on="1"/>
      </contour>
      <contour>
        <pt x="504" y="501" on="1"/>
        <pt x="504" y="127" on="1"/>
        <pt x="504" y="92" on="0"/>
        <pt x="520" y="69" on="0"/>
        <pt x="551" y="69" on="1"/>
        <pt x="555" y="6" on="1"/>
        <pt x="530" y="-3" on="0"/>
        <pt x="502" y="-3" on="1"/>
        <pt x="424" y="-3" on="0"/>
        <pt x="409" y="68" on="1"/>
        <pt x="356" y="-12" on="0"/>
        <pt x="149" y="-12" on="0"/>
        <pt x="48" y="142" on="0"/>
        <pt x="48" y="385" on="0"/>
        <pt x="186" y="546" on="0"/>
        <pt x="302" y="546" on="1"/>
        <pt x="349" y="546" on="0"/>
        <pt x="474" y="517" on="0"/>
      </contour>
      <contour>
        <pt x="162" y="158" on="0"/>
        <pt x="221" y="72" on="0"/>
        <pt x="333" y="72" on="0"/>
        <pt x="396" y="151" on="0"/>
        <pt x="396" y="209" on="1"/>
        <pt x="396" y="449" on="1"/>
        <pt x="357" y="462" on="0"/>
        <pt x="307" y="462" on="1"/>
        <pt x="231" y="462" on="0"/>
        <pt x="162" y="352" on="0"/>
      </contour>
    </TTGlyph>
    <TTGlyph name="acute" xMin="10" yMin="614" xMax="247" yMax="778">
      <contour>
        <pt x="247" y="692" on="1"/>
        <pt x="34" y="614" on="1"/>
        <pt x="10" y="656" on="1"/>
        <pt x="41" y="687" on="0"/>
        <pt x="172" y="778" on="0"/>
        <pt x="208" y="778" on="0"/>
        <pt x="247" y="712" on="0"/>
      </contour>
    </TTGlyph>
    <TTGlyph name="acute.cap" xMin="10" yMin="778" xMax="247" yMax="942">
      <contour>
        <pt x="247" y="856" on="1"/>
        <pt x="34" y="778" on="1"/>
        <pt x="10" y="820" on="1"/>
        <pt x="41" y="851" on="0"/>
        <pt x="172" y="942" on="0"/>
        <pt x="208" y="942" on="0"/>
        <pt x="247" y="876" on="0"/>
      </contour>
    </TTGlyph>
    <TTGlyph name="adieresis" xMin="48" yMin="-12" xMax="555" yMax="750">
      <contour>
        <pt x="396" y="750" on="1"/>
        <pt x="420" y="750" on="0"/>
        <pt x="452" y="719" on="0"/>
        <pt x="452" y="688" on="1"/>
        <pt x="452" y="623" on="0"/>
        <pt x="385" y="623" on="1"/>
        <pt x="362" y="623" on="0"/>
        <pt x="332" y="654" on="0"/>
        <pt x="332" y="684" on="1"/>
        <pt x="332" y="750" on="0"/>
      </contour>
      <contour>
        <pt x="208" y="750" on="1"/>
        <pt x="232" y="750" on="0"/>
        <pt x="264" y="719" on="0"/>
        <pt x="264" y="688" on="1"/>
        <pt x="264" y="623" on="0"/>
        <pt x="197" y="623" on="1"/>
        <pt x="174" y="623" on="0"/>
        <pt x="144" y="654" on="0"/>
        <pt x="144" y="684" on="1"/>
        <pt x="144" y="750" on="0"/>
      </contour>
      <contour>
        <pt x="504" y="501" on="1"/>
        <pt x="504" y="127" on="1"/>
        <pt x="504" y="92" on="0"/>
        <pt x="520" y="69" on="0"/>
        <pt x="551" y="69" on="1"/>
        <pt x="555" y="6" on="1"/>
        <pt x="530" y="-3" on="0"/>
        <pt x="502" y="-3" on="1"/>
        <pt x="424" y="-3" on="0"/>
        <pt x="409" y="68" on="1"/>
        <pt x="356" y="-12" on="0"/>
        <pt x="149" y="-12" on="0"/>
        <pt x="48" y="142" on="0"/>
        <pt x="48" y="385" on="0"/>
        <pt x="186" y="546" on="0"/>
        <pt x="302" y="546" on="1"/>
        <pt x="349" y="546" on="0"/>
        <pt x="474" y="517" on="0"/>
      </contour>
      <contour>
        <pt x="162" y="158" on="0"/>
        <pt x="221" y="72" on="0"/>
        <pt x="333" y="72" on="0"/>
        <pt x="396" y="151" on="0"/>
        <pt x="396" y="209" on="1"/>
        <pt x="396" y="449" on="1"/>
        <pt x="357" y="462" on="0"/>
        <pt x="307" y="462" on="1"/>
        <pt x="231" y="462" on="0"/>
        <pt x="162" y="352" on="0"/>
      </contour>
    </TTGlyph>
    <TTGlyph name="ae" xMin="48" yMin="-12" xMax="834" yMax="546">
      <contour>
        <pt x="644" y="-12" on="1"/>
        <pt x="493" y="-12" on="0"/>
        <pt x="430" y="100" on="1"/>
        <pt x="368" y="-12" on="0"/>
        <pt x="251" y="-12" on="1"/>
        <pt x="149" y="-12" on="0"/>
        <pt x="48" y="142" on="0"/>
        <pt x="48" y="385" on="0"/>
        <pt x="186" y="546" on="0"/>
        <pt x="302" y="546" on="1"/>
        <pt x="349" y="546" on="0"/>
        <pt x="470" y="516" on="0"/>
        <pt x="503" y="500" on="1"/>
        <pt x="568" y="546" on="0"/>
        <pt x="730" y="546" on="0"/>
        <pt x="831" y="459" on="0"/>
        <pt x="831" y="396" on="1"/>
        <pt x="831" y="313" on="0"/>
        <pt x="673" y="208" on="0"/>
        <pt x="499" y="208" on="1"/>
        <pt x="499" y="162" on="0"/>
        <pt x="576" y="72" on="0"/>
        <pt x="727" y="72" on="0"/>
        <pt x="797" y="114" on="1"/>
        <pt x="834" y="46" on="1"/>
        <pt x="817" y="30" on="0"/>
        <pt x="707" y="-12" on="0"/>
      </contour>
      <contour>
        <pt x="734" y="387" on="1"/>
        <pt x="734" y="417" on="0"/>
        <pt x="689" y="462" on="0"/>
        <pt x="648" y="462" on="1"/>
        <pt x="582" y="462" on="0"/>
        <pt x="497" y="363" on="0"/>
        <pt x="496" y="283" on="1"/>
        <pt x="734" y="283" on="0"/>
      </contour>
      <contour>
        <pt x="162" y="158" on="0"/>
        <pt x="221" y="72" on="0"/>
        <pt x="333" y="72" on="0"/>
        <pt x="396" y="151" on="0"/>
        <pt x="396" y="209" on="1"/>
        <pt x="396" y="449" on="1"/>
        <pt x="357" y="462" on="0"/>
        <pt x="307" y="462" on="1"/>
        <pt x="231" y="462" on="0"/>
        <pt x="162" y="352" on="0"/>
      </contour>
    </TTGlyph>
    <TTGlyph name="agrave" xMin="48" yMin="-12" xMax="555" yMax="778">
      <contour>
        <pt x="381" y="614" on="1"/>
        <pt x="168" y="692" on="1"/>
        <pt x="168" y="712" on="0"/>
        <pt x="207" y="778" on="0"/>
        <pt x="243" y="778" on="0"/>
        <pt x="374" y="687" on="0"/>
        <pt x="405" y="656" on="1"/>
      </contour>
      <contour>
        <pt x="504" y="501" on="1"/>
        <pt x="504" y="127" on="1"/>
        <pt x="504" y="92" on="0"/>
        <pt x="520" y="69" on="0"/>
        <pt x="551" y="69" on="1"/>
        <pt x="555" y="6" on="1"/>
        <pt x="530" y="-3" on="0"/>
        <pt x="502" y="-3" on="1"/>
        <pt x="424" y="-3" on="0"/>
        <pt x="409" y="68" on="1"/>
        <pt x="356" y="-12" on="0"/>
        <pt x="149" y="-12" on="0"/>
        <pt x="48" y="142" on="0"/>
        <pt x="48" y="385" on="0"/>
        <pt x="186" y="546" on="0"/>
        <pt x="302" y="546" on="1"/>
        <pt x="349" y="546" on="0"/>
        <pt x="474" y="517" on="0"/>
      </contour>
      <contour>
        <pt x="162" y="158" on="0"/>
        <pt x="221" y="72" on="0"/>
        <pt x="333" y="72" on="0"/>
        <pt x="396" y="151" on="0"/>
        <pt x="396" y="209" on="1"/>
        <pt x="396" y="449" on="1"/>
        <pt x="357" y="462" on="0"/>
        <pt x="307" y="462" on="1"/>
        <pt x="231" y="462" on="0"/>
        <pt x="162" y="352" on="0"/>
      </contour>
    </TTGlyph>
    <TTGlyph name="ampersand" xMin="54" yMin="-12" xMax="652" yMax="732">
      <contour>
        <pt x="529" y="513" on="1"/>
        <pt x="529" y="414" on="1"/>
        <pt x="652" y="414" on="1"/>
        <pt x="614" y="328" on="1"/>
        <pt x="529" y="328" on="1"/>
        <pt x="529" y="189" on="1"/>
        <pt x="529" y="96" on="0"/>
        <pt x="581" y="96" on="1"/>
        <pt x="585" y="96" on="0"/>
        <pt x="620" y="103" on="1"/>
        <pt x="637" y="5" on="1"/>
        <pt x="586" y="-12" on="0"/>
        <pt x="553" y="-12" on="1"/>
        <pt x="477" y="-12" on="0"/>
        <pt x="443" y="41" on="1"/>
        <pt x="423" y="21" on="0"/>
        <pt x="328" y="-12" on="0"/>
        <pt x="271" y="-12" on="1"/>
        <pt x="175" y="-12" on="0"/>
        <pt x="54" y="93" on="0"/>
        <pt x="54" y="192" on="1"/>
        <pt x="54" y="313" on="0"/>
        <pt x="143" y="363" on="1"/>
        <pt x="143" y="367" on="1"/>
        <pt x="125" y="381" on="0"/>
        <pt x="103" y="406" on="1"/>
        <pt x="61" y="456" on="0"/>
        <pt x="61" y="528" on="1"/>
        <pt x="61" y="617" on="0"/>
        <pt x="192" y="732" on="0"/>
        <pt x="382" y="732" on="0"/>
        <pt x="471" y="690" on="1"/>
        <pt x="434" y="604" on="1"/>
        <pt x="363" y="636" on="0"/>
        <pt x="254" y="636" on="0"/>
        <pt x="181" y="582" on="0"/>
        <pt x="181" y="525" on="1"/>
        <pt x="181" y="414" on="0"/>
        <pt x="332" y="414" on="1"/>
        <pt x="415" y="414" on="1"/>
        <pt x="445" y="499" on="1"/>
      </contour>
      <contour>
        <pt x="174" y="150" on="0"/>
        <pt x="241" y="84" on="0"/>
        <pt x="334" y="84" on="0"/>
        <pt x="400" y="115" on="0"/>
        <pt x="415" y="130" on="1"/>
        <pt x="415" y="328" on="1"/>
        <pt x="325" y="328" on="1"/>
        <pt x="254" y="328" on="0"/>
        <pt x="174" y="275" on="0"/>
      </contour>
    </TTGlyph>
    <TTGlyph name="aring" xMin="48" yMin="-12" xMax="555" yMax="789">
      <contour>
        <pt x="212" y="739" on="0"/>
        <pt x="262" y="789" on="0"/>
        <pt x="350" y="789" on="0"/>
        <pt x="401" y="746" on="0"/>
        <pt x="401" y="662" on="0"/>
        <pt x="347" y="613" on="0"/>
        <pt x="259" y="613" on="0"/>
        <pt x="212" y="656" on="0"/>
      </contour>
      <contour>
        <pt x="304" y="653" on="1"/>
        <pt x="348" y="653" on="0"/>
        <pt x="348" y="747" on="0"/>
        <pt x="306" y="747" on="1"/>
        <pt x="282" y="747" on="0"/>
        <pt x="265" y="723" on="0"/>
        <pt x="265" y="699" on="1"/>
        <pt x="265" y="653" on="0"/>
      </contour>
      <contour>
        <pt x="504" y="501" on="1"/>
        <pt x="504" y="127" on="1"/>
        <pt x="504" y="92" on="0"/>
        <pt x="520" y="69" on="0"/>
        <pt x="551" y="69" on="1"/>
        <pt x="555" y="6" on="1"/>
        <pt x="530" y="-3" on="0"/>
        <pt x="502" y="-3" on="1"/>
        <pt x="424" y="-3" on="0"/>
        <pt x="409" y="68" on="1"/>
        <pt x="356" y="-12" on="0"/>
        <pt x="149" y="-12" on="0"/>
        <pt x="48" y="142" on="0"/>
        <pt x="48" y="385" on="0"/>
        <pt x="186" y="546" on="0"/>
        <pt x="302" y="546" on="1"/>
        <pt x="349" y="546" on="0"/>
        <pt x="474" y="517" on="0"/>
      </contour>
      <contour>
        <pt x="162" y="158" on="0"/>
        <pt x="221" y="72" on="0"/>
        <pt x="333" y="72" on="0"/>
        <pt x="396" y="151" on="0"/>
        <pt x="396" y="209" on="1"/>
        <pt x="396" y="449" on="1"/>
        <pt x="357" y="462" on="0"/>
        <pt x="307" y="462" on="1"/>
        <pt x="231" y="462" on="0"/>
        <pt x="162" y="352" on="0"/>
      </contour>
    </TTGlyph>
    <TTGlyph name="asciicircum" xMin="25" yMin="324" xMax="493" yMax="720">
      <contour>
        <pt x="207" y="720" on="1"/>
        <pt x="309" y="720" on="1"/>
        <pt x="493" y="348" on="1"/>
        <pt x="406" y="324" on="1"/>
        <pt x="258" y="608" on="1"/>
        <pt x="112" y="324" on="1"/>
        <pt x="25" y="348" on="1"/>
      </contour>
    </TTGlyph>
    <TTGlyph name="asciitilde" xMin="75" yMin="241" xMax="578" yMax="363">
      <contour>
        <pt x="115" y="248" on="1"/>
        <pt x="75" y="274" on="1"/>
        <pt x="144" y="363" on="0"/>
        <pt x="218" y="363" on="1"/>
        <pt x="252" y="363" on="0"/>
        <pt x="422" y="319" on="0"/>
        <pt x="484" y="319" on="0"/>
        <pt x="538" y="356" on="1"/>
        <pt x="578" y="330" on="1"/>
        <pt x="509" y="241" on="0"/>
        <pt x="439" y="241" on="1"/>
        <pt x="410" y="241" on="0"/>
        <pt x="233" y="285" on="0"/>
        <pt x="168" y="285" on="0"/>
      </contour>
    </TTGlyph>
    <TTGlyph name="asterisk" xMin="60" yMin="356" xMax="443" yMax="732">
      <contour>
        <pt x="98" y="415" on="1"/>
        <pt x="205" y="520" on="1"/>
        <pt x="202" y="521" on="0"/>
        <pt x="162" y="525" on="0"/>
        <pt x="126" y="531" on="0"/>
        <pt x="106" y="536" on="1"/>
        <pt x="60" y="549" on="0"/>
        <pt x="60" y="574" on="1"/>
        <pt x="60" y="615" on="0"/>
        <pt x="86" y="643" on="1"/>
        <pt x="220" y="573" on="1"/>
        <pt x="203" y="672" on="0"/>
        <pt x="203" y="714" on="0"/>
        <pt x="227" y="732" on="0"/>
        <pt x="285" y="732" on="0"/>
        <pt x="299" y="725" on="1"/>
        <pt x="274" y="576" on="1"/>
        <pt x="276" y="577" on="0"/>
        <pt x="322" y="602" on="0"/>
        <pt x="336" y="609" on="1"/>
        <pt x="380" y="631" on="0"/>
        <pt x="419" y="631" on="0"/>
        <pt x="443" y="582" on="0"/>
        <pt x="443" y="550" on="0"/>
        <pt x="442" y="547" on="1"/>
        <pt x="293" y="524" on="1"/>
        <pt x="295" y="522" on="0"/>
        <pt x="322" y="499" on="0"/>
        <pt x="345" y="477" on="0"/>
        <pt x="358" y="463" on="1"/>
        <pt x="387" y="432" on="0"/>
        <pt x="387" y="395" on="0"/>
        <pt x="339" y="359" on="0"/>
        <pt x="318" y="356" on="1"/>
        <pt x="251" y="491" on="1"/>
        <pt x="248" y="485" on="0"/>
        <pt x="208" y="402" on="0"/>
        <pt x="199" y="389" on="1"/>
        <pt x="181" y="367" on="0"/>
        <pt x="149" y="367" on="0"/>
        <pt x="107" y="398" on="0"/>
      </contour>
    </TTGlyph>
    <TTGlyph name="at" xMin="48" yMin="-216" xMax="942" yMax="706">
      <contour>
        <pt x="48" y="230" on="1"/>
        <pt x="48" y="443" on="0"/>
        <pt x="291" y="706" on="0"/>
        <pt x="516" y="706" on="1"/>
        <pt x="624" y="706" on="0"/>
        <pt x="791" y="642" on="0"/>
        <pt x="841" y="586" on="1"/>
        <pt x="942" y="471" on="0"/>
        <pt x="942" y="299" on="1"/>
        <pt x="942" y="183" on="0"/>
        <pt x="896" y="94" on="1"/>
        <pt x="872" y="50" on="0"/>
        <pt x="786" y="-3" on="0"/>
        <pt x="729" y="-3" on="1"/>
        <pt x="644" y="-3" on="0"/>
        <pt x="602" y="59" on="1"/>
        <pt x="598" y="59" on="1"/>
        <pt x="579" y="33" on="0"/>
        <pt x="500" y="-11" on="0"/>
        <pt x="445" y="-11" on="1"/>
        <pt x="350" y="-11" on="0"/>
        <pt x="254" y="128" on="0"/>
        <pt x="254" y="351" on="0"/>
        <pt x="383" y="499" on="0"/>
        <pt x="493" y="499" on="1"/>
        <pt x="541" y="499" on="0"/>
        <pt x="665" y="472" on="0"/>
        <pt x="697" y="458" on="1"/>
        <pt x="697" y="166" on="1"/>
        <pt x="697" y="121" on="0"/>
        <pt x="720" y="81" on="0"/>
        <pt x="773" y="81" on="0"/>
        <pt x="812" y="119" on="0"/>
        <pt x="822" y="151" on="1"/>
        <pt x="841" y="212" on="0"/>
        <pt x="841" y="285" on="1"/>
        <pt x="841" y="439" on="0"/>
        <pt x="681" y="616" on="0"/>
        <pt x="339" y="616" on="0"/>
        <pt x="149" y="405" on="0"/>
        <pt x="149" y="55" on="0"/>
        <pt x="340" y="-126" on="0"/>
        <pt x="501" y="-126" on="1"/>
        <pt x="546" y="-126" on="0"/>
        <pt x="582" y="-117" on="1"/>
        <pt x="604" y="-202" on="1"/>
        <pt x="553" y="-216" on="0"/>
        <pt x="495" y="-216" on="1"/>
        <pt x="223" y="-216" on="0"/>
        <pt x="108" y="-20" on="1"/>
        <pt x="48" y="83" on="0"/>
      </contour>
      <contour>
        <pt x="365" y="233" on="1"/>
        <pt x="365" y="76" on="0"/>
        <pt x="472" y="76" on="1"/>
        <pt x="527" y="76" on="0"/>
        <pt x="589" y="144" on="0"/>
        <pt x="589" y="192" on="1"/>
        <pt x="589" y="401" on="1"/>
        <pt x="549" y="412" on="0"/>
        <pt x="503" y="412" on="1"/>
        <pt x="365" y="412" on="0"/>
      </contour>
    </TTGlyph>
    <TTGlyph name="atilde" xMin="48" yMin="-12" xMax="555" yMax="743">
      <contour>
        <pt x="173" y="638" on="1"/>
        <pt x="133" y="664" on="1"/>
        <pt x="144" y="695" on="0"/>
        <pt x="207" y="743" on="0"/>
        <pt x="280" y="743" on="0"/>
        <pt x="362" y="698" on="0"/>
        <pt x="402" y="698" on="0"/>
        <pt x="436" y="716" on="0"/>
        <pt x="443" y="726" on="1"/>
        <pt x="483" y="700" on="1"/>
        <pt x="472" y="669" on="0"/>
        <pt x="409" y="621" on="0"/>
        <pt x="336" y="621" on="0"/>
        <pt x="254" y="665" on="0"/>
        <pt x="214" y="665" on="0"/>
        <pt x="180" y="648" on="0"/>
      </contour>
      <contour>
        <pt x="504" y="501" on="1"/>
        <pt x="504" y="127" on="1"/>
        <pt x="504" y="92" on="0"/>
        <pt x="520" y="69" on="0"/>
        <pt x="551" y="69" on="1"/>
        <pt x="555" y="6" on="1"/>
        <pt x="530" y="-3" on="0"/>
        <pt x="502" y="-3" on="1"/>
        <pt x="424" y="-3" on="0"/>
        <pt x="409" y="68" on="1"/>
        <pt x="356" y="-12" on="0"/>
        <pt x="149" y="-12" on="0"/>
        <pt x="48" y="142" on="0"/>
        <pt x="48" y="385" on="0"/>
        <pt x="186" y="546" on="0"/>
        <pt x="302" y="546" on="1"/>
        <pt x="349" y="546" on="0"/>
        <pt x="474" y="517" on="0"/>
      </contour>
      <contour>
        <pt x="162" y="158" on="0"/>
        <pt x="221" y="72" on="0"/>
        <pt x="333" y="72" on="0"/>
        <pt x="396" y="151" on="0"/>
        <pt x="396" y="209" on="1"/>
        <pt x="396" y="449" on="1"/>
        <pt x="357" y="462" on="0"/>
        <pt x="307" y="462" on="1"/>
        <pt x="231" y="462" on="0"/>
        <pt x="162" y="352" on="0"/>
      </contour>
    </TTGlyph>
    <TTGlyph name="b" xMin="100" yMin="-12" xMax="556" yMax="768">
      <contour>
        <pt x="100" y="36" on="1"/>
        <pt x="100" y="754" on="1"/>
        <pt x="208" y="768" on="1"/>
        <pt x="208" y="514" on="1"/>
        <pt x="274" y="546" on="0"/>
        <pt x="349" y="546" on="1"/>
        <pt x="439" y="546" on="0"/>
        <pt x="556" y="406" on="0"/>
        <pt x="556" y="142" on="0"/>
        <pt x="425" y="-12" on="0"/>
        <pt x="294" y="-12" on="1"/>
        <pt x="245" y="-12" on="0"/>
        <pt x="132" y="19" on="0"/>
      </contour>
      <contour>
        <pt x="442" y="374" on="0"/>
        <pt x="377" y="462" on="0"/>
        <pt x="257" y="462" on="0"/>
        <pt x="208" y="434" on="1"/>
        <pt x="208" y="85" on="1"/>
        <pt x="242" y="72" on="0"/>
        <pt x="296" y="72" on="1"/>
        <pt x="378" y="72" on="0"/>
        <pt x="442" y="175" on="0"/>
      </contour>
    </TTGlyph>
    <TTGlyph name="backslash" xMin="39" yMin="-50" xMax="373" yMax="720">
      <contour>
        <pt x="39" y="720" on="1"/>
        <pt x="117" y="720" on="1"/>
        <pt x="373" y="-50" on="1"/>
        <pt x="295" y="-50" on="1"/>
      </contour>
    </TTGlyph>
    <TTGlyph name="bar" xMin="108" yMin="-200" xMax="184" yMax="768">
      <contour>
        <pt x="108" y="-200" on="1"/>
        <pt x="108" y="768" on="1"/>
        <pt x="184" y="768" on="1"/>
        <pt x="184" y="-200" on="1"/>
      </contour>
    </TTGlyph>
    <TTGlyph name="braceleft" xMin="60" yMin="-90" xMax="347" yMax="754">
      <contour>
        <pt x="60" y="306" on="1"/>
        <pt x="60" y="358" on="1"/>
        <pt x="140" y="369" on="0"/>
        <pt x="140" y="427" on="1"/>
        <pt x="140" y="451" on="0"/>
        <pt x="123" y="549" on="0"/>
        <pt x="123" y="578" on="1"/>
        <pt x="123" y="654" on="0"/>
        <pt x="214" y="754" on="0"/>
        <pt x="319" y="754" on="1"/>
        <pt x="347" y="676" on="1"/>
        <pt x="294" y="676" on="0"/>
        <pt x="234" y="615" on="0"/>
        <pt x="234" y="570" on="1"/>
        <pt x="234" y="552" on="0"/>
        <pt x="252" y="462" on="0"/>
        <pt x="252" y="455" on="1"/>
        <pt x="252" y="364" on="0"/>
        <pt x="182" y="332" on="1"/>
        <pt x="252" y="300" on="0"/>
        <pt x="252" y="209" on="1"/>
        <pt x="252" y="202" on="0"/>
        <pt x="234" y="112" on="0"/>
        <pt x="234" y="94" on="1"/>
        <pt x="234" y="49" on="0"/>
        <pt x="294" y="-12" on="0"/>
        <pt x="347" y="-12" on="1"/>
        <pt x="319" y="-90" on="1"/>
        <pt x="214" y="-90" on="0"/>
        <pt x="123" y="10" on="0"/>
        <pt x="123" y="86" on="1"/>
        <pt x="123" y="115" on="0"/>
        <pt x="140" y="213" on="0"/>
        <pt x="140" y="237" on="1"/>
        <pt x="140" y="295" on="0"/>
      </contour>
    </TTGlyph>
    <TTGlyph name="braceright" xMin="60" yMin="-90" xMax="347" yMax="754">
      <contour>
        <pt x="60" y="-12" on="1"/>
        <pt x="113" y="-12" on="0"/>
        <pt x="173" y="49" on="0"/>
        <pt x="173" y="94" on="1"/>
        <pt x="173" y="112" on="0"/>
        <pt x="155" y="202" on="0"/>
        <pt x="155" y="209" on="1"/>
        <pt x="155" y="300" on="0"/>
        <pt x="225" y="332" on="1"/>
        <pt x="155" y="364" on="0"/>
        <pt x="155" y="455" on="1"/>
        <pt x="155" y="462" on="0"/>
        <pt x="173" y="552" on="0"/>
        <pt x="173" y="570" on="1"/>
        <pt x="173" y="615" on="0"/>
        <pt x="113" y="676" on="0"/>
        <pt x="60" y="676" on="1"/>
        <pt x="88" y="754" on="1"/>
        <pt x="193" y="754" on="0"/>
        <pt x="284" y="654" on="0"/>
        <pt x="284" y="578" on="1"/>
        <pt x="284" y="549" on="0"/>
        <pt x="267" y="451" on="0"/>
        <pt x="267" y="427" on="1"/>
        <pt x="267" y="369" on="0"/>
        <pt x="347" y="358" on="1"/>
        <pt x="347" y="306" on="1"/>
        <pt x="267" y="295" on="0"/>
        <pt x="267" y="237" on="1"/>
        <pt x="267" y="213" on="0"/>
        <pt x="284" y="115" on="0"/>
        <pt x="284" y="86" on="1"/>
        <pt x="284" y="10" on="0"/>
        <pt x="193" y="-90" on="0"/>
        <pt x="88" y="-90" on="1"/>
      </contour>
    </TTGlyph>
    <TTGlyph name="bracketleft" xMin="60" yMin="-90" xMax="288" yMax="754">
      <contour>
        <pt x="60" y="754" on="1"/>
        <pt x="269" y="754" on="1"/>
        <pt x="288" y="676" on="1"/>
        <pt x="162" y="676" on="1"/>
        <pt x="162" y="-12" on="1"/>
        <pt x="288" y="-12" on="1"/>
        <pt x="269" y="-90" on="1"/>
        <pt x="60" y="-90" on="1"/>
      </contour>
    </TTGlyph>
    <TTGlyph name="bracketright" xMin="45" yMin="-90" xMax="273" yMax="754">
      <contour>
        <pt x="273" y="-90" on="1"/>
        <pt x="64" y="-90" on="1"/>
        <pt x="45" y="-12" on="1"/>
        <pt x="171" y="-12" on="1"/>
        <pt x="171" y="676" on="1"/>
        <pt x="45" y="676" on="1"/>
        <pt x="64" y="754" on="1"/>
        <pt x="273" y="754" on="1"/>
      </contour>
    </TTGlyph>
    <TTGlyph name="brokenbar" xMin="109" yMin="-200" xMax="184" yMax="768">
      <contour>
        <pt x="109" y="367" on="1"/>
        <pt x="109" y="768" on="1"/>
        <pt x="184" y="768" on="1"/>
        <pt x="184" y="367" on="1"/>
      </contour>
      <contour>
        <pt x="109" y="-200" on="1"/>
        <pt x="109" y="201" on="1"/>
        <pt x="184" y="201" on="1"/>
        <pt x="184" y="-200" on="1"/>
      </contour>
    </TTGlyph>
    <TTGlyph name="bullet" xMin="50" yMin="234" xMax="261" yMax="448">
      <contour>
        <pt x="108" y="234" on="0"/>
        <pt x="50" y="297" on="0"/>
        <pt x="50" y="386" on="0"/>
        <pt x="108" y="448" on="0"/>
        <pt x="202" y="448" on="0"/>
        <pt x="261" y="386" on="0"/>
        <pt x="261" y="297" on="0"/>
        <pt x="202" y="234" on="0"/>
      </contour>
    </TTGlyph>
    <TTGlyph name="c" xMin="48" yMin="-12" xMax="478" yMax="546">
      <contour>
        <pt x="172" y="-12" on="0"/>
        <pt x="48" y="144" on="0"/>
        <pt x="48" y="387" on="0"/>
        <pt x="180" y="546" on="0"/>
        <pt x="297" y="546" on="1"/>
        <pt x="395" y="546" on="0"/>
        <pt x="477" y="504" on="1"/>
        <pt x="447" y="431" on="1"/>
        <pt x="379" y="462" on="0"/>
        <pt x="319" y="462" on="1"/>
        <pt x="239" y="462" on="0"/>
        <pt x="162" y="356" on="0"/>
        <pt x="162" y="276" on="1"/>
        <pt x="162" y="72" on="0"/>
        <pt x="320" y="72" on="1"/>
        <pt x="379" y="72" on="0"/>
        <pt x="443" y="106" on="1"/>
        <pt x="478" y="36" on="1"/>
        <pt x="401" y="-12" on="0"/>
      </contour>
    </TTGlyph>
    <TTGlyph name="caron" xMin="10" yMin="616" xMax="302" yMax="780">
      <contour>
        <pt x="42" y="780" on="1"/>
        <pt x="156" y="703" on="1"/>
        <pt x="271" y="780" on="1"/>
        <pt x="302" y="740" on="1"/>
        <pt x="192" y="616" on="0"/>
        <pt x="120" y="616" on="0"/>
        <pt x="10" y="740" on="1"/>
      </contour>
    </TTGlyph>
    <TTGlyph name="caron.cap" xMin="10" yMin="779" xMax="302" yMax="943">
      <contour>
        <pt x="156" y="866" on="1"/>
        <pt x="270" y="943" on="1"/>
        <pt x="302" y="903" on="1"/>
        <pt x="192" y="779" on="0"/>
        <pt x="120" y="779" on="0"/>
        <pt x="10" y="903" on="1"/>
        <pt x="41" y="943" on="1"/>
      </contour>
    </TTGlyph>
    <TTGlyph name="ccedilla" xMin="48" yMin="-210" xMax="478" yMax="546">
      <contour>
        <pt x="48" y="261" on="1"/>
        <pt x="48" y="387" on="0"/>
        <pt x="180" y="546" on="0"/>
        <pt x="297" y="546" on="1"/>
        <pt x="395" y="546" on="0"/>
        <pt x="477" y="504" on="1"/>
        <pt x="447" y="431" on="1"/>
        <pt x="379" y="462" on="0"/>
        <pt x="319" y="462" on="1"/>
        <pt x="239" y="462" on="0"/>
        <pt x="162" y="356" on="0"/>
        <pt x="162" y="276" on="1"/>
        <pt x="162" y="72" on="0"/>
        <pt x="320" y="72" on="1"/>
        <pt x="379" y="72" on="0"/>
        <pt x="443" y="106" on="1"/>
        <pt x="478" y="36" on="1"/>
        <pt x="417" y="-3" on="0"/>
        <pt x="323" y="-11" on="1"/>
        <pt x="313" y="-56" on="1"/>
        <pt x="378" y="-67" on="0"/>
        <pt x="378" y="-122" on="1"/>
        <pt x="378" y="-155" on="0"/>
        <pt x="358" y="-176" on="1"/>
        <pt x="326" y="-210" on="0"/>
        <pt x="229" y="-210" on="0"/>
        <pt x="193" y="-191" on="1"/>
        <pt x="212" y="-143" on="1"/>
        <pt x="235" y="-152" on="0"/>
        <pt x="258" y="-152" on="1"/>
        <pt x="302" y="-152" on="0"/>
        <pt x="302" y="-93" on="0"/>
        <pt x="269" y="-93" on="1"/>
        <pt x="256" y="-93" on="0"/>
        <pt x="237" y="-97" on="0"/>
        <pt x="234" y="-97" on="1"/>
        <pt x="245" y="-8" on="1"/>
        <pt x="147" y="7" on="0"/>
        <pt x="48" y="157" on="0"/>
      </contour>
    </TTGlyph>
    <TTGlyph name="cedilla" xMin="10" yMin="-210" xMax="195" yMax="3">
      <contour>
        <pt x="64" y="3" on="1"/>
        <pt x="143" y="3" on="1"/>
        <pt x="130" y="-56" on="1"/>
        <pt x="195" y="-67" on="0"/>
        <pt x="195" y="-122" on="1"/>
        <pt x="195" y="-155" on="0"/>
        <pt x="174" y="-176" on="1"/>
        <pt x="143" y="-210" on="0"/>
        <pt x="46" y="-210" on="0"/>
        <pt x="10" y="-191" on="1"/>
        <pt x="29" y="-143" on="1"/>
        <pt x="51" y="-152" on="0"/>
        <pt x="74" y="-152" on="1"/>
        <pt x="119" y="-152" on="0"/>
        <pt x="119" y="-93" on="0"/>
        <pt x="86" y="-93" on="1"/>
        <pt x="73" y="-93" on="0"/>
        <pt x="54" y="-97" on="0"/>
        <pt x="51" y="-97" on="1"/>
      </contour>
    </TTGlyph>
    <TTGlyph name="cent" xMin="58" yMin="-102" xMax="488" yMax="768">
      <contour>
        <pt x="159" y="83" on="0"/>
        <pt x="58" y="234" on="0"/>
        <pt x="58" y="451" on="0"/>
        <pt x="163" y="604" on="0"/>
        <pt x="259" y="620" on="1"/>
        <pt x="259" y="768" on="1"/>
        <pt x="335" y="768" on="1"/>
        <pt x="335" y="623" on="1"/>
        <pt x="416" y="618" on="0"/>
        <pt x="487" y="582" on="1"/>
        <pt x="457" y="509" on="1"/>
        <pt x="391" y="538" on="0"/>
        <pt x="335" y="540" on="1"/>
        <pt x="335" y="150" on="1"/>
        <pt x="394" y="151" on="0"/>
        <pt x="453" y="184" on="1"/>
        <pt x="488" y="114" on="1"/>
        <pt x="426" y="75" on="0"/>
        <pt x="335" y="67" on="1"/>
        <pt x="335" y="-102" on="1"/>
        <pt x="259" y="-102" on="1"/>
        <pt x="259" y="69" on="1"/>
      </contour>
      <contour>
        <pt x="172" y="354" on="1"/>
        <pt x="172" y="203" on="0"/>
        <pt x="259" y="163" on="1"/>
        <pt x="259" y="525" on="1"/>
        <pt x="172" y="484" on="0"/>
      </contour>
    </TTGlyph>
    <TTGlyph name="circumflex" xMin="10" yMin="614" xMax="302" yMax="778">
      <contour>
        <pt x="156" y="691" on="1"/>
        <pt x="42" y="614" on="1"/>
        <pt x="10" y="654" on="1"/>
        <pt x="120" y="778" on="0"/>
        <pt x="192" y="778" on="0"/>
        <pt x="302" y="654" on="1"/>
        <pt x="271" y="614" on="1"/>
      </contour>
    </TTGlyph>
    <TTGlyph name="circumflex.cap" xMin="10" yMin="778" xMax="302" yMax="942">
      <contour>
        <pt x="156" y="855" on="1"/>
        <pt x="42" y="778" on="1"/>
        <pt x="10" y="818" on="1"/>
        <pt x="120" y="942" on="0"/>
        <pt x="192" y="942" on="0"/>
        <pt x="302" y="818" on="1"/>
        <pt x="271" y="778" on="1"/>
      </contour>
    </TTGlyph>
    <TTGlyph name="colon" xMin="50" yMin="-11" xMax="174" yMax="455">
      <contour>
        <pt x="50" y="366" on="0"/>
        <pt x="50" y="418" on="0"/>
        <pt x="84" y="455" on="0"/>
        <pt x="140" y="455" on="0"/>
        <pt x="174" y="418" on="0"/>
        <pt x="174" y="366" on="0"/>
        <pt x="140" y="329" on="0"/>
        <pt x="84" y="329" on="0"/>
      </contour>
      <contour>
        <pt x="50" y="26" on="0"/>
        <pt x="50" y="78" on="0"/>
        <pt x="84" y="115" on="0"/>
        <pt x="140" y="115" on="0"/>
        <pt x="174" y="78" on="0"/>
        <pt x="174" y="26" on="0"/>
        <pt x="140" y="-11" on="0"/>
        <pt x="84" y="-11" on="0"/>
      </contour>
    </TTGlyph>
    <TTGlyph name="comma" xMin="25" yMin="-156" xMax="171" yMax="115">
      <contour>
        <pt x="69" y="-10" on="0"/>
        <pt x="50" y="38" on="0"/>
        <pt x="50" y="78" on="0"/>
        <pt x="83" y="115" on="0"/>
        <pt x="139" y="115" on="0"/>
        <pt x="171" y="69" on="0"/>
        <pt x="171" y="-19" on="0"/>
        <pt x="107" y="-124" on="0"/>
        <pt x="54" y="-156" on="1"/>
        <pt x="25" y="-119" on="1"/>
        <pt x="69" y="-69" on="0"/>
        <pt x="69" y="-22" on="1"/>
      </contour>
    </TTGlyph>
    <TTGlyph name="commaaccent" xMin="10" yMin="-230" xMax="134" yMax="-33">
      <contour>
        <pt x="50" y="-118" on="0"/>
        <pt x="31" y="-89" on="0"/>
        <pt x="31" y="-61" on="0"/>
        <pt x="59" y="-33" on="0"/>
        <pt x="108" y="-33" on="0"/>
        <pt x="134" y="-67" on="0"/>
        <pt x="134" y="-133" on="0"/>
        <pt x="80" y="-208" on="0"/>
        <pt x="34" y="-230" on="1"/>
        <pt x="10" y="-201" on="1"/>
        <pt x="50" y="-157" on="0"/>
        <pt x="50" y="-126" on="1"/>
      </contour>
    </TTGlyph>
    <TTGlyph name="commasuperior" xMin="10" yMin="590" xMax="134" yMax="787">
      <contour>
        <pt x="94" y="675" on="0"/>
        <pt x="113" y="646" on="0"/>
        <pt x="113" y="618" on="0"/>
        <pt x="85" y="590" on="0"/>
        <pt x="36" y="590" on="0"/>
        <pt x="10" y="624" on="0"/>
        <pt x="10" y="690" on="0"/>
        <pt x="64" y="765" on="0"/>
        <pt x="110" y="787" on="1"/>
        <pt x="134" y="758" on="1"/>
        <pt x="94" y="714" on="0"/>
        <pt x="94" y="683" on="1"/>
      </contour>
    </TTGlyph>
    <TTGlyph name="copyright" xMin="60" yMin="-13" xMax="794" yMax="733">
      <contour>
        <pt x="60" y="202" on="0"/>
        <pt x="60" y="518" on="0"/>
        <pt x="272" y="733" on="0"/>
        <pt x="583" y="733" on="0"/>
        <pt x="794" y="517" on="0"/>
        <pt x="794" y="202" on="0"/>
        <pt x="583" y="-13" on="0"/>
        <pt x="272" y="-13" on="0"/>
      </contour>
      <contour>
        <pt x="315" y="643" on="0"/>
        <pt x="161" y="479" on="0"/>
        <pt x="161" y="240" on="0"/>
        <pt x="315" y="77" on="0"/>
        <pt x="540" y="77" on="0"/>
        <pt x="693" y="240" on="0"/>
        <pt x="693" y="479" on="0"/>
        <pt x="540" y="643" on="0"/>
      </contour>
      <contour>
        <pt x="562" y="528" on="1"/>
        <pt x="534" y="444" on="1"/>
        <pt x="474" y="464" on="0"/>
        <pt x="395" y="464" on="0"/>
        <pt x="353" y="416" on="0"/>
        <pt x="353" y="297" on="0"/>
        <pt x="395" y="254" on="0"/>
        <pt x="481" y="254" on="0"/>
        <pt x="534" y="277" on="1"/>
        <pt x="562" y="189" on="1"/>
        <pt x="491" y="164" on="0"/>
        <pt x="338" y="164" on="0"/>
        <pt x="252" y="264" on="0"/>
        <pt x="252" y="447" on="0"/>
        <pt x="342" y="554" on="0"/>
        <pt x="430" y="554" on="1"/>
        <pt x="478" y="554" on="0"/>
      </contour>
    </TTGlyph>
    <TTGlyph name="currency" xMin="50" yMin="62" xMax="524" yMax="548">
      <contour>
        <pt x="177" y="476" on="1"/>
        <pt x="227" y="498" on="0"/>
        <pt x="358" y="498" on="0"/>
        <pt x="403" y="479" on="1"/>
        <pt x="468" y="548" on="1"/>
        <pt x="524" y="473" on="1"/>
        <pt x="477" y="426" on="1"/>
        <pt x="512" y="378" on="0"/>
        <pt x="512" y="235" on="0"/>
        <pt x="474" y="182" on="1"/>
        <pt x="522" y="135" on="1"/>
        <pt x="468" y="62" on="1"/>
        <pt x="407" y="126" on="1"/>
        <pt x="355" y="100" on="0"/>
        <pt x="216" y="100" on="0"/>
        <pt x="168" y="121" on="1"/>
        <pt x="115" y="65" on="1"/>
        <pt x="50" y="130" on="1"/>
        <pt x="96" y="176" on="1"/>
        <pt x="64" y="222" on="0"/>
        <pt x="64" y="370" on="0"/>
        <pt x="106" y="423" on="1"/>
        <pt x="50" y="480" on="1"/>
        <pt x="113" y="544" on="1"/>
      </contour>
      <contour>
        <pt x="166" y="295" on="1"/>
        <pt x="166" y="172" on="0"/>
        <pt x="289" y="172" on="1"/>
        <pt x="347" y="172" on="0"/>
        <pt x="409" y="244" on="0"/>
        <pt x="409" y="305" on="1"/>
        <pt x="409" y="426" on="0"/>
        <pt x="293" y="426" on="1"/>
        <pt x="229" y="426" on="0"/>
        <pt x="166" y="355" on="0"/>
      </contour>
    </TTGlyph>
    <TTGlyph name="d" xMin="48" yMin="-12" xMax="555" yMax="768">
      <contour>
        <pt x="504" y="768" on="1"/>
        <pt x="504" y="125" on="1"/>
        <pt x="504" y="89" on="0"/>
        <pt x="521" y="69" on="0"/>
        <pt x="551" y="69" on="1"/>
        <pt x="555" y="6" on="1"/>
        <pt x="530" y="-3" on="0"/>
        <pt x="502" y="-3" on="1"/>
        <pt x="424" y="-3" on="0"/>
        <pt x="409" y="68" on="1"/>
        <pt x="356" y="-12" on="0"/>
        <pt x="251" y="-12" on="1"/>
        <pt x="161" y="-12" on="0"/>
        <pt x="48" y="125" on="0"/>
        <pt x="48" y="391" on="0"/>
        <pt x="179" y="546" on="0"/>
        <pt x="310" y="546" on="1"/>
        <pt x="350" y="546" on="0"/>
        <pt x="396" y="535" on="1"/>
        <pt x="396" y="754" on="1"/>
      </contour>
      <contour>
        <pt x="222" y="72" on="0"/>
        <pt x="334" y="72" on="0"/>
        <pt x="396" y="152" on="0"/>
        <pt x="396" y="207" on="1"/>
        <pt x="396" y="449" on="1"/>
        <pt x="362" y="462" on="0"/>
        <pt x="307" y="462" on="1"/>
        <pt x="226" y="462" on="0"/>
        <pt x="162" y="358" on="0"/>
        <pt x="162" y="157" on="0"/>
      </contour>
    </TTGlyph>
    <TTGlyph name="degree" xMin="41" yMin="341" xMax="394" yMax="690">
      <contour>
        <pt x="41" y="436" on="0"/>
        <pt x="41" y="594" on="0"/>
        <pt x="141" y="690" on="0"/>
        <pt x="293" y="690" on="0"/>
        <pt x="394" y="594" on="0"/>
        <pt x="394" y="436" on="0"/>
        <pt x="293" y="341" on="0"/>
        <pt x="141" y="341" on="0"/>
      </contour>
      <contour>
        <pt x="130" y="563" on="0"/>
        <pt x="130" y="467" on="0"/>
        <pt x="178" y="417" on="0"/>
        <pt x="256" y="417" on="0"/>
        <pt x="306" y="467" on="0"/>
        <pt x="306" y="563" on="0"/>
        <pt x="256" y="614" on="0"/>
        <pt x="178" y="614" on="0"/>
      </contour>
    </TTGlyph>
    <TTGlyph name="dieresis" xMin="10" yMin="623" xMax="318" yMax="750">
      <contour>
        <pt x="262" y="750" on="1"/>
        <pt x="286" y="750" on="0"/>
        <pt x="318" y="719" on="0"/>
        <pt x="318" y="688" on="1"/>
        <pt x="318" y="623" on="0"/>
        <pt x="251" y="623" on="1"/>
        <pt x="228" y="623" on="0"/>
        <pt x="198" y="654" on="0"/>
        <pt x="198" y="684" on="1"/>
        <pt x="198" y="750" on="0"/>
      </contour>
      <contour>
        <pt x="74" y="750" on="1"/>
        <pt x="98" y="750" on="0"/>
        <pt x="130" y="719" on="0"/>
        <pt x="130" y="688" on="1"/>
        <pt x="130" y="623" on="0"/>
        <pt x="63" y="623" on="1"/>
        <pt x="40" y="623" on="0"/>
        <pt x="10" y="654" on="0"/>
        <pt x="10" y="684" on="1"/>
        <pt x="10" y="750" on="0"/>
      </contour>
    </TTGlyph>
    <TTGlyph name="dieresis.cap" xMin="10" yMin="789" xMax="318" yMax="916">
      <contour>
        <pt x="262" y="916" on="1"/>
        <pt x="286" y="916" on="0"/>
        <pt x="318" y="885" on="0"/>
        <pt x="318" y="854" on="1"/>
        <pt x="318" y="789" on="0"/>
        <pt x="251" y="789" on="1"/>
        <pt x="228" y="789" on="0"/>
        <pt x="198" y="820" on="0"/>
        <pt x="198" y="850" on="1"/>
        <pt x="198" y="916" on="0"/>
      </contour>
      <contour>
        <pt x="74" y="916" on="1"/>
        <pt x="98" y="916" on="0"/>
        <pt x="130" y="885" on="0"/>
        <pt x="130" y="854" on="1"/>
        <pt x="130" y="789" on="0"/>
        <pt x="63" y="789" on="1"/>
        <pt x="40" y="789" on="0"/>
        <pt x="10" y="820" on="0"/>
        <pt x="10" y="850" on="1"/>
        <pt x="10" y="916" on="0"/>
      </contour>
    </TTGlyph>
    <TTGlyph name="divide" xMin="64" yMin="76" xMax="486" yMax="542">
      <contour>
        <pt x="210" y="453" on="0"/>
        <pt x="210" y="505" on="0"/>
        <pt x="244" y="542" on="0"/>
        <pt x="300" y="542" on="0"/>
        <pt x="334" y="505" on="0"/>
        <pt x="334" y="453" on="0"/>
        <pt x="300" y="416" on="0"/>
        <pt x="244" y="416" on="0"/>
      </contour>
      <contour>
        <pt x="64" y="349" on="1"/>
        <pt x="486" y="349" on="1"/>
        <pt x="472" y="265" on="1"/>
        <pt x="64" y="265" on="1"/>
      </contour>
      <contour>
        <pt x="210" y="113" on="0"/>
        <pt x="210" y="165" on="0"/>
        <pt x="244" y="202" on="0"/>
        <pt x="300" y="202" on="0"/>
        <pt x="334" y="165" on="0"/>
        <pt x="334" y="113" on="0"/>
        <pt x="300" y="76" on="0"/>
        <pt x="244" y="76" on="0"/>
      </contour>
    </TTGlyph>
    <TTGlyph name="dollar" xMin="50" yMin="-102" xMax="512" yMax="768">
      <contour>
        <pt x="253" y="-102" on="1"/>
        <pt x="253" y="-12" on="1"/>
        <pt x="131" y="-9" on="0"/>
        <pt x="50" y="46" on="1"/>
        <pt x="85" y="139" on="1"/>
        <pt x="178" y="88" on="0"/>
        <pt x="253" y="83" on="1"/>
        <pt x="253" y="297" on="1"/>
        <pt x="211" y="313" on="0"/>
        <pt x="159" y="339" on="0"/>
        <pt x="129" y="362" on="1"/>
        <pt x="69" y="406" on="0"/>
        <pt x="69" y="569" on="0"/>
        <pt x="172" y="675" on="0"/>
        <pt x="253" y="687" on="1"/>
        <pt x="253" y="768" on="1"/>
        <pt x="329" y="768" on="1"/>
        <pt x="329" y="688" on="1"/>
        <pt x="425" y="678" on="0"/>
        <pt x="498" y="630" on="1"/>
        <pt x="458" y="543" on="1"/>
        <pt x="377" y="584" on="0"/>
        <pt x="329" y="592" on="1"/>
        <pt x="329" y="389" on="1"/>
        <pt x="371" y="372" on="0"/>
        <pt x="422" y="344" on="0"/>
        <pt x="452" y="320" on="1"/>
        <pt x="512" y="273" on="0"/>
        <pt x="512" y="106" on="0"/>
        <pt x="411" y="8" on="0"/>
        <pt x="329" y="-6" on="1"/>
        <pt x="329" y="-102" on="1"/>
      </contour>
      <contour>
        <pt x="184" y="508" on="1"/>
        <pt x="184" y="456" on="0"/>
        <pt x="253" y="421" on="1"/>
        <pt x="253" y="587" on="1"/>
        <pt x="221" y="578" on="0"/>
        <pt x="184" y="537" on="0"/>
      </contour>
      <contour>
        <pt x="329" y="91" on="1"/>
        <pt x="398" y="114" on="0"/>
        <pt x="398" y="230" on="0"/>
        <pt x="329" y="264" on="1"/>
      </contour>
    </TTGlyph>
    <TTGlyph name="dotaccentcmb" xMin="10" yMin="615" xMax="134" yMax="742">
      <contour>
        <pt x="75" y="742" on="1"/>
        <pt x="100" y="742" on="0"/>
        <pt x="134" y="711" on="0"/>
        <pt x="134" y="680" on="1"/>
        <pt x="134" y="615" on="0"/>
        <pt x="66" y="615" on="1"/>
        <pt x="42" y="615" on="0"/>
        <pt x="10" y="646" on="0"/>
        <pt x="10" y="676" on="1"/>
        <pt x="10" y="742" on="0"/>
      </contour>
    </TTGlyph>
    <TTGlyph name="dotaccentcmb.cap" xMin="10" yMin="781" xMax="134" yMax="908">
      <contour>
        <pt x="75" y="908" on="1"/>
        <pt x="100" y="908" on="0"/>
        <pt x="134" y="877" on="0"/>
        <pt x="134" y="846" on="1"/>
        <pt x="134" y="781" on="0"/>
        <pt x="66" y="781" on="1"/>
        <pt x="42" y="781" on="0"/>
        <pt x="10" y="812" on="0"/>
        <pt x="10" y="842" on="1"/>
        <pt x="10" y="908" on="0"/>
      </contour>
    </TTGlyph>
    <TTGlyph name="dotlessi" xMin="100" yMin="0" xMax="208" yMax="541">
      <contour>
        <pt x="100" y="0" on="1"/>
        <pt x="100" y="527" on="1"/>
        <pt x="208" y="541" on="1"/>
        <pt x="208" y="0" on="1"/>
      </contour>
    </TTGlyph>
    <TTGlyph name="dotlessj" xMin="-39" yMin="-220" xMax="208" yMax="541">
      <contour>
        <pt x="-39" y="-213" on="1"/>
        <pt x="-32" y="-132" on="1"/>
        <pt x="-19" y="-133" on="0"/>
        <pt x="52" y="-133" on="0"/>
        <pt x="100" y="-90" on="0"/>
        <pt x="100" y="-43" on="1"/>
        <pt x="100" y="527" on="1"/>
        <pt x="208" y="541" on="1"/>
        <pt x="208" y="-45" on="1"/>
        <pt x="208" y="-127" on="0"/>
        <pt x="123" y="-220" on="0"/>
        <pt x="34" y="-220" on="1"/>
        <pt x="-7" y="-220" on="0"/>
      </contour>
    </TTGlyph>
    <TTGlyph name="e" xMin="48" yMin="-12" xMax="487" yMax="546">
      <contour>
        <pt x="450" y="114" on="1"/>
        <pt x="487" y="46" on="1"/>
        <pt x="470" y="30" on="0"/>
        <pt x="360" y="-12" on="0"/>
        <pt x="297" y="-12" on="1"/>
        <pt x="185" y="-12" on="0"/>
        <pt x="48" y="124" on="0"/>
        <pt x="48" y="260" on="1"/>
        <pt x="48" y="335" on="0"/>
        <pt x="96" y="450" on="0"/>
        <pt x="134" y="482" on="1"/>
        <pt x="212" y="546" on="0"/>
        <pt x="383" y="546" on="0"/>
        <pt x="484" y="459" on="0"/>
        <pt x="484" y="396" on="1"/>
        <pt x="484" y="313" on="0"/>
        <pt x="326" y="208" on="0"/>
        <pt x="152" y="208" on="1"/>
        <pt x="152" y="162" on="0"/>
        <pt x="229" y="72" on="0"/>
        <pt x="380" y="72" on="0"/>
      </contour>
      <contour>
        <pt x="387" y="387" on="1"/>
        <pt x="387" y="417" on="0"/>
        <pt x="342" y="462" on="0"/>
        <pt x="301" y="462" on="1"/>
        <pt x="235" y="462" on="0"/>
        <pt x="150" y="363" on="0"/>
        <pt x="149" y="283" on="1"/>
        <pt x="387" y="283" on="0"/>
      </contour>
    </TTGlyph>
    <TTGlyph name="eacute" xMin="48" yMin="-12" xMax="487" yMax="778">
      <contour>
        <pt x="425" y="692" on="1"/>
        <pt x="212" y="614" on="1"/>
        <pt x="188" y="656" on="1"/>
        <pt x="219" y="687" on="0"/>
        <pt x="350" y="778" on="0"/>
        <pt x="386" y="778" on="0"/>
        <pt x="425" y="712" on="0"/>
      </contour>
      <contour>
        <pt x="450" y="114" on="1"/>
        <pt x="487" y="46" on="1"/>
        <pt x="470" y="30" on="0"/>
        <pt x="360" y="-12" on="0"/>
        <pt x="297" y="-12" on="1"/>
        <pt x="185" y="-12" on="0"/>
        <pt x="48" y="124" on="0"/>
        <pt x="48" y="260" on="1"/>
        <pt x="48" y="335" on="0"/>
        <pt x="96" y="450" on="0"/>
        <pt x="134" y="482" on="1"/>
        <pt x="212" y="546" on="0"/>
        <pt x="383" y="546" on="0"/>
        <pt x="484" y="459" on="0"/>
        <pt x="484" y="396" on="1"/>
        <pt x="484" y="313" on="0"/>
        <pt x="326" y="208" on="0"/>
        <pt x="152" y="208" on="1"/>
        <pt x="152" y="162" on="0"/>
        <pt x="229" y="72" on="0"/>
        <pt x="380" y="72" on="0"/>
      </contour>
      <contour>
        <pt x="387" y="387" on="1"/>
        <pt x="387" y="417" on="0"/>
        <pt x="342" y="462" on="0"/>
        <pt x="301" y="462" on="1"/>
        <pt x="235" y="462" on="0"/>
        <pt x="150" y="363" on="0"/>
        <pt x="149" y="283" on="1"/>
        <pt x="387" y="283" on="0"/>
      </contour>
    </TTGlyph>
    <TTGlyph name="ecircumflex" xMin="48" yMin="-12" xMax="487" yMax="778">
      <contour>
        <pt x="280" y="691" on="1"/>
        <pt x="166" y="614" on="1"/>
        <pt x="134" y="654" on="1"/>
        <pt x="244" y="778" on="0"/>
        <pt x="316" y="778" on="0"/>
        <pt x="426" y="654" on="1"/>
        <pt x="395" y="614" on="1"/>
      </contour>
      <contour>
        <pt x="450" y="114" on="1"/>
        <pt x="487" y="46" on="1"/>
        <pt x="470" y="30" on="0"/>
        <pt x="360" y="-12" on="0"/>
        <pt x="297" y="-12" on="1"/>
        <pt x="185" y="-12" on="0"/>
        <pt x="48" y="124" on="0"/>
        <pt x="48" y="260" on="1"/>
        <pt x="48" y="335" on="0"/>
        <pt x="96" y="450" on="0"/>
        <pt x="134" y="482" on="1"/>
        <pt x="212" y="546" on="0"/>
        <pt x="383" y="546" on="0"/>
        <pt x="484" y="459" on="0"/>
        <pt x="484" y="396" on="1"/>
        <pt x="484" y="313" on="0"/>
        <pt x="326" y="208" on="0"/>
        <pt x="152" y="208" on="1"/>
        <pt x="152" y="162" on="0"/>
        <pt x="229" y="72" on="0"/>
        <pt x="380" y="72" on="0"/>
      </contour>
      <contour>
        <pt x="387" y="387" on="1"/>
        <pt x="387" y="417" on="0"/>
        <pt x="342" y="462" on="0"/>
        <pt x="301" y="462" on="1"/>
        <pt x="235" y="462" on="0"/>
        <pt x="150" y="363" on="0"/>
        <pt x="149" y="283" on="1"/>
        <pt x="387" y="283" on="0"/>
      </contour>
    </TTGlyph>
    <TTGlyph name="edieresis" xMin="48" yMin="-12" xMax="487" yMax="750">
      <contour>
        <pt x="368" y="750" on="1"/>
        <pt x="392" y="750" on="0"/>
        <pt x="424" y="719" on="0"/>
        <pt x="424" y="688" on="1"/>
        <pt x="424" y="623" on="0"/>
        <pt x="357" y="623" on="1"/>
        <pt x="334" y="623" on="0"/>
        <pt x="304" y="654" on="0"/>
        <pt x="304" y="684" on="1"/>
        <pt x="304" y="750" on="0"/>
      </contour>
      <contour>
        <pt x="180" y="750" on="1"/>
        <pt x="204" y="750" on="0"/>
        <pt x="236" y="719" on="0"/>
        <pt x="236" y="688" on="1"/>
        <pt x="236" y="623" on="0"/>
        <pt x="169" y="623" on="1"/>
        <pt x="146" y="623" on="0"/>
        <pt x="116" y="654" on="0"/>
        <pt x="116" y="684" on="1"/>
        <pt x="116" y="750" on="0"/>
      </contour>
      <contour>
        <pt x="450" y="114" on="1"/>
        <pt x="487" y="46" on="1"/>
        <pt x="470" y="30" on="0"/>
        <pt x="360" y="-12" on="0"/>
        <pt x="297" y="-12" on="1"/>
        <pt x="185" y="-12" on="0"/>
        <pt x="48" y="124" on="0"/>
        <pt x="48" y="260" on="1"/>
        <pt x="48" y="335" on="0"/>
        <pt x="96" y="450" on="0"/>
        <pt x="134" y="482" on="1"/>
        <pt x="212" y="546" on="0"/>
        <pt x="383" y="546" on="0"/>
        <pt x="484" y="459" on="0"/>
        <pt x="484" y="396" on="1"/>
        <pt x="484" y="313" on="0"/>
        <pt x="326" y="208" on="0"/>
        <pt x="152" y="208" on="1"/>
        <pt x="152" y="162" on="0"/>
        <pt x="229" y="72" on="0"/>
        <pt x="380" y="72" on="0"/>
      </contour>
      <contour>
        <pt x="387" y="387" on="1"/>
        <pt x="387" y="417" on="0"/>
        <pt x="342" y="462" on="0"/>
        <pt x="301" y="462" on="1"/>
        <pt x="235" y="462" on="0"/>
        <pt x="150" y="363" on="0"/>
        <pt x="149" y="283" on="1"/>
        <pt x="387" y="283" on="0"/>
      </contour>
    </TTGlyph>
    <TTGlyph name="egrave" xMin="48" yMin="-12" xMax="487" yMax="778">
      <contour>
        <pt x="351" y="614" on="1"/>
        <pt x="138" y="692" on="1"/>
        <pt x="138" y="712" on="0"/>
        <pt x="177" y="778" on="0"/>
        <pt x="213" y="778" on="0"/>
        <pt x="344" y="687" on="0"/>
        <pt x="375" y="656" on="1"/>
      </contour>
      <contour>
        <pt x="450" y="114" on="1"/>
        <pt x="487" y="46" on="1"/>
        <pt x="470" y="30" on="0"/>
        <pt x="360" y="-12" on="0"/>
        <pt x="297" y="-12" on="1"/>
        <pt x="185" y="-12" on="0"/>
        <pt x="48" y="124" on="0"/>
        <pt x="48" y="260" on="1"/>
        <pt x="48" y="335" on="0"/>
        <pt x="96" y="450" on="0"/>
        <pt x="134" y="482" on="1"/>
        <pt x="212" y="546" on="0"/>
        <pt x="383" y="546" on="0"/>
        <pt x="484" y="459" on="0"/>
        <pt x="484" y="396" on="1"/>
        <pt x="484" y="313" on="0"/>
        <pt x="326" y="208" on="0"/>
        <pt x="152" y="208" on="1"/>
        <pt x="152" y="162" on="0"/>
        <pt x="229" y="72" on="0"/>
        <pt x="380" y="72" on="0"/>
      </contour>
      <contour>
        <pt x="387" y="387" on="1"/>
        <pt x="387" y="417" on="0"/>
        <pt x="342" y="462" on="0"/>
        <pt x="301" y="462" on="1"/>
        <pt x="235" y="462" on="0"/>
        <pt x="150" y="363" on="0"/>
        <pt x="149" y="283" on="1"/>
        <pt x="387" y="283" on="0"/>
      </contour>
    </TTGlyph>
    <TTGlyph name="eight" xMin="56" yMin="-12" xMax="514" yMax="690">
      <contour>
        <pt x="178" y="-12" on="0"/>
        <pt x="56" y="86" on="0"/>
        <pt x="56" y="257" on="0"/>
        <pt x="156" y="357" on="1"/>
        <pt x="68" y="411" on="0"/>
        <pt x="68" y="507" on="1"/>
        <pt x="68" y="589" on="0"/>
        <pt x="192" y="690" on="0"/>
        <pt x="386" y="690" on="0"/>
        <pt x="502" y="602" on="0"/>
        <pt x="502" y="531" on="1"/>
        <pt x="502" y="446" on="0"/>
        <pt x="412" y="362" on="1"/>
        <pt x="514" y="300" on="0"/>
        <pt x="514" y="190" on="1"/>
        <pt x="514" y="100" on="0"/>
        <pt x="382" y="-12" on="0"/>
      </contour>
      <contour>
        <pt x="328" y="392" on="1"/>
        <pt x="351" y="417" on="0"/>
        <pt x="363" y="432" on="1"/>
        <pt x="395" y="472" on="0"/>
        <pt x="395" y="560" on="0"/>
        <pt x="342" y="620" on="0"/>
        <pt x="238" y="620" on="0"/>
        <pt x="173" y="554" on="0"/>
        <pt x="173" y="463" on="0"/>
        <pt x="266" y="400" on="0"/>
      </contour>
      <contour>
        <pt x="237" y="322" on="1"/>
        <pt x="211" y="294" on="0"/>
        <pt x="197" y="276" on="1"/>
        <pt x="160" y="230" on="0"/>
        <pt x="160" y="129" on="0"/>
        <pt x="220" y="61" on="0"/>
        <pt x="338" y="61" on="0"/>
        <pt x="409" y="136" on="0"/>
        <pt x="409" y="238" on="0"/>
        <pt x="309" y="312" on="0"/>
      </contour>
    </TTGlyph>
    <TTGlyph name="ellipsis" xMin="50" yMin="-11" xMax="622" yMax="115">
      <contour>
        <pt x="498" y="26" on="0"/>
        <pt x="498" y="78" on="0"/>
        <pt x="532" y="115" on="0"/>
        <pt x="588" y="115" on="0"/>
        <pt x="622" y="78" on="0"/>
        <pt x="622" y="26" on="0"/>
        <pt x="588" y="-11" on="0"/>
        <pt x="532" y="-11" on="0"/>
      </contour>
      <contour>
        <pt x="274" y="26" on="0"/>
        <pt x="274" y="78" on="0"/>
        <pt x="308" y="115" on="0"/>
        <pt x="364" y="115" on="0"/>
        <pt x="398" y="78" on="0"/>
        <pt x="398" y="26" on="0"/>
        <pt x="364" y="-11" on="0"/>
        <pt x="308" y="-11" on="0"/>
      </contour>
      <contour>
        <pt x="50" y="26" on="0"/>
        <pt x="50" y="78" on="0"/>
        <pt x="84" y="115" on="0"/>
        <pt x="140" y="115" on="0"/>
        <pt x="174" y="78" on="0"/>
        <pt x="174" y="26" on="0"/>
        <pt x="140" y="-11" on="0"/>
        <pt x="84" y="-11" on="0"/>
      </contour>
    </TTGlyph>
    <TTGlyph name="emdash" xMin="64" yMin="275" xMax="827" yMax="339">
      <contour>
        <pt x="64" y="339" on="1"/>
        <pt x="827" y="339" on="1"/>
        <pt x="816" y="275" on="1"/>
        <pt x="64" y="275" on="1"/>
      </contour>
    </TTGlyph>
    <TTGlyph name="endash" xMin="64" yMin="275" xMax="526" yMax="339">
      <contour>
        <pt x="64" y="339" on="1"/>
        <pt x="526" y="339" on="1"/>
        <pt x="515" y="275" on="1"/>
        <pt x="64" y="275" on="1"/>
      </contour>
    </TTGlyph>
    <TTGlyph name="equal" xMin="64" yMin="182" xMax="486" yMax="433">
      <contour>
        <pt x="472" y="349" on="1"/>
        <pt x="64" y="349" on="1"/>
        <pt x="64" y="433" on="1"/>
        <pt x="486" y="433" on="1"/>
      </contour>
      <contour>
        <pt x="64" y="266" on="1"/>
        <pt x="486" y="266" on="1"/>
        <pt x="472" y="182" on="1"/>
        <pt x="64" y="182" on="1"/>
      </contour>
    </TTGlyph>
    <TTGlyph name="eth" xMin="57" yMin="-12" xMax="504" yMax="769">
      <contour>
        <pt x="165" y="604" on="1"/>
        <pt x="243" y="651" on="1"/>
        <pt x="188" y="682" on="0"/>
        <pt x="113" y="682" on="1"/>
        <pt x="121" y="767" on="1"/>
        <pt x="236" y="767" on="0"/>
        <pt x="327" y="702" on="1"/>
        <pt x="436" y="769" on="1"/>
        <pt x="468" y="699" on="1"/>
        <pt x="386" y="649" on="1"/>
        <pt x="504" y="516" on="0"/>
        <pt x="504" y="277" on="1"/>
        <pt x="504" y="137" on="0"/>
        <pt x="382" y="-12" on="0"/>
        <pt x="168" y="-12" on="0"/>
        <pt x="57" y="135" on="0"/>
        <pt x="57" y="338" on="0"/>
        <pt x="174" y="456" on="0"/>
        <pt x="320" y="456" on="0"/>
        <pt x="386" y="417" on="1"/>
        <pt x="370" y="530" on="0"/>
        <pt x="307" y="600" on="1"/>
        <pt x="207" y="539" on="1"/>
      </contour>
      <contour>
        <pt x="165" y="159" on="0"/>
        <pt x="225" y="72" on="0"/>
        <pt x="311" y="72" on="0"/>
        <pt x="361" y="107" on="0"/>
        <pt x="373" y="139" on="1"/>
        <pt x="393" y="192" on="0"/>
        <pt x="393" y="275" on="1"/>
        <pt x="393" y="298" on="0"/>
        <pt x="391" y="334" on="1"/>
        <pt x="346" y="372" on="0"/>
        <pt x="274" y="372" on="1"/>
        <pt x="224" y="372" on="0"/>
        <pt x="165" y="305" on="0"/>
      </contour>
    </TTGlyph>
    <TTGlyph name="exclam" xMin="75" yMin="-5" xMax="216" yMax="742">
      <contour>
        <pt x="97" y="230" on="1"/>
        <pt x="86" y="728" on="1"/>
        <pt x="139" y="742" on="0"/>
        <pt x="174" y="742" on="1"/>
        <pt x="216" y="742" on="0"/>
        <pt x="216" y="696" on="1"/>
        <pt x="216" y="624" on="0"/>
        <pt x="190" y="309" on="0"/>
        <pt x="174" y="217" on="1"/>
      </contour>
      <contour>
        <pt x="206" y="33" on="0"/>
        <pt x="172" y="-5" on="0"/>
        <pt x="112" y="-5" on="0"/>
        <pt x="75" y="29" on="0"/>
        <pt x="75" y="61" on="1"/>
        <pt x="75" y="130" on="0"/>
        <pt x="147" y="130" on="1"/>
        <pt x="172" y="130" on="0"/>
        <pt x="206" y="96" on="0"/>
      </contour>
    </TTGlyph>
    <TTGlyph name="exclamdown" xMin="68" yMin="-106" xMax="209" yMax="641">
      <contour>
        <pt x="78" y="603" on="0"/>
        <pt x="112" y="641" on="0"/>
        <pt x="172" y="641" on="0"/>
        <pt x="209" y="607" on="0"/>
        <pt x="209" y="575" on="1"/>
        <pt x="209" y="506" on="0"/>
        <pt x="137" y="506" on="1"/>
        <pt x="112" y="506" on="0"/>
        <pt x="78" y="540" on="0"/>
      </contour>
      <contour>
        <pt x="187" y="406" on="1"/>
        <pt x="198" y="-92" on="1"/>
        <pt x="145" y="-106" on="0"/>
        <pt x="110" y="-106" on="1"/>
        <pt x="68" y="-106" on="0"/>
        <pt x="68" y="-60" on="1"/>
        <pt x="68" y="12" on="0"/>
        <pt x="94" y="327" on="0"/>
        <pt x="110" y="419" on="1"/>
      </contour>
    </TTGlyph>
    <TTGlyph name="f" xMin="23" yMin="-220" xMax="409" yMax="768">
      <contour>
        <pt x="120" y="-43" on="1"/>
        <pt x="120" y="443" on="1"/>
        <pt x="25" y="443" on="1"/>
        <pt x="25" y="502" on="1"/>
        <pt x="120" y="515" on="1"/>
        <pt x="120" y="593" on="1"/>
        <pt x="120" y="675" on="0"/>
        <pt x="205" y="768" on="0"/>
        <pt x="294" y="768" on="1"/>
        <pt x="344" y="768" on="0"/>
        <pt x="387" y="756" on="0"/>
        <pt x="398" y="753" on="1"/>
        <pt x="409" y="750" on="1"/>
        <pt x="393" y="677" on="1"/>
        <pt x="337" y="684" on="0"/>
        <pt x="277" y="684" on="0"/>
        <pt x="228" y="639" on="0"/>
        <pt x="228" y="591" on="1"/>
        <pt x="228" y="515" on="1"/>
        <pt x="348" y="515" on="1"/>
        <pt x="336" y="443" on="1"/>
        <pt x="228" y="443" on="1"/>
        <pt x="228" y="-45" on="1"/>
        <pt x="228" y="-127" on="0"/>
        <pt x="162" y="-220" on="0"/>
        <pt x="93" y="-220" on="1"/>
        <pt x="54" y="-220" on="0"/>
        <pt x="23" y="-209" on="1"/>
        <pt x="36" y="-133" on="1"/>
        <pt x="48" y="-136" on="0"/>
        <pt x="67" y="-136" on="1"/>
        <pt x="120" y="-136" on="0"/>
      </contour>
    </TTGlyph>
    <TTGlyph name="fi" xMin="23" yMin="-220" xMax="545" yMax="768">
      <contour>
        <pt x="429" y="0" on="1"/>
        <pt x="429" y="443" on="1"/>
        <pt x="228" y="443" on="1"/>
        <pt x="228" y="-45" on="1"/>
        <pt x="228" y="-127" on="0"/>
        <pt x="162" y="-220" on="0"/>
        <pt x="93" y="-220" on="1"/>
        <pt x="54" y="-220" on="0"/>
        <pt x="23" y="-209" on="1"/>
        <pt x="36" y="-133" on="1"/>
        <pt x="48" y="-136" on="0"/>
        <pt x="67" y="-136" on="1"/>
        <pt x="120" y="-136" on="0"/>
        <pt x="120" y="-43" on="1"/>
        <pt x="120" y="443" on="1"/>
        <pt x="25" y="443" on="1"/>
        <pt x="25" y="502" on="1"/>
        <pt x="120" y="515" on="1"/>
        <pt x="120" y="593" on="1"/>
        <pt x="120" y="675" on="0"/>
        <pt x="205" y="768" on="0"/>
        <pt x="294" y="768" on="1"/>
        <pt x="335" y="768" on="0"/>
        <pt x="368" y="761" on="1"/>
        <pt x="355" y="682" on="1"/>
        <pt x="331" y="684" on="0"/>
        <pt x="314" y="684" on="1"/>
        <pt x="277" y="684" on="0"/>
        <pt x="228" y="639" on="0"/>
        <pt x="228" y="591" on="1"/>
        <pt x="228" y="515" on="1"/>
        <pt x="429" y="515" on="1"/>
        <pt x="537" y="529" on="1"/>
        <pt x="537" y="0" on="1"/>
      </contour>
      <contour>
        <pt x="486" y="760" on="1"/>
        <pt x="511" y="760" on="0"/>
        <pt x="545" y="729" on="0"/>
        <pt x="545" y="698" on="1"/>
        <pt x="545" y="633" on="0"/>
        <pt x="477" y="633" on="1"/>
        <pt x="453" y="633" on="0"/>
        <pt x="421" y="664" on="0"/>
        <pt x="421" y="694" on="1"/>
        <pt x="421" y="760" on="0"/>
      </contour>
    </TTGlyph>
    <TTGlyph name="five" xMin="45" yMin="0" xMax="473" yMax="678">
      <contour>
        <pt x="45" y="36" on="1"/>
        <pt x="70" y="114" on="1"/>
        <pt x="90" y="105" on="0"/>
        <pt x="181" y="84" on="0"/>
        <pt x="220" y="84" on="1"/>
        <pt x="359" y="84" on="0"/>
        <pt x="359" y="213" on="1"/>
        <pt x="359" y="282" on="0"/>
        <pt x="293" y="344" on="0"/>
        <pt x="174" y="344" on="0"/>
        <pt x="134" y="330" on="1"/>
        <pt x="76" y="390" on="1"/>
        <pt x="116" y="678" on="1"/>
        <pt x="445" y="678" on="1"/>
        <pt x="445" y="594" on="1"/>
        <pt x="215" y="594" on="1"/>
        <pt x="194" y="424" on="1"/>
        <pt x="232" y="428" on="0"/>
        <pt x="254" y="428" on="1"/>
        <pt x="354" y="428" on="0"/>
        <pt x="473" y="314" on="0"/>
        <pt x="473" y="107" on="0"/>
        <pt x="341" y="0" on="0"/>
        <pt x="228" y="0" on="1"/>
        <pt x="179" y="0" on="0"/>
        <pt x="68" y="24" on="0"/>
      </contour>
    </TTGlyph>
    <TTGlyph name="fl" xMin="23" yMin="-220" xMax="661" yMax="768">
      <contour>
        <pt x="25" y="443" on="1"/>
        <pt x="25" y="502" on="1"/>
        <pt x="120" y="515" on="1"/>
        <pt x="120" y="593" on="1"/>
        <pt x="120" y="675" on="0"/>
        <pt x="205" y="768" on="0"/>
        <pt x="294" y="768" on="1"/>
        <pt x="416" y="768" on="0"/>
        <pt x="547" y="729" on="1"/>
        <pt x="547" y="165" on="1"/>
        <pt x="547" y="72" on="0"/>
        <pt x="600" y="72" on="1"/>
        <pt x="613" y="72" on="0"/>
        <pt x="648" y="79" on="1"/>
        <pt x="661" y="5" on="1"/>
        <pt x="660" y="5" on="0"/>
        <pt x="645" y="-1" on="0"/>
        <pt x="636" y="-4" on="1"/>
        <pt x="610" y="-12" on="0"/>
        <pt x="574" y="-12" on="1"/>
        <pt x="505" y="-12" on="0"/>
        <pt x="439" y="81" on="0"/>
        <pt x="439" y="163" on="1"/>
        <pt x="439" y="675" on="1"/>
        <pt x="376" y="684" on="0"/>
        <pt x="314" y="684" on="1"/>
        <pt x="277" y="684" on="0"/>
        <pt x="228" y="639" on="0"/>
        <pt x="228" y="591" on="1"/>
        <pt x="228" y="515" on="1"/>
        <pt x="348" y="515" on="1"/>
        <pt x="336" y="443" on="1"/>
        <pt x="228" y="443" on="1"/>
        <pt x="228" y="-45" on="1"/>
        <pt x="228" y="-127" on="0"/>
        <pt x="162" y="-220" on="0"/>
        <pt x="93" y="-220" on="1"/>
        <pt x="54" y="-220" on="0"/>
        <pt x="23" y="-209" on="1"/>
        <pt x="36" y="-133" on="1"/>
        <pt x="48" y="-136" on="0"/>
        <pt x="67" y="-136" on="1"/>
        <pt x="120" y="-136" on="0"/>
        <pt x="120" y="-43" on="1"/>
        <pt x="120" y="443" on="1"/>
      </contour>
    </TTGlyph>
    <TTGlyph name="florin" xMin="-6" yMin="-222" xMax="410" yMax="768">
      <contour>
        <pt x="17" y="388" on="1"/>
        <pt x="17" y="452" on="1"/>
        <pt x="120" y="475" on="1"/>
        <pt x="120" y="556" on="1"/>
        <pt x="120" y="664" on="0"/>
        <pt x="209" y="768" on="0"/>
        <pt x="304" y="768" on="1"/>
        <pt x="362" y="768" on="0"/>
        <pt x="410" y="750" on="1"/>
        <pt x="393" y="676" on="1"/>
        <pt x="369" y="684" on="0"/>
        <pt x="320" y="684" on="1"/>
        <pt x="230" y="684" on="0"/>
        <pt x="228" y="541" on="1"/>
        <pt x="228" y="472" on="1"/>
        <pt x="349" y="472" on="1"/>
        <pt x="349" y="388" on="1"/>
        <pt x="228" y="388" on="1"/>
        <pt x="228" y="-7" on="1"/>
        <pt x="228" y="-123" on="0"/>
        <pt x="136" y="-222" on="0"/>
        <pt x="34" y="-222" on="1"/>
        <pt x="18" y="-222" on="0"/>
        <pt x="-6" y="-218" on="1"/>
        <pt x="2" y="-138" on="1"/>
        <pt x="28" y="-138" on="1"/>
        <pt x="78" y="-138" on="0"/>
        <pt x="120" y="-73" on="0"/>
        <pt x="120" y="-5" on="1"/>
        <pt x="120" y="388" on="1"/>
      </contour>
    </TTGlyph>
    <TTGlyph name="four" xMin="28" yMin="0" xMax="530" yMax="684">
      <contour>
        <pt x="29" y="155" on="1"/>
        <pt x="28" y="219" on="1"/>
        <pt x="293" y="661" on="1"/>
        <pt x="307" y="684" on="0"/>
        <pt x="332" y="684" on="1"/>
        <pt x="444" y="670" on="1"/>
        <pt x="444" y="239" on="1"/>
        <pt x="530" y="239" on="1"/>
        <pt x="516" y="155" on="1"/>
        <pt x="444" y="155" on="1"/>
        <pt x="444" y="0" on="1"/>
        <pt x="337" y="0" on="1"/>
        <pt x="337" y="155" on="1"/>
      </contour>
      <contour>
        <pt x="340" y="572" on="1"/>
        <pt x="154" y="239" on="1"/>
        <pt x="340" y="239" on="1"/>
      </contour>
    </TTGlyph>
    <TTGlyph name="g" xMin="48" yMin="-220" xMax="504" yMax="546">
      <contour>
        <pt x="504" y="498" on="1"/>
        <pt x="504" y="32" on="1"/>
        <pt x="504" y="-90" on="0"/>
        <pt x="377" y="-220" on="0"/>
        <pt x="260" y="-220" on="1"/>
        <pt x="188" y="-220" on="0"/>
        <pt x="117" y="-200" on="0"/>
        <pt x="84" y="-189" on="0"/>
        <pt x="82" y="-189" on="1"/>
        <pt x="105" y="-108" on="1"/>
        <pt x="173" y="-133" on="0"/>
        <pt x="277" y="-133" on="0"/>
        <pt x="329" y="-121" on="0"/>
        <pt x="352" y="-103" on="1"/>
        <pt x="396" y="-69" on="0"/>
        <pt x="396" y="45" on="1"/>
        <pt x="396" y="61" on="1"/>
        <pt x="378" y="33" on="0"/>
        <pt x="304" y="-12" on="0"/>
        <pt x="252" y="-12" on="1"/>
        <pt x="166" y="-12" on="0"/>
        <pt x="48" y="118" on="0"/>
        <pt x="48" y="387" on="0"/>
        <pt x="176" y="546" on="0"/>
        <pt x="305" y="546" on="1"/>
        <pt x="406" y="546" on="0"/>
      </contour>
      <contour>
        <pt x="162" y="157" on="0"/>
        <pt x="222" y="72" on="0"/>
        <pt x="335" y="72" on="0"/>
        <pt x="396" y="152" on="0"/>
        <pt x="396" y="207" on="1"/>
        <pt x="396" y="449" on="1"/>
        <pt x="360" y="462" on="0"/>
        <pt x="312" y="462" on="1"/>
        <pt x="231" y="462" on="0"/>
        <pt x="162" y="367" on="0"/>
      </contour>
    </TTGlyph>
    <TTGlyph name="germandbls" xMin="100" yMin="-12" xMax="577" yMax="751">
      <contour>
        <pt x="260" y="24" on="1"/>
        <pt x="296" y="93" on="1"/>
        <pt x="310" y="85" on="0"/>
        <pt x="362" y="72" on="0"/>
        <pt x="378" y="72" on="1"/>
        <pt x="418" y="72" on="0"/>
        <pt x="463" y="121" on="0"/>
        <pt x="463" y="167" on="1"/>
        <pt x="463" y="207" on="0"/>
        <pt x="410" y="240" on="1"/>
        <pt x="346" y="277" on="0"/>
        <pt x="317" y="303" on="1"/>
        <pt x="257" y="355" on="0"/>
        <pt x="257" y="429" on="1"/>
        <pt x="257" y="451" on="1"/>
        <pt x="330" y="451" on="0"/>
        <pt x="395" y="497" on="0"/>
        <pt x="395" y="621" on="0"/>
        <pt x="357" y="667" on="0"/>
        <pt x="259" y="667" on="0"/>
        <pt x="208" y="612" on="0"/>
        <pt x="208" y="543" on="1"/>
        <pt x="208" y="0" on="1"/>
        <pt x="100" y="0" on="1"/>
        <pt x="100" y="543" on="1"/>
        <pt x="100" y="661" on="0"/>
        <pt x="166" y="708" on="1"/>
        <pt x="225" y="751" on="0"/>
        <pt x="400" y="751" on="0"/>
        <pt x="503" y="664" on="0"/>
        <pt x="503" y="574" on="1"/>
        <pt x="503" y="507" on="0"/>
        <pt x="436" y="411" on="0"/>
        <pt x="374" y="392" on="1"/>
        <pt x="390" y="372" on="0"/>
        <pt x="464" y="323" on="0"/>
        <pt x="527" y="284" on="0"/>
        <pt x="577" y="213" on="0"/>
        <pt x="577" y="170" on="1"/>
        <pt x="577" y="84" on="0"/>
        <pt x="471" y="-12" on="0"/>
        <pt x="378" y="-12" on="1"/>
        <pt x="316" y="-12" on="0"/>
      </contour>
    </TTGlyph>
    <TTGlyph name="grave" xMin="10" yMin="614" xMax="247" yMax="778">
      <contour>
        <pt x="223" y="614" on="1"/>
        <pt x="10" y="692" on="1"/>
        <pt x="10" y="712" on="0"/>
        <pt x="49" y="778" on="0"/>
        <pt x="85" y="778" on="0"/>
        <pt x="216" y="687" on="0"/>
        <pt x="247" y="656" on="1"/>
      </contour>
    </TTGlyph>
    <TTGlyph name="grave.cap" xMin="10" yMin="778" xMax="247" yMax="942">
      <contour>
        <pt x="223" y="778" on="1"/>
        <pt x="10" y="856" on="1"/>
        <pt x="10" y="876" on="0"/>
        <pt x="49" y="942" on="0"/>
        <pt x="85" y="942" on="0"/>
        <pt x="216" y="851" on="0"/>
        <pt x="247" y="820" on="1"/>
      </contour>
    </TTGlyph>
    <TTGlyph name="greater" xMin="60" yMin="56" xMax="477" yMax="544">
      <contour>
        <pt x="477" y="328" on="1"/>
        <pt x="445" y="249" on="1"/>
        <pt x="104" y="56" on="1"/>
        <pt x="60" y="129" on="1"/>
        <pt x="358" y="297" on="1"/>
        <pt x="62" y="464" on="1"/>
        <pt x="94" y="544" on="1"/>
      </contour>
    </TTGlyph>
    <TTGlyph name="guillemotleft" xMin="91" yMin="62" xMax="556" yMax="544">
      <contour>
        <pt x="395" y="309" on="1"/>
        <pt x="395" y="304" on="1"/>
        <pt x="556" y="105" on="1"/>
        <pt x="543" y="73" on="0"/>
        <pt x="513" y="62" on="1"/>
        <pt x="375" y="191" on="0"/>
        <pt x="298" y="276" on="0"/>
        <pt x="298" y="337" on="0"/>
        <pt x="343" y="384" on="1"/>
        <pt x="357" y="398" on="0"/>
        <pt x="513" y="544" on="1"/>
        <pt x="543" y="533" on="0"/>
        <pt x="556" y="501" on="1"/>
      </contour>
      <contour>
        <pt x="188" y="309" on="1"/>
        <pt x="188" y="304" on="1"/>
        <pt x="349" y="105" on="1"/>
        <pt x="336" y="73" on="0"/>
        <pt x="306" y="62" on="1"/>
        <pt x="168" y="191" on="0"/>
        <pt x="91" y="276" on="0"/>
        <pt x="91" y="337" on="0"/>
        <pt x="136" y="384" on="1"/>
        <pt x="150" y="398" on="0"/>
        <pt x="306" y="544" on="1"/>
        <pt x="336" y="533" on="0"/>
        <pt x="349" y="501" on="1"/>
      </contour>
    </TTGlyph>
    <TTGlyph name="guillemotright" xMin="40" yMin="62" xMax="505" yMax="544">
      <contour>
        <pt x="408" y="304" on="1"/>
        <pt x="408" y="309" on="1"/>
        <pt x="247" y="501" on="1"/>
        <pt x="260" y="533" on="0"/>
        <pt x="290" y="544" on="1"/>
        <pt x="449" y="396" on="0"/>
        <pt x="464" y="380" on="1"/>
        <pt x="505" y="336" on="0"/>
        <pt x="505" y="276" on="0"/>
        <pt x="428" y="191" on="0"/>
        <pt x="290" y="62" on="1"/>
        <pt x="260" y="73" on="0"/>
        <pt x="247" y="105" on="1"/>
      </contour>
      <contour>
        <pt x="201" y="304" on="1"/>
        <pt x="201" y="309" on="1"/>
        <pt x="40" y="501" on="1"/>
        <pt x="53" y="533" on="0"/>
        <pt x="83" y="544" on="1"/>
        <pt x="242" y="396" on="0"/>
        <pt x="257" y="380" on="1"/>
        <pt x="298" y="336" on="0"/>
        <pt x="298" y="276" on="0"/>
        <pt x="221" y="191" on="0"/>
        <pt x="83" y="62" on="1"/>
        <pt x="53" y="73" on="0"/>
        <pt x="40" y="105" on="1"/>
      </contour>
    </TTGlyph>
    <TTGlyph name="guilsinglleft" xMin="91" yMin="62" xMax="349" yMax="544">
      <contour>
        <pt x="188" y="309" on="1"/>
        <pt x="188" y="304" on="1"/>
        <pt x="349" y="105" on="1"/>
        <pt x="336" y="73" on="0"/>
        <pt x="306" y="62" on="1"/>
        <pt x="168" y="191" on="0"/>
        <pt x="91" y="276" on="0"/>
        <pt x="91" y="337" on="0"/>
        <pt x="136" y="384" on="1"/>
        <pt x="150" y="398" on="0"/>
        <pt x="306" y="544" on="1"/>
        <pt x="336" y="533" on="0"/>
        <pt x="349" y="501" on="1"/>
      </contour>
    </TTGlyph>
    <TTGlyph name="guilsinglright" xMin="40" yMin="62" xMax="298" yMax="544">
      <contour>
        <pt x="201" y="304" on="1"/>
        <pt x="201" y="309" on="1"/>
        <pt x="40" y="501" on="1"/>
        <pt x="53" y="533" on="0"/>
        <pt x="83" y="544" on="1"/>
        <pt x="242" y="396" on="0"/>
        <pt x="257" y="380" on="1"/>
        <pt x="298" y="336" on="0"/>
        <pt x="298" y="276" on="0"/>
        <pt x="221" y="191" on="0"/>
        <pt x="83" y="62" on="1"/>
        <pt x="53" y="73" on="0"/>
        <pt x="40" y="105" on="1"/>
      </contour>
    </TTGlyph>
    <TTGlyph name="h" xMin="100" yMin="0" xMax="545" yMax="768">
      <contour>
        <pt x="208" y="0" on="1"/>
        <pt x="100" y="0" on="1"/>
        <pt x="100" y="754" on="1"/>
        <pt x="208" y="768" on="1"/>
        <pt x="208" y="499" on="1"/>
        <pt x="287" y="546" on="0"/>
        <pt x="363" y="546" on="1"/>
        <pt x="545" y="546" on="0"/>
        <pt x="545" y="350" on="1"/>
        <pt x="545" y="0" on="1"/>
        <pt x="437" y="0" on="1"/>
        <pt x="437" y="330" on="1"/>
        <pt x="437" y="462" on="0"/>
        <pt x="332" y="462" on="1"/>
        <pt x="292" y="462" on="0"/>
        <pt x="220" y="432" on="0"/>
        <pt x="208" y="419" on="1"/>
      </contour>
    </TTGlyph>
    <TTGlyph name="hbar" xMin="25" yMin="0" xMax="545" yMax="768">
      <contour>
        <pt x="208" y="0" on="1"/>
        <pt x="100" y="0" on="1"/>
        <pt x="100" y="618" on="1"/>
        <pt x="25" y="618" on="1"/>
        <pt x="25" y="668" on="1"/>
        <pt x="100" y="678" on="1"/>
        <pt x="100" y="754" on="1"/>
        <pt x="208" y="768" on="1"/>
        <pt x="208" y="678" on="1"/>
        <pt x="333" y="678" on="1"/>
        <pt x="321" y="618" on="1"/>
        <pt x="208" y="618" on="1"/>
        <pt x="208" y="499" on="1"/>
        <pt x="287" y="546" on="0"/>
        <pt x="363" y="546" on="1"/>
        <pt x="545" y="546" on="0"/>
        <pt x="545" y="350" on="1"/>
        <pt x="545" y="0" on="1"/>
        <pt x="437" y="0" on="1"/>
        <pt x="437" y="330" on="1"/>
        <pt x="437" y="462" on="0"/>
        <pt x="332" y="462" on="1"/>
        <pt x="292" y="462" on="0"/>
        <pt x="220" y="432" on="0"/>
        <pt x="208" y="419" on="1"/>
      </contour>
    </TTGlyph>
    <TTGlyph name="hyphen" xMin="64" yMin="265" xMax="486" yMax="349">
      <contour>
        <pt x="64" y="349" on="1"/>
        <pt x="486" y="349" on="1"/>
        <pt x="472" y="265" on="1"/>
        <pt x="64" y="265" on="1"/>
      </contour>
    </TTGlyph>
    <TTGlyph name="i" xMin="92" yMin="0" xMax="216" yMax="760">
      <contour>
        <pt x="157" y="760" on="1"/>
        <pt x="182" y="760" on="0"/>
        <pt x="216" y="729" on="0"/>
        <pt x="216" y="698" on="1"/>
        <pt x="216" y="633" on="0"/>
        <pt x="148" y="633" on="1"/>
        <pt x="124" y="633" on="0"/>
        <pt x="92" y="664" on="0"/>
        <pt x="92" y="694" on="1"/>
        <pt x="92" y="760" on="0"/>
      </contour>
      <contour>
        <pt x="100" y="0" on="1"/>
        <pt x="100" y="527" on="1"/>
        <pt x="208" y="541" on="1"/>
        <pt x="208" y="0" on="1"/>
      </contour>
    </TTGlyph>
    <TTGlyph name="iacute" xMin="83" yMin="0" xMax="320" yMax="778">
      <contour>
        <pt x="320" y="692" on="1"/>
        <pt x="107" y="614" on="1"/>
        <pt x="83" y="656" on="1"/>
        <pt x="114" y="687" on="0"/>
        <pt x="245" y="778" on="0"/>
        <pt x="281" y="778" on="0"/>
        <pt x="320" y="712" on="0"/>
      </contour>
      <contour>
        <pt x="100" y="0" on="1"/>
        <pt x="100" y="527" on="1"/>
        <pt x="208" y="541" on="1"/>
        <pt x="208" y="0" on="1"/>
      </contour>
    </TTGlyph>
    <TTGlyph name="icircumflex" xMin="8" yMin="0" xMax="300" yMax="778">
      <contour>
        <pt x="154" y="691" on="1"/>
        <pt x="40" y="614" on="1"/>
        <pt x="8" y="654" on="1"/>
        <pt x="118" y="778" on="0"/>
        <pt x="190" y="778" on="0"/>
        <pt x="300" y="654" on="1"/>
        <pt x="269" y="614" on="1"/>
      </contour>
      <contour>
        <pt x="100" y="0" on="1"/>
        <pt x="100" y="527" on="1"/>
        <pt x="208" y="541" on="1"/>
        <pt x="208" y="0" on="1"/>
      </contour>
    </TTGlyph>
    <TTGlyph name="idieresis" xMin="0" yMin="0" xMax="308" yMax="750">
      <contour>
        <pt x="252" y="750" on="1"/>
        <pt x="276" y="750" on="0"/>
        <pt x="308" y="719" on="0"/>
        <pt x="308" y="688" on="1"/>
        <pt x="308" y="623" on="0"/>
        <pt x="241" y="623" on="1"/>
        <pt x="218" y="623" on="0"/>
        <pt x="188" y="654" on="0"/>
        <pt x="188" y="684" on="1"/>
        <pt x="188" y="750" on="0"/>
      </contour>
      <contour>
        <pt x="64" y="750" on="1"/>
        <pt x="88" y="750" on="0"/>
        <pt x="120" y="719" on="0"/>
        <pt x="120" y="688" on="1"/>
        <pt x="120" y="623" on="0"/>
        <pt x="53" y="623" on="1"/>
        <pt x="30" y="623" on="0"/>
        <pt x="0" y="654" on="0"/>
        <pt x="0" y="684" on="1"/>
        <pt x="0" y="750" on="0"/>
      </contour>
      <contour>
        <pt x="100" y="0" on="1"/>
        <pt x="100" y="527" on="1"/>
        <pt x="208" y="541" on="1"/>
        <pt x="208" y="0" on="1"/>
      </contour>
    </TTGlyph>
    <TTGlyph name="igrave" xMin="-20" yMin="0" xMax="217" yMax="778">
      <contour>
        <pt x="193" y="614" on="1"/>
        <pt x="-20" y="692" on="1"/>
        <pt x="-20" y="712" on="0"/>
        <pt x="19" y="778" on="0"/>
        <pt x="55" y="778" on="0"/>
        <pt x="186" y="687" on="0"/>
        <pt x="217" y="656" on="1"/>
      </contour>
      <contour>
        <pt x="100" y="0" on="1"/>
        <pt x="100" y="527" on="1"/>
        <pt x="208" y="541" on="1"/>
        <pt x="208" y="0" on="1"/>
      </contour>
    </TTGlyph>
    <TTGlyph name="ij" xMin="92" yMin="-220" xMax="522" yMax="760">
      <contour>
        <pt x="453" y="633" on="1"/>
        <pt x="430" y="633" on="0"/>
        <pt x="398" y="664" on="0"/>
        <pt x="398" y="724" on="0"/>
        <pt x="431" y="760" on="0"/>
        <pt x="489" y="760" on="0"/>
        <pt x="522" y="729" on="0"/>
        <pt x="522" y="698" on="1"/>
        <pt x="522" y="633" on="0"/>
      </contour>
      <contour>
        <pt x="157" y="760" on="1"/>
        <pt x="182" y="760" on="0"/>
        <pt x="216" y="729" on="0"/>
        <pt x="216" y="698" on="1"/>
        <pt x="216" y="633" on="0"/>
        <pt x="148" y="633" on="1"/>
        <pt x="124" y="633" on="0"/>
        <pt x="92" y="664" on="0"/>
        <pt x="92" y="694" on="1"/>
        <pt x="92" y="760" on="0"/>
      </contour>
      <contour>
        <pt x="408" y="-43" on="1"/>
        <pt x="408" y="527" on="1"/>
        <pt x="516" y="541" on="1"/>
        <pt x="516" y="-45" on="1"/>
        <pt x="516" y="-127" on="0"/>
        <pt x="431" y="-220" on="0"/>
        <pt x="342" y="-220" on="1"/>
        <pt x="300" y="-220" on="0"/>
        <pt x="269" y="-213" on="1"/>
        <pt x="276" y="-132" on="1"/>
        <pt x="289" y="-133" on="0"/>
        <pt x="360" y="-133" on="0"/>
        <pt x="408" y="-90" on="0"/>
      </contour>
      <contour>
        <pt x="100" y="0" on="1"/>
        <pt x="100" y="527" on="1"/>
        <pt x="208" y="541" on="1"/>
        <pt x="208" y="0" on="1"/>
      </contour>
    </TTGlyph>
    <TTGlyph name="itilde" xMin="-27" yMin="0" xMax="323" yMax="743">
      <contour>
        <pt x="13" y="638" on="1"/>
        <pt x="-27" y="664" on="1"/>
        <pt x="-16" y="695" on="0"/>
        <pt x="47" y="743" on="0"/>
        <pt x="120" y="743" on="0"/>
        <pt x="202" y="698" on="0"/>
        <pt x="242" y="698" on="0"/>
        <pt x="276" y="716" on="0"/>
        <pt x="283" y="726" on="1"/>
        <pt x="323" y="700" on="1"/>
        <pt x="312" y="669" on="0"/>
        <pt x="249" y="621" on="0"/>
        <pt x="176" y="621" on="0"/>
        <pt x="94" y="665" on="0"/>
        <pt x="54" y="665" on="0"/>
        <pt x="20" y="648" on="0"/>
      </contour>
      <contour>
        <pt x="100" y="0" on="1"/>
        <pt x="100" y="527" on="1"/>
        <pt x="208" y="541" on="1"/>
        <pt x="208" y="0" on="1"/>
      </contour>
    </TTGlyph>
    <TTGlyph name="j" xMin="-39" yMin="-220" xMax="214" yMax="760">
      <contour>
        <pt x="145" y="633" on="1"/>
        <pt x="122" y="633" on="0"/>
        <pt x="90" y="664" on="0"/>
        <pt x="90" y="724" on="0"/>
        <pt x="123" y="760" on="0"/>
        <pt x="181" y="760" on="0"/>
        <pt x="214" y="729" on="0"/>
        <pt x="214" y="698" on="1"/>
        <pt x="214" y="633" on="0"/>
      </contour>
      <contour>
        <pt x="100" y="-43" on="1"/>
        <pt x="100" y="527" on="1"/>
        <pt x="208" y="541" on="1"/>
        <pt x="208" y="-45" on="1"/>
        <pt x="208" y="-127" on="0"/>
        <pt x="123" y="-220" on="0"/>
        <pt x="34" y="-220" on="1"/>
        <pt x="-7" y="-220" on="0"/>
        <pt x="-39" y="-213" on="1"/>
        <pt x="-32" y="-132" on="1"/>
        <pt x="-19" y="-133" on="0"/>
        <pt x="52" y="-133" on="0"/>
        <pt x="100" y="-90" on="0"/>
      </contour>
    </TTGlyph>
    <TTGlyph name="jcircumflex" xMin="-39" yMin="-220" xMax="300" yMax="778">
      <contour>
        <pt x="154" y="691" on="1"/>
        <pt x="40" y="614" on="1"/>
        <pt x="8" y="654" on="1"/>
        <pt x="118" y="778" on="0"/>
        <pt x="190" y="778" on="0"/>
        <pt x="300" y="654" on="1"/>
        <pt x="269" y="614" on="1"/>
      </contour>
      <contour>
        <pt x="-39" y="-213" on="1"/>
        <pt x="-32" y="-132" on="1"/>
        <pt x="-19" y="-133" on="0"/>
        <pt x="52" y="-133" on="0"/>
        <pt x="100" y="-90" on="0"/>
        <pt x="100" y="-43" on="1"/>
        <pt x="100" y="527" on="1"/>
        <pt x="208" y="541" on="1"/>
        <pt x="208" y="-45" on="1"/>
        <pt x="208" y="-127" on="0"/>
        <pt x="123" y="-220" on="0"/>
        <pt x="34" y="-220" on="1"/>
        <pt x="-7" y="-220" on="0"/>
      </contour>
    </TTGlyph>
    <TTGlyph name="k" xMin="100" yMin="-7" xMax="570" yMax="768">
      <contour>
        <pt x="208" y="0" on="1"/>
        <pt x="100" y="0" on="1"/>
        <pt x="100" y="754" on="1"/>
        <pt x="208" y="768" on="1"/>
        <pt x="208" y="312" on="1"/>
        <pt x="437" y="540" on="1"/>
        <pt x="567" y="528" on="1"/>
        <pt x="340" y="315" on="1"/>
        <pt x="456" y="151" on="1"/>
        <pt x="511" y="74" on="0"/>
        <pt x="570" y="72" on="1"/>
        <pt x="570" y="-5" on="1"/>
        <pt x="562" y="-7" on="0"/>
        <pt x="537" y="-7" on="1"/>
        <pt x="436" y="-7" on="0"/>
        <pt x="370" y="90" on="1"/>
        <pt x="263" y="250" on="1"/>
        <pt x="208" y="199" on="1"/>
      </contour>
    </TTGlyph>
    <TTGlyph name="k.alt" xMin="100" yMin="-12" xMax="583" yMax="768">
      <contour>
        <pt x="208" y="0" on="1"/>
        <pt x="100" y="0" on="1"/>
        <pt x="100" y="754" on="1"/>
        <pt x="208" y="768" on="1"/>
        <pt x="208" y="413" on="1"/>
        <pt x="226" y="462" on="0"/>
        <pt x="336" y="546" on="0"/>
        <pt x="403" y="546" on="1"/>
        <pt x="459" y="546" on="0"/>
        <pt x="507" y="516" on="1"/>
        <pt x="532" y="501" on="0"/>
        <pt x="563" y="440" on="0"/>
        <pt x="563" y="368" on="0"/>
        <pt x="534" y="312" on="0"/>
        <pt x="514" y="294" on="1"/>
        <pt x="473" y="257" on="0"/>
        <pt x="438" y="242" on="1"/>
        <pt x="424" y="235" on="1"/>
        <pt x="424" y="183" on="0"/>
        <pt x="515" y="72" on="0"/>
        <pt x="570" y="72" on="1"/>
        <pt x="583" y="-2" on="1"/>
        <pt x="557" y="-12" on="0"/>
        <pt x="537" y="-12" on="1"/>
        <pt x="439" y="-12" on="0"/>
        <pt x="302" y="173" on="0"/>
        <pt x="300" y="280" on="1"/>
        <pt x="318" y="283" on="0"/>
        <pt x="378" y="306" on="0"/>
        <pt x="417" y="330" on="0"/>
        <pt x="449" y="373" on="0"/>
        <pt x="449" y="397" on="1"/>
        <pt x="449" y="462" on="0"/>
        <pt x="319" y="462" on="0"/>
        <pt x="208" y="297" on="0"/>
        <pt x="208" y="214" on="1"/>
      </contour>
    </TTGlyph>
    <TTGlyph name="kcommaaccent" xMin="100" yMin="-230" xMax="570" yMax="768">
      <contour>
        <pt x="208" y="0" on="1"/>
        <pt x="100" y="0" on="1"/>
        <pt x="100" y="754" on="1"/>
        <pt x="208" y="768" on="1"/>
        <pt x="208" y="312" on="1"/>
        <pt x="437" y="540" on="1"/>
        <pt x="567" y="528" on="1"/>
        <pt x="340" y="315" on="1"/>
        <pt x="456" y="151" on="1"/>
        <pt x="511" y="74" on="0"/>
        <pt x="570" y="72" on="1"/>
        <pt x="570" y="-5" on="1"/>
        <pt x="562" y="-7" on="0"/>
        <pt x="537" y="-7" on="1"/>
        <pt x="436" y="-7" on="0"/>
        <pt x="370" y="90" on="1"/>
        <pt x="263" y="250" on="1"/>
        <pt x="208" y="199" on="1"/>
      </contour>
      <contour>
        <pt x="292" y="-118" on="0"/>
        <pt x="273" y="-89" on="0"/>
        <pt x="273" y="-61" on="0"/>
        <pt x="301" y="-33" on="0"/>
        <pt x="350" y="-33" on="0"/>
        <pt x="376" y="-67" on="0"/>
        <pt x="376" y="-133" on="0"/>
        <pt x="322" y="-208" on="0"/>
        <pt x="276" y="-230" on="1"/>
        <pt x="252" y="-201" on="1"/>
        <pt x="292" y="-157" on="0"/>
        <pt x="292" y="-126" on="1"/>
      </contour>
    </TTGlyph>
    <TTGlyph name="kgreenlandic" xMin="100" yMin="-7" xMax="570" yMax="541">
      <contour>
        <pt x="208" y="0" on="1"/>
        <pt x="100" y="0" on="1"/>
        <pt x="100" y="527" on="1"/>
        <pt x="208" y="541" on="1"/>
        <pt x="208" y="322" on="1"/>
        <pt x="424" y="534" on="1"/>
        <pt x="570" y="534" on="1"/>
        <pt x="340" y="315" on="1"/>
        <pt x="456" y="151" on="1"/>
        <pt x="511" y="74" on="0"/>
        <pt x="570" y="72" on="1"/>
        <pt x="570" y="-5" on="1"/>
        <pt x="562" y="-7" on="0"/>
        <pt x="537" y="-7" on="1"/>
        <pt x="436" y="-7" on="0"/>
        <pt x="370" y="90" on="1"/>
        <pt x="263" y="250" on="1"/>
        <pt x="208" y="199" on="1"/>
      </contour>
    </TTGlyph>
    <TTGlyph name="l" xMin="100" yMin="-12" xMax="322" yMax="768">
      <contour>
        <pt x="100" y="754" on="1"/>
        <pt x="208" y="768" on="1"/>
        <pt x="208" y="165" on="1"/>
        <pt x="208" y="72" on="0"/>
        <pt x="261" y="72" on="1"/>
        <pt x="274" y="72" on="0"/>
        <pt x="309" y="79" on="1"/>
        <pt x="322" y="5" on="1"/>
        <pt x="321" y="5" on="0"/>
        <pt x="306" y="-1" on="0"/>
        <pt x="296" y="-4" on="1"/>
        <pt x="271" y="-12" on="0"/>
        <pt x="235" y="-12" on="1"/>
        <pt x="166" y="-12" on="0"/>
        <pt x="100" y="81" on="0"/>
        <pt x="100" y="163" on="1"/>
      </contour>
    </TTGlyph>
    <TTGlyph name="ldot" xMin="100" yMin="-12" xMax="408" yMax="768">
      <contour>
        <pt x="100" y="754" on="1"/>
        <pt x="208" y="768" on="1"/>
        <pt x="208" y="165" on="1"/>
        <pt x="208" y="72" on="0"/>
        <pt x="261" y="72" on="1"/>
        <pt x="274" y="72" on="0"/>
        <pt x="309" y="79" on="1"/>
        <pt x="322" y="5" on="1"/>
        <pt x="321" y="5" on="0"/>
        <pt x="306" y="-1" on="0"/>
        <pt x="296" y="-4" on="1"/>
        <pt x="271" y="-12" on="0"/>
        <pt x="235" y="-12" on="1"/>
        <pt x="166" y="-12" on="0"/>
        <pt x="100" y="81" on="0"/>
        <pt x="100" y="163" on="1"/>
      </contour>
      <contour>
        <pt x="349" y="492" on="1"/>
        <pt x="374" y="492" on="0"/>
        <pt x="408" y="461" on="0"/>
        <pt x="408" y="430" on="1"/>
        <pt x="408" y="365" on="0"/>
        <pt x="340" y="365" on="1"/>
        <pt x="316" y="365" on="0"/>
        <pt x="284" y="396" on="0"/>
        <pt x="284" y="426" on="1"/>
        <pt x="284" y="492" on="0"/>
      </contour>
    </TTGlyph>
    <TTGlyph name="less" xMin="50" yMin="56" xMax="467" yMax="544">
      <contour>
        <pt x="50" y="272" on="1"/>
        <pt x="82" y="351" on="1"/>
        <pt x="423" y="544" on="1"/>
        <pt x="467" y="471" on="1"/>
        <pt x="169" y="303" on="1"/>
        <pt x="465" y="136" on="1"/>
        <pt x="433" y="56" on="1"/>
      </contour>
    </TTGlyph>
    <TTGlyph name="logicalnot" xMin="64" yMin="120" xMax="626" yMax="409">
      <contour>
        <pt x="550" y="120" on="1"/>
        <pt x="550" y="334" on="1"/>
        <pt x="64" y="334" on="1"/>
        <pt x="64" y="409" on="1"/>
        <pt x="626" y="409" on="1"/>
        <pt x="626" y="120" on="1"/>
      </contour>
    </TTGlyph>
    <TTGlyph name="lslash" xMin="17" yMin="-12" xMax="322" yMax="768">
      <contour>
        <pt x="100" y="754" on="1"/>
        <pt x="208" y="768" on="1"/>
        <pt x="208" y="366" on="1"/>
        <pt x="298" y="413" on="1"/>
        <pt x="317" y="353" on="1"/>
        <pt x="208" y="295" on="1"/>
        <pt x="208" y="165" on="1"/>
        <pt x="208" y="72" on="0"/>
        <pt x="261" y="72" on="1"/>
        <pt x="274" y="72" on="0"/>
        <pt x="309" y="79" on="1"/>
        <pt x="322" y="5" on="1"/>
        <pt x="321" y="5" on="0"/>
        <pt x="306" y="-1" on="0"/>
        <pt x="296" y="-4" on="1"/>
        <pt x="271" y="-12" on="0"/>
        <pt x="235" y="-12" on="1"/>
        <pt x="166" y="-12" on="0"/>
        <pt x="100" y="81" on="0"/>
        <pt x="100" y="163" on="1"/>
        <pt x="100" y="238" on="1"/>
        <pt x="46" y="210" on="1"/>
        <pt x="17" y="266" on="1"/>
        <pt x="100" y="309" on="1"/>
      </contour>
    </TTGlyph>
    <TTGlyph name="m" xMin="82" yMin="0" xMax="840" yMax="546">
      <contour>
        <pt x="100" y="364" on="1"/>
        <pt x="100" y="454" on="0"/>
        <pt x="82" y="526" on="1"/>
        <pt x="166" y="537" on="1"/>
        <pt x="185" y="487" on="1"/>
        <pt x="270" y="546" on="0"/>
        <pt x="449" y="546" on="0"/>
        <pt x="491" y="488" on="1"/>
        <pt x="572" y="546" on="0"/>
        <pt x="757" y="546" on="0"/>
        <pt x="840" y="448" on="0"/>
        <pt x="840" y="350" on="1"/>
        <pt x="840" y="0" on="1"/>
        <pt x="732" y="0" on="1"/>
        <pt x="732" y="330" on="1"/>
        <pt x="732" y="427" on="0"/>
        <pt x="686" y="451" on="1"/>
        <pt x="666" y="462" on="0"/>
        <pt x="635" y="462" on="1"/>
        <pt x="583" y="462" on="0"/>
        <pt x="519" y="417" on="1"/>
        <pt x="525" y="386" on="0"/>
        <pt x="525" y="350" on="1"/>
        <pt x="525" y="0" on="1"/>
        <pt x="417" y="0" on="1"/>
        <pt x="417" y="330" on="1"/>
        <pt x="417" y="392" on="0"/>
        <pt x="379" y="462" on="0"/>
        <pt x="263" y="462" on="0"/>
        <pt x="208" y="419" on="1"/>
        <pt x="208" y="0" on="1"/>
        <pt x="100" y="0" on="1"/>
      </contour>
    </TTGlyph>
    <TTGlyph name="macron" xMin="10" yMin="644" xMax="347" yMax="728">
      <contour>
        <pt x="10" y="644" on="1"/>
        <pt x="10" y="728" on="1"/>
        <pt x="347" y="728" on="1"/>
        <pt x="333" y="644" on="1"/>
      </contour>
    </TTGlyph>
    <TTGlyph name="mu" xMin="100" yMin="-212" xMax="584" yMax="541">
      <contour>
        <pt x="533" y="541" on="1"/>
        <pt x="533" y="125" on="1"/>
        <pt x="533" y="89" on="0"/>
        <pt x="550" y="69" on="0"/>
        <pt x="580" y="69" on="1"/>
        <pt x="584" y="6" on="1"/>
        <pt x="559" y="-3" on="0"/>
        <pt x="531" y="-3" on="1"/>
        <pt x="470" y="-3" on="0"/>
        <pt x="445" y="45" on="1"/>
        <pt x="380" y="-12" on="0"/>
        <pt x="282" y="-12" on="1"/>
        <pt x="236" y="-12" on="0"/>
        <pt x="199" y="1" on="1"/>
        <pt x="199" y="-212" on="1"/>
        <pt x="100" y="-212" on="1"/>
        <pt x="100" y="527" on="1"/>
        <pt x="208" y="541" on="1"/>
        <pt x="208" y="204" on="1"/>
        <pt x="208" y="72" on="0"/>
        <pt x="313" y="72" on="1"/>
        <pt x="385" y="72" on="0"/>
        <pt x="425" y="114" on="1"/>
        <pt x="425" y="527" on="1"/>
      </contour>
    </TTGlyph>
    <TTGlyph name="multiply" xMin="62" yMin="92" xMax="476" yMax="518">
      <contour>
        <pt x="62" y="450" on="1"/>
        <pt x="125" y="514" on="1"/>
        <pt x="271" y="359" on="1"/>
        <pt x="420" y="518" on="1"/>
        <pt x="476" y="443" on="1"/>
        <pt x="336" y="303" on="1"/>
        <pt x="474" y="165" on="1"/>
        <pt x="420" y="92" on="1"/>
        <pt x="272" y="250" on="1"/>
        <pt x="127" y="95" on="1"/>
        <pt x="62" y="160" on="1"/>
        <pt x="207" y="305" on="1"/>
      </contour>
    </TTGlyph>
    <TTGlyph name="n" xMin="82" yMin="0" xMax="539" yMax="546">
      <contour>
        <pt x="100" y="364" on="1"/>
        <pt x="100" y="454" on="0"/>
        <pt x="82" y="526" on="1"/>
        <pt x="166" y="537" on="1"/>
        <pt x="185" y="487" on="1"/>
        <pt x="269" y="546" on="0"/>
        <pt x="357" y="546" on="1"/>
        <pt x="539" y="546" on="0"/>
        <pt x="539" y="350" on="1"/>
        <pt x="539" y="0" on="1"/>
        <pt x="431" y="0" on="1"/>
        <pt x="431" y="330" on="1"/>
        <pt x="431" y="462" on="0"/>
        <pt x="326" y="462" on="1"/>
        <pt x="265" y="462" on="0"/>
        <pt x="208" y="419" on="1"/>
        <pt x="208" y="0" on="1"/>
        <pt x="100" y="0" on="1"/>
      </contour>
    </TTGlyph>
    <TTGlyph name="nacute" xMin="82" yMin="0" xMax="539" yMax="778">
      <contour>
        <pt x="470" y="692" on="1"/>
        <pt x="257" y="614" on="1"/>
        <pt x="233" y="656" on="1"/>
        <pt x="264" y="687" on="0"/>
        <pt x="395" y="778" on="0"/>
        <pt x="431" y="778" on="0"/>
        <pt x="470" y="712" on="0"/>
      </contour>
      <contour>
        <pt x="100" y="364" on="1"/>
        <pt x="100" y="454" on="0"/>
        <pt x="82" y="526" on="1"/>
        <pt x="166" y="537" on="1"/>
        <pt x="185" y="487" on="1"/>
        <pt x="269" y="546" on="0"/>
        <pt x="357" y="546" on="1"/>
        <pt x="539" y="546" on="0"/>
        <pt x="539" y="350" on="1"/>
        <pt x="539" y="0" on="1"/>
        <pt x="431" y="0" on="1"/>
        <pt x="431" y="330" on="1"/>
        <pt x="431" y="462" on="0"/>
        <pt x="326" y="462" on="1"/>
        <pt x="265" y="462" on="0"/>
        <pt x="208" y="419" on="1"/>
        <pt x="208" y="0" on="1"/>
        <pt x="100" y="0" on="1"/>
      </contour>
    </TTGlyph>
    <TTGlyph name="nine" xMin="46" yMin="-12" xMax="493" yMax="689">
      <contour>
        <pt x="130" y="-12" on="1"/>
        <pt x="122" y="73" on="1"/>
        <pt x="190" y="73" on="0"/>
        <pt x="290" y="115" on="0"/>
        <pt x="317" y="150" on="1"/>
        <pt x="362" y="207" on="0"/>
        <pt x="375" y="274" on="1"/>
        <pt x="309" y="235" on="0"/>
        <pt x="163" y="235" on="0"/>
        <pt x="46" y="350" on="0"/>
        <pt x="46" y="547" on="0"/>
        <pt x="157" y="689" on="0"/>
        <pt x="371" y="689" on="0"/>
        <pt x="493" y="544" on="0"/>
        <pt x="493" y="408" on="1"/>
        <pt x="493" y="206" on="0"/>
        <pt x="285" y="-12" on="0"/>
      </contour>
      <contour>
        <pt x="350" y="571" on="0"/>
        <pt x="300" y="605" on="0"/>
        <pt x="214" y="605" on="0"/>
        <pt x="154" y="522" on="0"/>
        <pt x="154" y="383" on="0"/>
        <pt x="212" y="319" on="0"/>
        <pt x="263" y="319" on="1"/>
        <pt x="335" y="319" on="0"/>
        <pt x="380" y="357" on="1"/>
        <pt x="382" y="389" on="0"/>
        <pt x="382" y="449" on="0"/>
        <pt x="374" y="509" on="0"/>
      </contour>
    </TTGlyph>
    <TTGlyph name="ntilde" xMin="82" yMin="0" xMax="539" yMax="743">
      <contour>
        <pt x="187" y="638" on="1"/>
        <pt x="147" y="664" on="1"/>
        <pt x="158" y="695" on="0"/>
        <pt x="221" y="743" on="0"/>
        <pt x="294" y="743" on="0"/>
        <pt x="376" y="698" on="0"/>
        <pt x="416" y="698" on="0"/>
        <pt x="450" y="716" on="0"/>
        <pt x="457" y="726" on="1"/>
        <pt x="497" y="700" on="1"/>
        <pt x="486" y="669" on="0"/>
        <pt x="423" y="621" on="0"/>
        <pt x="350" y="621" on="0"/>
        <pt x="268" y="665" on="0"/>
        <pt x="228" y="665" on="0"/>
        <pt x="194" y="648" on="0"/>
      </contour>
      <contour>
        <pt x="100" y="364" on="1"/>
        <pt x="100" y="454" on="0"/>
        <pt x="82" y="526" on="1"/>
        <pt x="166" y="537" on="1"/>
        <pt x="185" y="487" on="1"/>
        <pt x="269" y="546" on="0"/>
        <pt x="357" y="546" on="1"/>
        <pt x="539" y="546" on="0"/>
        <pt x="539" y="350" on="1"/>
        <pt x="539" y="0" on="1"/>
        <pt x="431" y="0" on="1"/>
        <pt x="431" y="330" on="1"/>
        <pt x="431" y="462" on="0"/>
        <pt x="326" y="462" on="1"/>
        <pt x="265" y="462" on="0"/>
        <pt x="208" y="419" on="1"/>
        <pt x="208" y="0" on="1"/>
        <pt x="100" y="0" on="1"/>
      </contour>
    </TTGlyph>
    <TTGlyph name="numbersign" xMin="64" yMin="-6" xMax="688" yMax="685">
      <contour>
        <pt x="674" y="411" on="1"/>
        <pt x="532" y="411" on="1"/>
        <pt x="507" y="268" on="1"/>
        <pt x="688" y="268" on="1"/>
        <pt x="674" y="190" on="1"/>
        <pt x="493" y="190" on="1"/>
        <pt x="460" y="0" on="1"/>
        <pt x="371" y="0" on="1"/>
        <pt x="405" y="190" on="1"/>
        <pt x="280" y="190" on="1"/>
        <pt x="244" y="-6" on="1"/>
        <pt x="161" y="6" on="1"/>
        <pt x="193" y="190" on="1"/>
        <pt x="64" y="190" on="1"/>
        <pt x="64" y="268" on="1"/>
        <pt x="207" y="268" on="1"/>
        <pt x="232" y="411" on="1"/>
        <pt x="64" y="411" on="1"/>
        <pt x="64" y="489" on="1"/>
        <pt x="246" y="489" on="1"/>
        <pt x="280" y="679" on="1"/>
        <pt x="369" y="679" on="1"/>
        <pt x="334" y="489" on="1"/>
        <pt x="460" y="489" on="1"/>
        <pt x="496" y="685" on="1"/>
        <pt x="579" y="673" on="1"/>
        <pt x="546" y="489" on="1"/>
        <pt x="688" y="489" on="1"/>
      </contour>
      <contour>
        <pt x="320" y="411" on="1"/>
        <pt x="294" y="268" on="1"/>
        <pt x="420" y="268" on="1"/>
        <pt x="446" y="411" on="1"/>
      </contour>
    </TTGlyph>
    <TTGlyph name="o" xMin="48" yMin="-12" xMax="536" yMax="546">
      <contour>
        <pt x="310" y="546" on="1"/>
        <pt x="408" y="546" on="0"/>
        <pt x="536" y="409" on="0"/>
        <pt x="536" y="143" on="0"/>
        <pt x="405" y="-12" on="0"/>
        <pt x="274" y="-12" on="1"/>
        <pt x="176" y="-12" on="0"/>
        <pt x="48" y="127" on="0"/>
        <pt x="48" y="393" on="0"/>
        <pt x="179" y="546" on="0"/>
      </contour>
      <contour>
        <pt x="162" y="159" on="0"/>
        <pt x="229" y="72" on="0"/>
        <pt x="363" y="72" on="0"/>
        <pt x="422" y="176" on="0"/>
        <pt x="422" y="377" on="0"/>
        <pt x="355" y="462" on="0"/>
        <pt x="296" y="462" on="1"/>
        <pt x="221" y="462" on="0"/>
        <pt x="162" y="360" on="0"/>
      </contour>
    </TTGlyph>
    <TTGlyph name="oacute" xMin="48" yMin="-12" xMax="536" yMax="778">
      <contour>
        <pt x="452" y="692" on="1"/>
        <pt x="239" y="614" on="1"/>
        <pt x="215" y="656" on="1"/>
        <pt x="246" y="687" on="0"/>
        <pt x="377" y="778" on="0"/>
        <pt x="413" y="778" on="0"/>
        <pt x="452" y="712" on="0"/>
      </contour>
      <contour>
        <pt x="310" y="546" on="1"/>
        <pt x="408" y="546" on="0"/>
        <pt x="536" y="409" on="0"/>
        <pt x="536" y="143" on="0"/>
        <pt x="405" y="-12" on="0"/>
        <pt x="274" y="-12" on="1"/>
        <pt x="176" y="-12" on="0"/>
        <pt x="48" y="127" on="0"/>
        <pt x="48" y="393" on="0"/>
        <pt x="179" y="546" on="0"/>
      </contour>
      <contour>
        <pt x="162" y="159" on="0"/>
        <pt x="229" y="72" on="0"/>
        <pt x="363" y="72" on="0"/>
        <pt x="422" y="176" on="0"/>
        <pt x="422" y="377" on="0"/>
        <pt x="355" y="462" on="0"/>
        <pt x="296" y="462" on="1"/>
        <pt x="221" y="462" on="0"/>
        <pt x="162" y="360" on="0"/>
      </contour>
    </TTGlyph>
    <TTGlyph name="ocircumflex" xMin="48" yMin="-12" xMax="536" yMax="778">
      <contour>
        <pt x="292" y="691" on="1"/>
        <pt x="178" y="614" on="1"/>
        <pt x="146" y="654" on="1"/>
        <pt x="256" y="778" on="0"/>
        <pt x="328" y="778" on="0"/>
        <pt x="438" y="654" on="1"/>
        <pt x="407" y="614" on="1"/>
      </contour>
      <contour>
        <pt x="310" y="546" on="1"/>
        <pt x="408" y="546" on="0"/>
        <pt x="536" y="409" on="0"/>
        <pt x="536" y="143" on="0"/>
        <pt x="405" y="-12" on="0"/>
        <pt x="274" y="-12" on="1"/>
        <pt x="176" y="-12" on="0"/>
        <pt x="48" y="127" on="0"/>
        <pt x="48" y="393" on="0"/>
        <pt x="179" y="546" on="0"/>
      </contour>
      <contour>
        <pt x="162" y="159" on="0"/>
        <pt x="229" y="72" on="0"/>
        <pt x="363" y="72" on="0"/>
        <pt x="422" y="176" on="0"/>
        <pt x="422" y="377" on="0"/>
        <pt x="355" y="462" on="0"/>
        <pt x="296" y="462" on="1"/>
        <pt x="221" y="462" on="0"/>
        <pt x="162" y="360" on="0"/>
      </contour>
    </TTGlyph>
    <TTGlyph name="odieresis" xMin="48" yMin="-12" xMax="536" yMax="750">
      <contour>
        <pt x="390" y="750" on="1"/>
        <pt x="414" y="750" on="0"/>
        <pt x="446" y="719" on="0"/>
        <pt x="446" y="688" on="1"/>
        <pt x="446" y="623" on="0"/>
        <pt x="379" y="623" on="1"/>
        <pt x="356" y="623" on="0"/>
        <pt x="326" y="654" on="0"/>
        <pt x="326" y="684" on="1"/>
        <pt x="326" y="750" on="0"/>
      </contour>
      <contour>
        <pt x="202" y="750" on="1"/>
        <pt x="226" y="750" on="0"/>
        <pt x="258" y="719" on="0"/>
        <pt x="258" y="688" on="1"/>
        <pt x="258" y="623" on="0"/>
        <pt x="191" y="623" on="1"/>
        <pt x="168" y="623" on="0"/>
        <pt x="138" y="654" on="0"/>
        <pt x="138" y="684" on="1"/>
        <pt x="138" y="750" on="0"/>
      </contour>
      <contour>
        <pt x="310" y="546" on="1"/>
        <pt x="408" y="546" on="0"/>
        <pt x="536" y="409" on="0"/>
        <pt x="536" y="143" on="0"/>
        <pt x="405" y="-12" on="0"/>
        <pt x="274" y="-12" on="1"/>
        <pt x="176" y="-12" on="0"/>
        <pt x="48" y="127" on="0"/>
        <pt x="48" y="393" on="0"/>
        <pt x="179" y="546" on="0"/>
      </contour>
      <contour>
        <pt x="162" y="159" on="0"/>
        <pt x="229" y="72" on="0"/>
        <pt x="363" y="72" on="0"/>
        <pt x="422" y="176" on="0"/>
        <pt x="422" y="377" on="0"/>
        <pt x="355" y="462" on="0"/>
        <pt x="296" y="462" on="1"/>
        <pt x="221" y="462" on="0"/>
        <pt x="162" y="360" on="0"/>
      </contour>
    </TTGlyph>
    <TTGlyph name="oe" xMin="48" yMin="-12" xMax="867" yMax="546">
      <contour>
        <pt x="830" y="114" on="1"/>
        <pt x="867" y="46" on="1"/>
        <pt x="850" y="30" on="0"/>
        <pt x="740" y="-12" on="0"/>
        <pt x="677" y="-12" on="1"/>
        <pt x="544" y="-12" on="0"/>
        <pt x="479" y="76" on="1"/>
        <pt x="413" y="-12" on="0"/>
        <pt x="274" y="-12" on="1"/>
        <pt x="176" y="-12" on="0"/>
        <pt x="48" y="127" on="0"/>
        <pt x="48" y="393" on="0"/>
        <pt x="179" y="546" on="0"/>
        <pt x="427" y="546" on="0"/>
        <pt x="489" y="455" on="1"/>
        <pt x="526" y="500" on="0"/>
        <pt x="628" y="546" on="0"/>
        <pt x="679" y="546" on="1"/>
        <pt x="763" y="546" on="0"/>
        <pt x="864" y="459" on="0"/>
        <pt x="864" y="396" on="1"/>
        <pt x="864" y="313" on="0"/>
        <pt x="706" y="208" on="0"/>
        <pt x="532" y="208" on="1"/>
        <pt x="532" y="162" on="0"/>
        <pt x="609" y="72" on="0"/>
        <pt x="760" y="72" on="0"/>
      </contour>
      <contour>
        <pt x="767" y="387" on="1"/>
        <pt x="767" y="417" on="0"/>
        <pt x="722" y="462" on="0"/>
        <pt x="681" y="462" on="1"/>
        <pt x="615" y="462" on="0"/>
        <pt x="530" y="363" on="0"/>
        <pt x="529" y="283" on="1"/>
        <pt x="767" y="283" on="0"/>
      </contour>
      <contour>
        <pt x="162" y="159" on="0"/>
        <pt x="229" y="72" on="0"/>
        <pt x="363" y="72" on="0"/>
        <pt x="422" y="176" on="0"/>
        <pt x="422" y="377" on="0"/>
        <pt x="355" y="462" on="0"/>
        <pt x="296" y="462" on="1"/>
        <pt x="221" y="462" on="0"/>
        <pt x="162" y="360" on="0"/>
      </contour>
    </TTGlyph>
    <TTGlyph name="ograve" xMin="48" yMin="-12" xMax="536" yMax="778">
      <contour>
        <pt x="341" y="614" on="1"/>
        <pt x="128" y="692" on="1"/>
        <pt x="128" y="712" on="0"/>
        <pt x="167" y="778" on="0"/>
        <pt x="203" y="778" on="0"/>
        <pt x="334" y="687" on="0"/>
        <pt x="365" y="656" on="1"/>
      </contour>
      <contour>
        <pt x="310" y="546" on="1"/>
        <pt x="408" y="546" on="0"/>
        <pt x="536" y="409" on="0"/>
        <pt x="536" y="143" on="0"/>
        <pt x="405" y="-12" on="0"/>
        <pt x="274" y="-12" on="1"/>
        <pt x="176" y="-12" on="0"/>
        <pt x="48" y="127" on="0"/>
        <pt x="48" y="393" on="0"/>
        <pt x="179" y="546" on="0"/>
      </contour>
      <contour>
        <pt x="162" y="159" on="0"/>
        <pt x="229" y="72" on="0"/>
        <pt x="363" y="72" on="0"/>
        <pt x="422" y="176" on="0"/>
        <pt x="422" y="377" on="0"/>
        <pt x="355" y="462" on="0"/>
        <pt x="296" y="462" on="1"/>
        <pt x="221" y="462" on="0"/>
        <pt x="162" y="360" on="0"/>
      </contour>
    </TTGlyph>
    <TTGlyph name="one" xMin="25" yMin="0" xMax="380" yMax="684">
      <contour>
        <pt x="61" y="0" on="1"/>
        <pt x="61" y="64" on="1"/>
        <pt x="166" y="84" on="1"/>
        <pt x="166" y="589" on="1"/>
        <pt x="68" y="527" on="1"/>
        <pt x="25" y="604" on="1"/>
        <pt x="123" y="666" on="1"/>
        <pt x="150" y="684" on="0"/>
        <pt x="170" y="684" on="1"/>
        <pt x="274" y="673" on="1"/>
        <pt x="274" y="84" on="1"/>
        <pt x="380" y="84" on="1"/>
        <pt x="366" y="0" on="1"/>
      </contour>
    </TTGlyph>
    <TTGlyph name="onehalf" xMin="37" yMin="-12" xMax="667" yMax="729">
      <contour>
        <pt x="199" y="-12" on="1"/>
        <pt x="130" y="16" on="1"/>
        <pt x="480" y="729" on="1"/>
        <pt x="549" y="700" on="1"/>
      </contour>
      <contour>
        <pt x="196" y="720" on="1"/>
        <pt x="196" y="448" on="1"/>
        <pt x="259" y="448" on="1"/>
        <pt x="245" y="379" on="1"/>
        <pt x="56" y="379" on="1"/>
        <pt x="56" y="437" on="1"/>
        <pt x="116" y="446" on="1"/>
        <pt x="116" y="647" on="1"/>
        <pt x="68" y="622" on="1"/>
        <pt x="37" y="684" on="1"/>
        <pt x="96" y="715" on="1"/>
        <pt x="118" y="726" on="0"/>
        <pt x="140" y="726" on="0"/>
      </contour>
      <contour>
        <pt x="659" y="0" on="1"/>
        <pt x="417" y="0" on="1"/>
        <pt x="417" y="40" on="1"/>
        <pt x="417" y="69" on="0"/>
        <pt x="439" y="101" on="0"/>
        <pt x="449" y="116" on="0"/>
        <pt x="478" y="138" on="0"/>
        <pt x="488" y="145" on="0"/>
        <pt x="523" y="168" on="0"/>
        <pt x="526" y="170" on="1"/>
        <pt x="584" y="208" on="0"/>
        <pt x="584" y="241" on="1"/>
        <pt x="584" y="281" on="0"/>
        <pt x="488" y="281" on="0"/>
        <pt x="442" y="258" on="1"/>
        <pt x="418" y="317" on="1"/>
        <pt x="473" y="350" on="0"/>
        <pt x="605" y="350" on="0"/>
        <pt x="667" y="286" on="0"/>
        <pt x="667" y="206" on="0"/>
        <pt x="626" y="157" on="0"/>
        <pt x="520" y="85" on="0"/>
        <pt x="507" y="69" on="1"/>
        <pt x="659" y="69" on="1"/>
      </contour>
    </TTGlyph>
    <TTGlyph name="onequarter" xMin="37" yMin="-12" xMax="654" yMax="729">
      <contour>
        <pt x="199" y="-12" on="1"/>
        <pt x="130" y="16" on="1"/>
        <pt x="480" y="729" on="1"/>
        <pt x="549" y="700" on="1"/>
      </contour>
      <contour>
        <pt x="196" y="720" on="1"/>
        <pt x="196" y="448" on="1"/>
        <pt x="259" y="448" on="1"/>
        <pt x="245" y="379" on="1"/>
        <pt x="56" y="379" on="1"/>
        <pt x="56" y="437" on="1"/>
        <pt x="116" y="446" on="1"/>
        <pt x="116" y="647" on="1"/>
        <pt x="68" y="622" on="1"/>
        <pt x="37" y="684" on="1"/>
        <pt x="96" y="715" on="1"/>
        <pt x="118" y="726" on="0"/>
        <pt x="140" y="726" on="0"/>
      </contour>
      <contour>
        <pt x="355" y="72" on="1"/>
        <pt x="354" y="122" on="1"/>
        <pt x="499" y="329" on="1"/>
        <pt x="512" y="347" on="0"/>
        <pt x="529" y="347" on="1"/>
        <pt x="602" y="340" on="1"/>
        <pt x="602" y="141" on="1"/>
        <pt x="654" y="141" on="1"/>
        <pt x="640" y="72" on="1"/>
        <pt x="602" y="72" on="1"/>
        <pt x="602" y="0" on="1"/>
        <pt x="523" y="0" on="1"/>
        <pt x="523" y="72" on="1"/>
      </contour>
      <contour>
        <pt x="524" y="246" on="1"/>
        <pt x="458" y="141" on="1"/>
        <pt x="524" y="141" on="1"/>
      </contour>
    </TTGlyph>
    <TTGlyph name="onesuperior" xMin="37" yMin="466" xMax="259" yMax="813">
      <contour>
        <pt x="196" y="807" on="1"/>
        <pt x="196" y="535" on="1"/>
        <pt x="259" y="535" on="1"/>
        <pt x="245" y="466" on="1"/>
        <pt x="56" y="466" on="1"/>
        <pt x="56" y="524" on="1"/>
        <pt x="116" y="533" on="1"/>
        <pt x="116" y="734" on="1"/>
        <pt x="68" y="709" on="1"/>
        <pt x="37" y="771" on="1"/>
        <pt x="96" y="802" on="1"/>
        <pt x="118" y="813" on="0"/>
        <pt x="140" y="813" on="0"/>
      </contour>
    </TTGlyph>
    <TTGlyph name="ordfeminine" xMin="41" yMin="372" xMax="409" yMax="722">
      <contour>
        <pt x="373" y="693" on="1"/>
        <pt x="373" y="467" on="1"/>
        <pt x="373" y="457" on="0"/>
        <pt x="383" y="450" on="0"/>
        <pt x="404" y="450" on="1"/>
        <pt x="409" y="385" on="1"/>
        <pt x="377" y="377" on="0"/>
        <pt x="363" y="377" on="1"/>
        <pt x="314" y="377" on="0"/>
        <pt x="296" y="413" on="1"/>
        <pt x="255" y="372" on="0"/>
        <pt x="115" y="372" on="0"/>
        <pt x="41" y="469" on="0"/>
        <pt x="41" y="621" on="0"/>
        <pt x="141" y="722" on="0"/>
        <pt x="225" y="722" on="1"/>
        <pt x="257" y="722" on="0"/>
        <pt x="349" y="703" on="0"/>
      </contour>
      <contour>
        <pt x="138" y="494" on="0"/>
        <pt x="174" y="452" on="0"/>
        <pt x="243" y="452" on="0"/>
        <pt x="281" y="488" on="0"/>
        <pt x="281" y="514" on="1"/>
        <pt x="281" y="637" on="1"/>
        <pt x="259" y="642" on="0"/>
        <pt x="181" y="642" on="0"/>
        <pt x="138" y="588" on="0"/>
      </contour>
    </TTGlyph>
    <TTGlyph name="ordmasculine" xMin="41" yMin="372" xMax="395" yMax="722">
      <contour>
        <pt x="231" y="722" on="1"/>
        <pt x="302" y="722" on="0"/>
        <pt x="395" y="636" on="0"/>
        <pt x="395" y="469" on="0"/>
        <pt x="301" y="372" on="0"/>
        <pt x="206" y="372" on="1"/>
        <pt x="134" y="372" on="0"/>
        <pt x="41" y="460" on="0"/>
        <pt x="41" y="626" on="0"/>
        <pt x="136" y="722" on="0"/>
      </contour>
      <contour>
        <pt x="216" y="452" on="1"/>
        <pt x="262" y="452" on="0"/>
        <pt x="298" y="503" on="0"/>
        <pt x="298" y="601" on="0"/>
        <pt x="258" y="642" on="0"/>
        <pt x="216" y="642" on="1"/>
        <pt x="138" y="642" on="0"/>
        <pt x="138" y="452" on="0"/>
      </contour>
    </TTGlyph>
    <TTGlyph name="oslash" xMin="48" yMin="-12" xMax="536" yMax="546">
      <contour>
        <pt x="310" y="546" on="1"/>
        <pt x="388" y="546" on="0"/>
        <pt x="442" y="505" on="1"/>
        <pt x="473" y="546" on="1"/>
        <pt x="536" y="534" on="1"/>
        <pt x="483" y="463" on="1"/>
        <pt x="536" y="390" on="0"/>
        <pt x="536" y="143" on="0"/>
        <pt x="405" y="-12" on="0"/>
        <pt x="274" y="-12" on="1"/>
        <pt x="205" y="-12" on="0"/>
        <pt x="153" y="22" on="1"/>
        <pt x="137" y="0" on="1"/>
        <pt x="68" y="0" on="1"/>
        <pt x="111" y="58" on="1"/>
        <pt x="48" y="131" on="0"/>
        <pt x="48" y="393" on="0"/>
        <pt x="179" y="546" on="0"/>
      </contour>
      <contour>
        <pt x="218" y="468" on="0"/>
        <pt x="156" y="363" on="0"/>
        <pt x="156" y="186" on="0"/>
        <pt x="174" y="143" on="1"/>
        <pt x="387" y="431" on="1"/>
        <pt x="355" y="468" on="0"/>
        <pt x="296" y="468" on="1"/>
      </contour>
      <contour>
        <pt x="289" y="66" on="1"/>
        <pt x="366" y="66" on="0"/>
        <pt x="428" y="173" on="0"/>
        <pt x="428" y="271" on="1"/>
        <pt x="428" y="327" on="0"/>
        <pt x="416" y="373" on="1"/>
        <pt x="207" y="93" on="1"/>
        <pt x="237" y="66" on="0"/>
      </contour>
    </TTGlyph>
    <TTGlyph name="otilde" xMin="48" yMin="-12" xMax="536" yMax="743">
      <contour>
        <pt x="158" y="638" on="1"/>
        <pt x="118" y="664" on="1"/>
        <pt x="129" y="695" on="0"/>
        <pt x="192" y="743" on="0"/>
        <pt x="265" y="743" on="0"/>
        <pt x="347" y="698" on="0"/>
        <pt x="387" y="698" on="0"/>
        <pt x="421" y="716" on="0"/>
        <pt x="428" y="726" on="1"/>
        <pt x="468" y="700" on="1"/>
        <pt x="457" y="669" on="0"/>
        <pt x="394" y="621" on="0"/>
        <pt x="321" y="621" on="0"/>
        <pt x="239" y="665" on="0"/>
        <pt x="198" y="665" on="0"/>
        <pt x="165" y="648" on="0"/>
      </contour>
      <contour>
        <pt x="310" y="546" on="1"/>
        <pt x="408" y="546" on="0"/>
        <pt x="536" y="409" on="0"/>
        <pt x="536" y="143" on="0"/>
        <pt x="405" y="-12" on="0"/>
        <pt x="274" y="-12" on="1"/>
        <pt x="176" y="-12" on="0"/>
        <pt x="48" y="127" on="0"/>
        <pt x="48" y="393" on="0"/>
        <pt x="179" y="546" on="0"/>
      </contour>
      <contour>
        <pt x="162" y="159" on="0"/>
        <pt x="229" y="72" on="0"/>
        <pt x="363" y="72" on="0"/>
        <pt x="422" y="176" on="0"/>
        <pt x="422" y="377" on="0"/>
        <pt x="355" y="462" on="0"/>
        <pt x="296" y="462" on="1"/>
        <pt x="221" y="462" on="0"/>
        <pt x="162" y="360" on="0"/>
      </contour>
    </TTGlyph>
    <TTGlyph name="p" xMin="82" yMin="-212" xMax="556" yMax="546">
      <contour>
        <pt x="100" y="-212" on="1"/>
        <pt x="100" y="391" on="1"/>
        <pt x="100" y="447" on="0"/>
        <pt x="82" y="526" on="1"/>
        <pt x="166" y="537" on="1"/>
        <pt x="184" y="493" on="1"/>
        <pt x="258" y="546" on="0"/>
        <pt x="338" y="546" on="1"/>
        <pt x="440" y="546" on="0"/>
        <pt x="556" y="397" on="0"/>
        <pt x="556" y="142" on="0"/>
        <pt x="432" y="-12" on="0"/>
        <pt x="324" y="-12" on="1"/>
        <pt x="259" y="-12" on="0"/>
        <pt x="208" y="15" on="1"/>
        <pt x="208" y="-212" on="1"/>
      </contour>
      <contour>
        <pt x="311" y="462" on="1"/>
        <pt x="264" y="462" on="0"/>
        <pt x="208" y="425" on="1"/>
        <pt x="208" y="99" on="1"/>
        <pt x="248" y="72" on="0"/>
        <pt x="302" y="72" on="1"/>
        <pt x="376" y="72" on="0"/>
        <pt x="442" y="166" on="0"/>
        <pt x="442" y="380" on="0"/>
        <pt x="376" y="462" on="0"/>
      </contour>
    </TTGlyph>
    <TTGlyph name="paragraph" xMin="50" yMin="-179" xMax="530" yMax="726">
      <contour>
        <pt x="277" y="0" on="1"/>
        <pt x="277" y="255" on="1"/>
        <pt x="172" y="256" on="0"/>
        <pt x="50" y="393" on="0"/>
        <pt x="50" y="603" on="0"/>
        <pt x="151" y="726" on="0"/>
        <pt x="244" y="726" on="1"/>
        <pt x="530" y="726" on="1"/>
        <pt x="530" y="-4" on="1"/>
        <pt x="530" y="-86" on="0"/>
        <pt x="450" y="-179" on="0"/>
        <pt x="366" y="-179" on="1"/>
        <pt x="308" y="-179" on="0"/>
        <pt x="277" y="-172" on="1"/>
        <pt x="277" y="-91" on="1"/>
        <pt x="290" y="-92" on="0"/>
        <pt x="384" y="-92" on="0"/>
        <pt x="432" y="-49" on="0"/>
        <pt x="432" y="-2" on="1"/>
        <pt x="432" y="636" on="1"/>
        <pt x="375" y="636" on="1"/>
        <pt x="375" y="0" on="1"/>
      </contour>
    </TTGlyph>
    <TTGlyph name="parenleft" xMin="60" yMin="-90" xMax="298" yMax="752">
      <contour>
        <pt x="298" y="-7" on="1"/>
        <pt x="269" y="-90" on="1"/>
        <pt x="175" y="-61" on="0"/>
        <pt x="60" y="155" on="0"/>
        <pt x="60" y="490" on="0"/>
        <pt x="165" y="714" on="0"/>
        <pt x="269" y="752" on="1"/>
        <pt x="298" y="675" on="1"/>
        <pt x="230" y="651" on="0"/>
        <pt x="181" y="475" on="0"/>
        <pt x="181" y="332" on="1"/>
        <pt x="181" y="32" on="0"/>
      </contour>
    </TTGlyph>
    <TTGlyph name="parenright" xMin="50" yMin="-90" xMax="288" yMax="752">
      <contour>
        <pt x="50" y="669" on="1"/>
        <pt x="79" y="752" on="1"/>
        <pt x="173" y="723" on="0"/>
        <pt x="288" y="507" on="0"/>
        <pt x="288" y="172" on="0"/>
        <pt x="183" y="-52" on="0"/>
        <pt x="79" y="-90" on="1"/>
        <pt x="50" y="-13" on="1"/>
        <pt x="118" y="11" on="0"/>
        <pt x="167" y="187" on="0"/>
        <pt x="167" y="330" on="1"/>
        <pt x="167" y="630" on="0"/>
      </contour>
    </TTGlyph>
    <TTGlyph name="percent" xMin="49" yMin="-12" xMax="727" yMax="729">
      <contour>
        <pt x="253" y="-12" on="1"/>
        <pt x="184" y="16" on="1"/>
        <pt x="534" y="729" on="1"/>
        <pt x="603" y="700" on="1"/>
      </contour>
      <contour>
        <pt x="185" y="373" on="1"/>
        <pt x="128" y="373" on="0"/>
        <pt x="49" y="462" on="0"/>
        <pt x="49" y="630" on="0"/>
        <pt x="132" y="729" on="0"/>
        <pt x="212" y="729" on="1"/>
        <pt x="270" y="729" on="0"/>
        <pt x="349" y="640" on="0"/>
        <pt x="349" y="472" on="0"/>
        <pt x="265" y="373" on="0"/>
      </contour>
      <contour>
        <pt x="196" y="442" on="1"/>
        <pt x="265" y="442" on="0"/>
        <pt x="265" y="558" on="1"/>
        <pt x="265" y="660" on="0"/>
        <pt x="202" y="660" on="1"/>
        <pt x="133" y="660" on="0"/>
        <pt x="133" y="544" on="1"/>
        <pt x="133" y="442" on="0"/>
      </contour>
      <contour>
        <pt x="563" y="-12" on="1"/>
        <pt x="506" y="-12" on="0"/>
        <pt x="427" y="77" on="0"/>
        <pt x="427" y="245" on="0"/>
        <pt x="510" y="344" on="0"/>
        <pt x="590" y="344" on="1"/>
        <pt x="648" y="344" on="0"/>
        <pt x="727" y="255" on="0"/>
        <pt x="727" y="87" on="0"/>
        <pt x="643" y="-12" on="0"/>
      </contour>
      <contour>
        <pt x="574" y="57" on="1"/>
        <pt x="643" y="57" on="0"/>
        <pt x="643" y="173" on="1"/>
        <pt x="643" y="275" on="0"/>
        <pt x="580" y="275" on="1"/>
        <pt x="511" y="275" on="0"/>
        <pt x="511" y="159" on="1"/>
        <pt x="511" y="57" on="0"/>
      </contour>
    </TTGlyph>
    <TTGlyph name="period" xMin="50" yMin="-11" xMax="174" yMax="115">
      <contour>
        <pt x="50" y="26" on="0"/>
        <pt x="50" y="78" on="0"/>
        <pt x="84" y="115" on="0"/>
        <pt x="140" y="115" on="0"/>
        <pt x="174" y="78" on="0"/>
        <pt x="174" y="26" on="0"/>
        <pt x="140" y="-11" on="0"/>
        <pt x="84" y="-11" on="0"/>
      </contour>
    </TTGlyph>
    <TTGlyph name="periodcentered" xMin="50" yMin="269" xMax="174" yMax="395">
      <contour>
        <pt x="50" y="306" on="0"/>
        <pt x="50" y="358" on="0"/>
        <pt x="84" y="395" on="0"/>
        <pt x="140" y="395" on="0"/>
        <pt x="174" y="358" on="0"/>
        <pt x="174" y="306" on="0"/>
        <pt x="140" y="269" on="0"/>
        <pt x="84" y="269" on="0"/>
      </contour>
    </TTGlyph>
    <TTGlyph name="plus" xMin="64" yMin="94" xMax="486" yMax="516">
      <contour>
        <pt x="227" y="516" on="1"/>
        <pt x="317" y="516" on="1"/>
        <pt x="317" y="349" on="1"/>
        <pt x="486" y="349" on="1"/>
        <pt x="472" y="265" on="1"/>
        <pt x="317" y="265" on="1"/>
        <pt x="317" y="108" on="1"/>
        <pt x="227" y="94" on="1"/>
        <pt x="227" y="265" on="1"/>
        <pt x="64" y="265" on="1"/>
        <pt x="64" y="349" on="1"/>
        <pt x="227" y="349" on="1"/>
      </contour>
    </TTGlyph>
    <TTGlyph name="plusminus" xMin="64" yMin="85" xMax="486" yMax="536">
      <contour>
        <pt x="227" y="536" on="1"/>
        <pt x="317" y="536" on="1"/>
        <pt x="317" y="416" on="1"/>
        <pt x="486" y="416" on="1"/>
        <pt x="472" y="338" on="1"/>
        <pt x="317" y="338" on="1"/>
        <pt x="317" y="228" on="1"/>
        <pt x="227" y="214" on="1"/>
        <pt x="227" y="338" on="1"/>
        <pt x="64" y="338" on="1"/>
        <pt x="64" y="416" on="1"/>
        <pt x="227" y="416" on="1"/>
      </contour>
      <contour>
        <pt x="64" y="163" on="1"/>
        <pt x="486" y="163" on="1"/>
        <pt x="472" y="85" on="1"/>
        <pt x="64" y="85" on="1"/>
      </contour>
    </TTGlyph>
</ttFont>
